<svg width="374" height="94" viewBox="0 0 374 94" fill="none" xmlns="http://www.w3.org/2000/svg">
<rect width="374" height="94" rx="8" fill="#26A2B3"/>
<g clip-path="url(#clip0_270_2)">
<path d="M47.6969 31.9627H8.5904V43.5714H47.6969V31.9627Z" fill="url(#paint0_linear_270_2)"/>
<path fill-rule="evenodd" clip-rule="evenodd" d="M45.1767 39.0926C42.703 39.0926 40.6979 41.102 40.6979 43.5715C40.6979 46.0452 42.703 48.0503 45.1767 48.0503C47.6504 48.0503 49.6556 46.0409 49.6556 43.5715C49.6556 41.0977 47.6504 39.0926 45.1767 39.0926Z" fill="url(#paint1_linear_270_2)"/>
<path fill-rule="evenodd" clip-rule="evenodd" d="M11.1063 39.0926C13.58 39.0926 15.5852 41.102 15.5852 43.5715C15.5852 46.0452 13.5758 48.0503 11.1063 48.0503C8.63686 48.0503 6.6275 46.0452 6.6275 43.5715C6.6275 41.0977 8.63686 39.0926 11.1063 39.0926Z" fill="url(#paint2_linear_270_2)"/>
<path fill-rule="evenodd" clip-rule="evenodd" d="M11.1063 20.7551H45.1726V45.1756C45.1726 54.5807 37.5446 62.2087 28.1394 62.2087H28.1352C18.7301 62.2087 11.1021 54.5807 11.1021 45.1756C11.1063 33.74 11.1063 20.7551 11.1063 20.7551Z" fill="url(#paint3_linear_270_2)"/>
<path fill-rule="evenodd" clip-rule="evenodd" d="M47.6969 24.5163C47.6969 17.6018 42.091 12 35.1806 12C30.6807 12 25.6066 12 21.1067 12C14.1921 12 8.5904 17.6018 8.5904 24.5163C8.5904 29.565 8.5904 34.217 8.5904 34.217H47.6969V24.5163Z" fill="url(#paint4_linear_270_2)"/>
<path d="M47.6969 29.2442H8.5904V34.217H47.6969V29.2442Z" fill="url(#paint5_linear_270_2)"/>
<path fill-rule="evenodd" clip-rule="evenodd" d="M14.6523 46.6446C15.771 46.6446 16.6828 47.5522 16.6828 48.6751C16.6828 49.7937 15.7752 50.7055 14.6523 50.7055C13.5337 50.7055 12.6218 49.7979 12.6218 48.6751C12.6218 47.5564 13.5337 46.6446 14.6523 46.6446Z" fill="#F8B5B8"/>
<path fill-rule="evenodd" clip-rule="evenodd" d="M41.6309 46.6446C40.5122 46.6446 39.6004 47.5522 39.6004 48.6751C39.6004 49.7937 40.508 50.7055 41.6309 50.7055C42.7495 50.7055 43.6613 49.7979 43.6613 48.6751C43.6613 47.5564 42.7537 46.6446 41.6309 46.6446Z" fill="#F8B5B8"/>
<path fill-rule="evenodd" clip-rule="evenodd" d="M22.7404 37.2985C22.7404 37.2985 21.3811 36.6484 19.5279 36.6484C17.6452 36.6484 16.3999 37.3154 16.3999 37.3154C15.9862 37.5307 15.8258 38.0415 16.0411 38.4551C16.2564 38.8688 16.7672 39.0293 17.1809 38.814C17.1809 38.814 18.118 38.3412 19.5237 38.3412C20.959 38.3412 22.0143 38.8308 22.0143 38.8308C22.4364 39.0292 22.9388 38.8477 23.1372 38.4298C23.344 38.0035 23.1625 37.4969 22.7404 37.2985Z" fill="url(#paint6_linear_270_2)"/>
<path fill-rule="evenodd" clip-rule="evenodd" d="M34.2647 38.8267C34.2647 38.8267 35.32 38.337 36.7553 38.337C38.1652 38.337 39.0981 38.8098 39.0981 38.8098C39.5118 39.0251 40.0226 38.8647 40.2379 38.451C40.4532 38.0373 40.2928 37.5265 39.8791 37.3112C39.8791 37.3112 38.6338 36.6442 36.7553 36.6442C34.9021 36.6442 33.5429 37.2943 33.5429 37.2943C33.1207 37.4927 32.9392 37.9993 33.1418 38.4172C33.3402 38.8435 33.8426 39.0251 34.2647 38.8267Z" fill="url(#paint7_linear_270_2)"/>
<path fill-rule="evenodd" clip-rule="evenodd" d="M30.0475 51.1234C29.6719 51.7946 28.9584 52.2378 28.1437 52.2378C27.3248 52.2378 26.6114 51.7946 26.2357 51.1234C26.0077 50.7182 25.4927 50.5704 25.0875 50.7984C24.6822 51.0263 24.5345 51.5413 24.7624 51.9466C25.4294 53.137 26.6916 53.9264 28.1437 53.9264C29.5916 53.9264 30.858 53.137 31.525 51.9466C31.753 51.5413 31.6052 51.0263 31.2 50.7984C30.7905 50.5704 30.2755 50.7139 30.0475 51.1234Z" fill="url(#paint8_linear_270_2)"/>
<path fill-rule="evenodd" clip-rule="evenodd" d="M34.729 45.2769C35.016 44.7619 35.569 44.4157 36.198 44.4157C36.827 44.4157 37.38 44.7576 37.667 45.2769C37.895 45.6821 38.41 45.8299 38.8152 45.6019C39.2205 45.374 39.3682 44.859 39.1403 44.4537C38.5619 43.4153 37.4602 42.7272 36.198 42.7272C34.9358 42.7272 33.834 43.4153 33.2557 44.4537C33.0278 44.859 33.1755 45.374 33.5808 45.6019C33.986 45.8299 34.501 45.6821 34.729 45.2769Z" fill="url(#paint9_linear_270_2)"/>
<path fill-rule="evenodd" clip-rule="evenodd" d="M23.0316 44.4537C22.4533 43.4153 21.3516 42.7272 20.0894 42.7272C18.8272 42.7272 17.7254 43.4153 17.1471 44.4537C16.9191 44.859 17.0669 45.374 17.4721 45.6019C17.8774 45.8299 18.3924 45.6821 18.6203 45.2769C18.9074 44.7619 19.4604 44.4157 20.0894 44.4157C20.7184 44.4157 21.2671 44.7576 21.5584 45.2769C21.7864 45.6821 22.3014 45.8299 22.7066 45.6019C23.1119 45.374 23.2596 44.859 23.0316 44.4537Z" fill="url(#paint10_linear_270_2)"/>
<path fill-rule="evenodd" clip-rule="evenodd" d="M56.2832 52.2167V67.4896L54.164 80.3055L31.4279 87.4438H24.8553L2.11911 80.3055L0 67.4896V52.2167L4.36487 50.3129C12.5205 50.5198 21.398 54.0192 28.1437 58.1688C34.8894 54.015 43.7627 50.5198 51.9183 50.3129L56.2832 52.2167Z" fill="url(#paint11_linear_270_2)"/>
<path fill-rule="evenodd" clip-rule="evenodd" d="M31.9936 61.6134H24.2896L0 53.9855V95.9245H56.2832V53.9855L31.9936 61.6134Z" fill="url(#paint12_linear_270_2)"/>
<path fill-rule="evenodd" clip-rule="evenodd" d="M38.8279 95.9246H37.7008L37.7092 73.7456C37.8232 73.2517 38.0807 73.3151 38.4986 73.1167C40.584 72.112 41.9897 69.8873 42.0024 67.5656V66.0164C42.0319 65.6407 42.0783 65.6069 42.3949 65.4802L56.2832 61.0563V62.2383L43.1252 66.4258C43.1252 69.634 41.7617 72.8592 38.8532 74.1931L38.8279 95.9246ZM0 61.0563V62.2383L13.1537 66.4258C13.1537 69.634 14.5214 72.8592 17.4257 74.1931L17.4552 95.9288H18.5823L18.5781 73.7499C18.4642 73.256 18.2066 73.3193 17.7887 73.1209C15.7034 72.1162 14.2977 69.8915 14.285 67.5698V66.0206C14.2555 65.6449 14.209 65.6111 13.8924 65.4845L0 61.0563Z" fill="#CED4DA"/>
<path d="M31.9936 61.6134H24.2896V95.9245H31.9936V61.6134Z" fill="#CED4DA"/>
<path fill-rule="evenodd" clip-rule="evenodd" d="M0 71.7236H2.98027C3.8963 71.7236 4.77012 72.0866 5.41598 72.7325C6.06185 73.3784 6.42488 74.2564 6.42488 75.1682C6.42488 77.0003 6.42488 82.0574 6.42488 83.8895C6.42488 84.8055 6.06185 85.6793 5.41598 86.3252C4.77012 86.9711 3.89208 87.3341 2.98027 87.3341H0V71.7236ZM56.2832 71.7236V87.3341H53.3029C52.3869 87.3341 51.513 86.9711 50.8672 86.3252C50.2213 85.6793 49.8583 84.8013 49.8583 83.8895C49.8583 82.0574 49.8583 77.0003 49.8583 75.1682C49.8583 74.2522 50.2213 73.3784 50.8672 72.7325C51.513 72.0866 52.3911 71.7236 53.3029 71.7236H56.2832Z" fill="url(#paint13_linear_270_2)"/>
</g>
<g clip-path="url(#clip1_270_2)">
<path d="M367.656 36.5091H324.628V56.894H367.656V36.5091Z" fill="url(#paint14_linear_270_2)"/>
<path fill-rule="evenodd" clip-rule="evenodd" d="M361.18 26.5341H331.103V48.7679C331.103 57.0755 337.836 63.8085 346.144 63.8085C354.451 63.8085 361.184 57.0755 361.184 48.7679C361.18 38.4214 361.18 26.5341 361.18 26.5341Z" fill="url(#paint15_linear_270_2)"/>
<path fill-rule="evenodd" clip-rule="evenodd" d="M331.103 22.9164H361.18V36.5091C361.18 36.5091 355.638 29.9829 346.14 29.9829C336.642 29.9829 331.099 36.5091 331.099 36.5091V22.9164H331.103Z" fill="url(#paint16_linear_270_2)"/>
<path fill-rule="evenodd" clip-rule="evenodd" d="M346.144 12C358.027 12 367.656 21.6331 367.656 33.512V55.6571H361.18V39.0841C361.18 35.9477 360.121 32.8999 358.175 30.443C355.481 27.0322 351.188 22.9164 346.14 22.9164C341.095 22.9164 336.802 27.0322 334.109 30.443C332.163 32.9041 331.103 35.9477 331.103 39.0841C331.099 45.1375 331.099 55.6571 331.099 55.6571H324.628V33.512C324.628 21.6331 334.261 12 346.144 12Z" fill="url(#paint17_linear_270_2)"/>
<path fill-rule="evenodd" clip-rule="evenodd" d="M337.524 38.5185C333.497 38.5185 330.225 41.79 330.225 45.8172C330.225 49.8444 333.497 53.1159 337.524 53.1159C341.551 53.1159 344.823 49.8444 344.823 45.8172C344.823 41.7858 341.555 38.5185 337.524 38.5185ZM337.524 40.207C340.618 40.207 343.134 42.723 343.134 45.8172C343.134 48.9114 340.622 51.4274 337.524 51.4274C334.425 51.4274 331.914 48.9114 331.914 45.8172C331.914 42.7187 334.43 40.207 337.524 40.207Z" fill="url(#paint18_linear_270_2)"/>
<path fill-rule="evenodd" clip-rule="evenodd" d="M348.048 52.7191C347.672 53.3903 346.959 53.8335 346.14 53.8335C345.321 53.8335 344.607 53.3903 344.232 52.7191C344.004 52.3138 343.489 52.1661 343.083 52.394C342.678 52.622 342.53 53.137 342.758 53.5422C343.425 54.7326 344.687 55.522 346.14 55.522C347.588 55.522 348.854 54.7326 349.521 53.5422C349.749 53.137 349.601 52.622 349.196 52.394C348.791 52.1661 348.276 52.3138 348.048 52.7191Z" fill="url(#paint19_linear_270_2)"/>
<path fill-rule="evenodd" clip-rule="evenodd" d="M354.76 38.5185C350.732 38.5185 347.461 41.79 347.461 45.8172C347.461 49.8444 350.732 53.1159 354.76 53.1159C358.787 53.1159 362.058 49.8444 362.058 45.8172C362.058 41.7858 358.787 38.5185 354.76 38.5185ZM354.76 40.207C357.858 40.207 360.37 42.723 360.37 45.8172C360.37 48.9114 357.858 51.4274 354.76 51.4274C351.665 51.4274 349.149 48.9114 349.149 45.8172C349.149 42.7187 351.661 40.207 354.76 40.207Z" fill="url(#paint20_linear_270_2)"/>
<path fill-rule="evenodd" clip-rule="evenodd" d="M351.826 37.4294C352.738 37.0874 353.725 36.8975 354.76 36.8975C355.443 36.8975 356.106 36.9777 356.744 37.1339C357.347 37.2816 357.955 36.9101 358.103 36.3065C358.251 35.7028 357.879 35.095 357.275 34.9472C356.469 34.7488 355.625 34.6475 354.76 34.6475C353.447 34.6475 352.193 34.8881 351.036 35.3229C350.454 35.5424 350.158 36.1925 350.378 36.7708C350.593 37.3492 351.243 37.6447 351.826 37.4294Z" fill="url(#paint21_linear_270_2)"/>
<path fill-rule="evenodd" clip-rule="evenodd" d="M341.251 35.3187C340.09 34.8839 338.837 34.6433 337.528 34.6433C336.663 34.6433 335.818 34.7489 335.012 34.943C334.408 35.0908 334.037 35.6987 334.185 36.3023C334.333 36.906 334.94 37.2774 335.544 37.1297C336.181 36.9735 336.844 36.8933 337.528 36.8933C338.562 36.8933 339.55 37.079 340.462 37.4252C341.044 37.6447 341.695 37.3492 341.91 36.7667C342.125 36.1883 341.834 35.5382 341.251 35.3187Z" fill="url(#paint22_linear_270_2)"/>
<path fill-rule="evenodd" clip-rule="evenodd" d="M343.978 46.6615H348.305C348.77 46.6615 349.149 46.2815 349.149 45.8172C349.149 45.3528 348.77 44.9729 348.305 44.9729H343.978C343.514 44.9729 343.134 45.3528 343.134 45.8172C343.134 46.2815 343.514 46.6615 343.978 46.6615Z" fill="url(#paint23_linear_270_2)"/>
<path fill-rule="evenodd" clip-rule="evenodd" d="M353.29 46.8725C353.577 46.3575 354.13 46.0113 354.759 46.0113C355.388 46.0113 355.937 46.3533 356.228 46.8725C356.456 47.2777 356.971 47.4255 357.377 47.1975C357.782 46.9696 357.93 46.4546 357.702 46.0493C357.123 45.0109 356.022 44.3228 354.759 44.3228C353.497 44.3228 352.395 45.0109 351.817 46.0493C351.589 46.4546 351.737 46.9696 352.142 47.1975C352.547 47.4255 353.062 47.282 353.29 46.8725Z" fill="#632948"/>
<path fill-rule="evenodd" clip-rule="evenodd" d="M340.466 46.0493C339.888 45.0109 338.786 44.3228 337.524 44.3228C336.262 44.3228 335.16 45.0109 334.582 46.0493C334.354 46.4546 334.501 46.9696 334.907 47.1975C335.312 47.4255 335.827 47.2777 336.055 46.8725C336.342 46.3575 336.895 46.0113 337.524 46.0113C338.153 46.0113 338.702 46.3533 338.993 46.8725C339.221 47.2777 339.736 47.4255 340.141 47.1975C340.551 46.9738 340.694 46.4588 340.466 46.0493Z" fill="#632948"/>
<path fill-rule="evenodd" clip-rule="evenodd" d="M374.283 53.8124V69.0852L372.164 81.9012L349.428 89.0395H342.855L320.119 81.9012L318 69.0895V53.8124L322.365 51.9086C330.521 52.1154 339.398 55.6149 346.139 59.7645C352.885 55.6107 361.758 52.1154 369.914 51.9086L374.283 53.8124Z" fill="url(#paint24_linear_270_2)"/>
<path fill-rule="evenodd" clip-rule="evenodd" d="M342.29 63.2133H349.994L374.283 55.5812V97.5244H318V55.5812L342.29 63.2133Z" fill="url(#paint25_linear_270_2)"/>
<path fill-rule="evenodd" clip-rule="evenodd" d="M356.828 97.5244H355.701L355.709 75.3455C355.823 74.8516 356.081 74.9149 356.499 74.7165C358.584 73.7118 359.99 71.4872 360.002 69.1655V67.6162C360.032 67.2405 360.078 67.2068 360.395 67.0801L374.283 62.6562V63.8381L361.129 68.0257C361.129 71.2339 359.766 74.459 356.857 75.793L356.828 97.5244ZM318 62.6562V63.8381L331.154 68.0257C331.154 71.2339 332.521 74.459 335.426 75.793L335.455 97.5287H336.582L336.578 75.3497C336.464 74.8558 336.207 74.9192 335.789 74.7207C333.703 73.7161 332.298 71.4914 332.285 69.1697V67.6204C332.255 67.2447 332.209 67.211 331.892 67.0843L318 62.6562Z" fill="#CED4DA"/>
<path d="M349.994 63.2133H342.29V97.5244H349.994V63.2133Z" fill="#CED4DA"/>
<path fill-rule="evenodd" clip-rule="evenodd" d="M318 73.3192H320.98C321.896 73.3192 322.77 73.6823 323.416 74.3281C324.062 74.974 324.425 75.852 324.425 76.7638C324.425 78.5959 324.425 83.6531 324.425 85.4851C324.425 86.4012 324.062 87.275 323.416 87.9208C322.77 88.5667 321.892 88.9297 320.98 88.9297H318V73.3192ZM374.283 73.3192V88.9297H371.303C370.391 88.9297 369.513 88.5667 368.867 87.9208C368.221 87.275 367.858 86.3969 367.858 85.4851C367.858 83.6531 367.858 78.5959 367.858 76.7638C367.858 75.8478 368.221 74.974 368.867 74.3281C369.513 73.6823 370.391 73.3192 371.303 73.3192H374.283Z" fill="url(#paint26_linear_270_2)"/>
</g>
<path d="M130.62 23.04H126.54V36H130.4C134.4 36 137.56 34.02 137.56 29.52C137.56 24.68 134.8 23.04 130.62 23.04ZM130.06 34.06H128.82V24.98H130.66C133.64 24.98 135.12 26.28 135.12 29.52C135.12 33.22 133.22 34.06 130.06 34.06ZM145.439 36.26C148.799 36.26 151.779 34.24 151.779 29.56C151.779 25.58 149.679 22.78 145.579 22.78C142.219 22.78 139.219 24.8 139.219 29.48C139.219 33.46 141.339 36.26 145.439 36.26ZM145.439 34.36C142.819 34.36 141.579 32.38 141.579 29.46C141.579 26.64 142.879 24.68 145.579 24.68C148.179 24.68 149.419 26.66 149.419 29.58C149.419 32.4 148.119 34.36 145.439 34.36ZM157.377 26.22L158.137 25.22L154.817 22.6L153.637 24.34L157.377 26.22ZM166.571 23.04H163.751L158.991 35.86V36H161.331L162.531 32.56H167.731L168.951 36H171.351V35.86L166.571 23.04ZM163.171 30.72L165.111 25.16L167.071 30.72H163.171ZM186.748 23.04V28.44H180.148V23.04H177.868V36H180.148V30.38H186.748V36H189.028V23.04H186.748ZM198.446 23.04H195.626L190.866 35.86V36H193.206L194.406 32.56H199.606L200.826 36H203.226V35.86L198.446 23.04ZM195.046 30.72L196.986 25.16L198.946 30.72H195.046ZM211.295 30.82C213.275 30.24 214.235 28.74 214.235 26.96C214.235 24.7 212.635 23.04 209.355 23.04H205.075V36H207.355V31.1H208.915L212.415 36H214.995V35.86L211.295 30.82ZM207.355 24.92H209.335C210.975 24.92 211.875 25.64 211.875 27.04C211.875 28.54 210.875 29.3 209.075 29.3H207.355V24.92ZM216.872 36H219.152V23.04H216.872V36ZM228.583 23.04H225.763L221.003 35.86V36H223.343L224.543 32.56H229.743L230.963 36H233.363V35.86L228.583 23.04ZM225.183 30.72L227.123 25.16L229.083 30.72H225.183ZM244.032 23.04V32.66C243.712 31.98 243.312 31.42 242.872 30.76L237.652 23.04H235.212V36H237.432V26.44C237.812 27.3 238.312 27.98 238.752 28.64L243.732 36H246.232V23.04H244.032Z" fill="white"/>
<path d="M79.62 56.04H75.54V69H79.4C83.4 69 86.56 67.02 86.56 62.52C86.56 57.68 83.8 56.04 79.62 56.04ZM79.06 67.06H77.82V57.98H79.66C82.64 57.98 84.12 59.28 84.12 62.52C84.12 66.22 82.22 67.06 79.06 67.06ZM92.4789 59.86C90.8789 59.86 89.5589 60.36 88.3189 61.22L89.1989 62.6C90.2789 61.9 91.2589 61.58 92.1589 61.58C93.2589 61.58 93.5989 62.08 93.5989 63.2V63.54C90.5389 63.62 87.9189 64.58 87.9189 66.84C87.9189 68.3 88.9989 69.26 90.6189 69.26C91.6389 69.26 92.6789 69.02 93.7189 68.26L93.8789 69H95.7589V62.8C95.7589 60.7 94.5989 59.86 92.4789 59.86ZM90.1789 66.6C90.1789 65.62 91.5189 65.08 93.5989 64.98V66.9C92.7789 67.38 92.0389 67.58 91.3189 67.58C90.5789 67.58 90.1789 67.24 90.1789 66.6ZM98.3083 69H100.468V55.02L98.3083 55.24V69ZM106.873 59.86C105.273 59.86 103.953 60.36 102.713 61.22L103.593 62.6C104.673 61.9 105.653 61.58 106.553 61.58C107.653 61.58 107.993 62.08 107.993 63.2V63.54C104.933 63.62 102.313 64.58 102.313 66.84C102.313 68.3 103.393 69.26 105.013 69.26C106.033 69.26 107.073 69.02 108.113 68.26L108.273 69H110.153V62.8C110.153 60.7 108.993 59.86 106.873 59.86ZM104.573 66.6C104.573 65.62 105.913 65.08 107.993 64.98V66.9C107.173 67.38 106.433 67.58 105.713 67.58C104.973 67.58 104.573 67.24 104.573 66.6ZM123.263 59.86C122.023 59.86 120.823 60.32 119.903 60.86C119.483 60.16 118.723 59.86 117.783 59.86C116.703 59.86 115.703 60.24 114.863 60.72V59.94L112.703 60.16V69H114.863V62.2C115.563 61.82 116.303 61.6 116.943 61.6C117.823 61.6 118.163 62.02 118.163 63.32V69H120.323V62.58C120.323 62.46 120.323 62.32 120.303 62.2C121.023 61.82 121.763 61.6 122.423 61.6C123.303 61.6 123.643 62.02 123.643 63.32V69H125.803V62.58C125.803 60.66 124.783 59.86 123.263 59.86ZM144.355 56.04L141.395 61.74C140.835 62.82 140.295 63.98 140.015 64.84C139.735 63.98 139.195 62.84 138.635 61.74L135.695 56.04H133.235V69H135.435V59.86C135.615 60.36 135.895 60.94 136.315 61.74L139.015 67.12H140.975L143.715 61.74C144.115 60.96 144.355 60.38 144.535 59.9V69H146.775V56.04H144.355ZM157.176 63.66C157.176 61.52 155.876 59.86 153.336 59.86C150.496 59.86 148.996 61.9 148.996 64.68C148.996 68.04 150.996 69.26 153.416 69.26C154.896 69.26 156.096 68.76 156.956 68.16L156.196 66.76C155.316 67.26 154.616 67.56 153.576 67.56C152.356 67.56 151.256 66.88 151.156 65H157.116C157.156 64.52 157.176 64 157.176 63.66ZM153.356 61.42C154.376 61.42 155.096 62 155.096 63.44V63.5H151.256C151.476 62.22 152.136 61.42 153.356 61.42ZM159.148 69H161.308V55.02L159.148 55.24V69ZM167.713 59.86C166.113 59.86 164.793 60.36 163.553 61.22L164.433 62.6C165.513 61.9 166.493 61.58 167.393 61.58C168.493 61.58 168.833 62.08 168.833 63.2V63.54C165.773 63.62 163.153 64.58 163.153 66.84C163.153 68.3 164.233 69.26 165.853 69.26C166.873 69.26 167.913 69.02 168.953 68.26L169.113 69H170.993V62.8C170.993 60.7 169.833 59.86 167.713 59.86ZM165.413 66.6C165.413 65.62 166.753 65.08 168.833 64.98V66.9C168.013 67.38 167.273 67.58 166.553 67.58C165.813 67.58 165.413 67.24 165.413 66.6ZM178.063 64.24L181.543 60.26V60.14H179.203L175.703 64.16V55.02L173.543 55.24V69H175.703V64.46L179.143 69H181.723V68.86L178.063 64.24ZM188.93 60.16V66.82C188.21 67.2 187.45 67.5 186.77 67.5C185.65 67.5 185.31 67.02 185.31 65.84V59.94L183.15 60.16V66.48C183.15 68.32 184.27 69.26 185.91 69.26C187.15 69.26 188.19 68.84 189.05 68.32L189.21 69H191.09V59.94L188.93 60.16ZM198.258 64.24L201.738 60.26V60.14H199.398L195.898 64.16V55.02L193.738 55.24V69H195.898V64.46L199.338 69H201.918V68.86L198.258 64.24ZM207.225 59.86C205.625 59.86 204.305 60.36 203.065 61.22L203.945 62.6C205.025 61.9 206.005 61.58 206.905 61.58C208.005 61.58 208.345 62.08 208.345 63.2V63.54C205.285 63.62 202.665 64.58 202.665 66.84C202.665 68.3 203.745 69.26 205.365 69.26C206.385 69.26 207.425 69.02 208.465 68.26L208.625 69H210.505V62.8C210.505 60.7 209.345 59.86 207.225 59.86ZM204.925 66.6C204.925 65.62 206.265 65.08 208.345 64.98V66.9C207.525 67.38 206.785 67.58 206.065 67.58C205.325 67.58 204.925 67.24 204.925 66.6ZM218.334 59.86C217.154 59.86 216.074 60.3 215.214 60.8V59.94L213.054 60.16V69H215.214V62.22C215.974 61.84 216.774 61.6 217.474 61.6C218.534 61.6 218.894 62.02 218.894 63.32V69H221.054V62.62C221.054 60.66 219.994 59.86 218.334 59.86ZM234.829 56.04H232.009L227.249 68.86V69H229.589L230.789 65.56H235.989L237.209 69H239.609V68.86L234.829 56.04ZM231.429 63.72L233.369 58.16L235.329 63.72H231.429ZM245.758 64.24L249.238 60.26V60.14H246.898L243.398 64.16V55.02L241.238 55.24V69H243.398V64.46L246.838 69H249.418V68.86L245.758 64.24ZM256.105 67.18C255.605 67.38 255.225 67.5 254.785 67.5C254.105 67.5 253.725 67.08 253.725 66.08V61.84H256.265L256.485 60.14H253.725V57.82L251.565 58.14V60.14H249.865V61.84H251.565V66.42C251.565 68.42 252.805 69.26 254.305 69.26C255.385 69.26 256.165 68.94 256.705 68.66L256.105 67.18ZM259.309 58.54C260.129 58.54 260.789 57.9 260.789 57.12C260.789 56.34 260.129 55.68 259.309 55.68C258.529 55.68 257.869 56.34 257.869 57.12C257.869 57.9 258.529 58.54 259.309 58.54ZM258.269 69H260.429V59.94L258.269 60.16V69ZM267.094 56.94C267.474 56.94 267.834 57 268.174 57.18L268.854 55.54C268.294 55.28 267.674 55.12 266.914 55.12C264.754 55.12 263.554 56.54 263.554 58.6V60.14H262.074V61.84H263.554V69H265.714V61.84H267.974L268.194 60.14H265.714V58.56C265.714 57.5 266.194 56.94 267.094 56.94ZM270.754 58.54C271.574 58.54 272.234 57.9 272.234 57.12C272.234 56.34 271.574 55.68 270.754 55.68C269.974 55.68 269.314 56.34 269.314 57.12C269.314 57.9 269.974 58.54 270.754 58.54ZM269.714 69H271.874V59.94L269.714 60.16V69ZM279.679 67.18C279.179 67.38 278.799 67.5 278.359 67.5C277.679 67.5 277.299 67.08 277.299 66.08V61.84H279.839L280.059 60.14H277.299V57.82L275.139 58.14V60.14H273.439V61.84H275.139V66.42C275.139 68.42 276.379 69.26 277.879 69.26C278.959 69.26 279.739 68.94 280.279 68.66L279.679 67.18ZM285.623 59.86C284.023 59.86 282.703 60.36 281.463 61.22L282.343 62.6C283.423 61.9 284.403 61.58 285.303 61.58C286.403 61.58 286.743 62.08 286.743 63.2V63.54C283.683 63.62 281.063 64.58 281.063 66.84C281.063 68.3 282.143 69.26 283.763 69.26C284.783 69.26 285.823 69.02 286.863 68.26L287.023 69H288.903V62.8C288.903 60.7 287.743 59.86 285.623 59.86ZM283.323 66.6C283.323 65.62 284.663 65.08 286.743 64.98V66.9C285.923 67.38 285.183 67.58 284.463 67.58C283.723 67.58 283.323 67.24 283.323 66.6ZM294.453 69.26C296.933 69.26 298.173 68.04 298.173 66.42C298.173 64.98 297.273 64.1 295.093 63.52L294.453 63.36C293.353 63.08 293.053 62.86 293.053 62.38C293.053 61.86 293.513 61.5 294.353 61.5C295.233 61.5 295.893 61.68 297.013 62.26L297.853 60.82C296.653 60.12 295.473 59.86 294.313 59.86C292.293 59.86 290.853 60.94 290.853 62.52C290.853 63.9 291.693 64.66 293.553 65.16L294.153 65.32C295.653 65.72 295.993 66.1 295.993 66.62C295.993 67.26 295.453 67.62 294.393 67.62C293.493 67.62 292.433 67.36 291.373 66.6L290.453 68.06C291.553 68.84 292.793 69.26 294.453 69.26Z" fill="white"/>
<defs>
<linearGradient id="paint0_linear_270_2" x1="28.1423" y1="31.9636" x2="28.1423" y2="41.1425" gradientUnits="userSpaceOnUse">
<stop stop-color="#7B4461"/>
<stop offset="1" stop-color="#632948"/>
</linearGradient>
<linearGradient id="paint1_linear_270_2" x1="45.1762" y1="39.0921" x2="45.1762" y2="48.0523" gradientUnits="userSpaceOnUse">
<stop stop-color="#FCD3CD"/>
<stop offset="1" stop-color="#F48FA0"/>
</linearGradient>
<linearGradient id="paint2_linear_270_2" x1="11.1085" y1="39.0921" x2="11.1085" y2="48.0523" gradientUnits="userSpaceOnUse">
<stop stop-color="#FCD3CD"/>
<stop offset="1" stop-color="#F48FA0"/>
</linearGradient>
<linearGradient id="paint3_linear_270_2" x1="28.1423" y1="20.7559" x2="28.1423" y2="62.2095" gradientUnits="userSpaceOnUse">
<stop stop-color="#FEEAE7"/>
<stop offset="1" stop-color="#F9B9BA"/>
</linearGradient>
<linearGradient id="paint4_linear_270_2" x1="28.1422" y1="12" x2="28.1422" y2="34.2153" gradientUnits="userSpaceOnUse">
<stop stop-color="white"/>
<stop offset="0.51" stop-color="#E8E3F1"/>
<stop offset="1" stop-color="#B3E4FA"/>
</linearGradient>
<linearGradient id="paint5_linear_270_2" x1="8.5904" y1="29.2442" x2="10.2899" y2="40.1749" gradientUnits="userSpaceOnUse">
<stop stop-color="#54F9BD"/>
<stop offset="1" stop-color="#8FF276"/>
</linearGradient>
<linearGradient id="paint6_linear_270_2" x1="19.5878" y1="36.5716" x2="19.5878" y2="39.2772" gradientUnits="userSpaceOnUse">
<stop stop-color="#7B4461"/>
<stop offset="1" stop-color="#632948"/>
</linearGradient>
<linearGradient id="paint7_linear_270_2" x1="36.6969" y1="36.5716" x2="36.6969" y2="39.2772" gradientUnits="userSpaceOnUse">
<stop stop-color="#7B4461"/>
<stop offset="1" stop-color="#632948"/>
</linearGradient>
<linearGradient id="paint8_linear_270_2" x1="28.1424" y1="50.9177" x2="28.1424" y2="54.448" gradientUnits="userSpaceOnUse">
<stop stop-color="#EE8C9A"/>
<stop offset="1" stop-color="#E46072"/>
</linearGradient>
<linearGradient id="paint9_linear_270_2" x1="36.1966" y1="42.6576" x2="36.1966" y2="46.2669" gradientUnits="userSpaceOnUse">
<stop stop-color="#7B4461"/>
<stop offset="1" stop-color="#632948"/>
</linearGradient>
<linearGradient id="paint10_linear_270_2" x1="20.0883" y1="42.6576" x2="20.0883" y2="46.2669" gradientUnits="userSpaceOnUse">
<stop stop-color="#7B4461"/>
<stop offset="1" stop-color="#632948"/>
</linearGradient>
<linearGradient id="paint11_linear_270_2" x1="28.1426" y1="52.0193" x2="28.1426" y2="64.8156" gradientUnits="userSpaceOnUse">
<stop stop-color="white"/>
<stop offset="0.51" stop-color="#E8E3F1"/>
<stop offset="1" stop-color="#B3E4FA"/>
</linearGradient>
<linearGradient id="paint12_linear_270_2" x1="56.2832" y1="53.9855" x2="9.04187" y2="104.398" gradientUnits="userSpaceOnUse">
<stop stop-color="#26A2B3"/>
<stop offset="1" stop-color="#41F0D1"/>
</linearGradient>
<linearGradient id="paint13_linear_270_2" x1="28.1426" y1="71.7227" x2="28.1426" y2="87.3352" gradientUnits="userSpaceOnUse">
<stop stop-color="#FEEAE7"/>
<stop offset="1" stop-color="#F9B9BA"/>
</linearGradient>
<linearGradient id="paint14_linear_270_2" x1="346.142" y1="36.5109" x2="346.142" y2="56.8956" gradientUnits="userSpaceOnUse">
<stop stop-color="white"/>
<stop offset="0.51" stop-color="#E8E3F1"/>
<stop offset="1" stop-color="#B3E4FA"/>
</linearGradient>
<linearGradient id="paint15_linear_270_2" x1="346.142" y1="26.5327" x2="346.142" y2="63.8072" gradientUnits="userSpaceOnUse">
<stop stop-color="#FEEAE7"/>
<stop offset="1" stop-color="#F9B9BA"/>
</linearGradient>
<linearGradient id="paint16_linear_270_2" x1="331.099" y1="22.9164" x2="344.052" y2="46.3603" gradientUnits="userSpaceOnUse">
<stop stop-color="#54F9BD"/>
<stop offset="1" stop-color="#8FF276"/>
</linearGradient>
<linearGradient id="paint17_linear_270_2" x1="346.142" y1="12" x2="346.142" y2="55.6591" gradientUnits="userSpaceOnUse">
<stop stop-color="white"/>
<stop offset="0.51" stop-color="#E8E3F1"/>
<stop offset="1" stop-color="#B3E4FA"/>
</linearGradient>
<linearGradient id="paint18_linear_270_2" x1="337.525" y1="38.6446" x2="337.525" y2="65.338" gradientUnits="userSpaceOnUse">
<stop stop-color="#FDBA12"/>
<stop offset="1" stop-color="#F04923"/>
</linearGradient>
<linearGradient id="paint19_linear_270_2" x1="346.142" y1="52.5154" x2="346.142" y2="56.0458" gradientUnits="userSpaceOnUse">
<stop stop-color="#EE8C9A"/>
<stop offset="1" stop-color="#E46072"/>
</linearGradient>
<linearGradient id="paint20_linear_270_2" x1="354.759" y1="38.6446" x2="354.759" y2="65.338" gradientUnits="userSpaceOnUse">
<stop stop-color="#FDBA12"/>
<stop offset="1" stop-color="#F04923"/>
</linearGradient>
<linearGradient id="paint21_linear_270_2" x1="354.111" y1="35.0619" x2="354.309" y2="37.1528" gradientUnits="userSpaceOnUse">
<stop stop-color="#7B4461"/>
<stop offset="1" stop-color="#632948"/>
</linearGradient>
<linearGradient id="paint22_linear_270_2" x1="338.174" y1="35.062" x2="337.976" y2="37.1528" gradientUnits="userSpaceOnUse">
<stop stop-color="#7B4461"/>
<stop offset="1" stop-color="#632948"/>
</linearGradient>
<linearGradient id="paint23_linear_270_2" x1="346.142" y1="38.6445" x2="346.142" y2="65.3373" gradientUnits="userSpaceOnUse">
<stop stop-color="#FDBA12"/>
<stop offset="1" stop-color="#F04923"/>
</linearGradient>
<linearGradient id="paint24_linear_270_2" x1="346.142" y1="53.6171" x2="346.142" y2="66.4134" gradientUnits="userSpaceOnUse">
<stop stop-color="white"/>
<stop offset="0.51" stop-color="#E8E3F1"/>
<stop offset="1" stop-color="#B3E4FA"/>
</linearGradient>
<linearGradient id="paint25_linear_270_2" x1="374.283" y1="55.5812" x2="327.037" y2="105.994" gradientUnits="userSpaceOnUse">
<stop stop-color="#26A2B3"/>
<stop offset="1" stop-color="#41F0D1"/>
</linearGradient>
<linearGradient id="paint26_linear_270_2" x1="346.142" y1="73.3204" x2="346.142" y2="88.9329" gradientUnits="userSpaceOnUse">
<stop stop-color="#FEEAE7"/>
<stop offset="1" stop-color="#F9B9BA"/>
</linearGradient>
<clipPath id="clip0_270_2">
<path d="M0 12H56V94H8C3.58172 94 0 90.4183 0 86V12Z" fill="white"/>
</clipPath>
<clipPath id="clip1_270_2">
<path d="M318 12H374V86C374 90.4183 370.418 94 366 94H318V12Z" fill="white"/>
</clipPath>
</defs>
</svg>
