<svg width="329" height="218" viewBox="0 0 329 218" fill="none" xmlns="http://www.w3.org/2000/svg">
<g clip-path="url(#clip0_142_276)">
<path fill-rule="evenodd" clip-rule="evenodd" d="M164.151 0C250.543 0 320.644 70.0493 320.644 156.493C320.644 177.205 316.635 196.94 309.337 215.03H19.0156C11.7177 196.94 7.70902 177.205 7.70902 156.493C7.65762 70.0493 77.7069 0 164.151 0Z" fill="url(#paint0_linear_142_276)"/>
<path fill-rule="evenodd" clip-rule="evenodd" d="M244.941 39.2132C257.07 40.1383 266.115 50.7253 265.19 62.8028C264.265 74.9317 253.678 83.9769 241.601 83.0518C229.472 82.1268 220.427 71.5397 221.352 59.4622C222.277 47.3334 232.864 38.2881 244.941 39.2132Z" fill="#D0C2DF"/>
<path fill-rule="evenodd" clip-rule="evenodd" d="M62.6486 91.8915C74.7775 92.8166 83.8227 103.404 82.8977 115.481C81.9726 127.61 71.3855 136.655 59.3081 135.73C47.1792 134.805 38.134 124.218 39.059 112.141C39.9841 100.063 50.5198 90.9665 62.6486 91.8915Z" fill="#D0C2DF"/>
<path fill-rule="evenodd" clip-rule="evenodd" d="M320.49 163.174C319.719 181.419 315.813 198.841 309.286 214.979H19.0155C14.2873 203.261 10.9468 190.875 9.14799 177.976C7.09225 146.728 38.2881 149.915 56.2758 169.804C74.2121 189.642 101.245 212.409 124.372 177.256C131.876 165.847 136.707 154.9 141.281 144.467C162.66 95.9516 235.69 49.1835 254.552 119.952C258.92 136.347 259.126 152.896 274.287 170.575C291.966 191.081 315.659 190.516 320.49 163.174Z" fill="url(#paint1_linear_142_276)"/>
<path fill-rule="evenodd" clip-rule="evenodd" d="M265.293 159.063C272.437 169.701 274.184 177.051 273.927 190.927C273.773 200.332 276.857 201.36 279.272 191.852C281.996 181.162 284.36 158.343 280.506 144.827C274.801 124.681 243.759 127.045 265.293 159.063Z" fill="#00AA9D"/>
<path fill-rule="evenodd" clip-rule="evenodd" d="M275.572 198.43C275.777 198.482 275.932 198.482 276.137 198.43C276.394 196.477 280.043 167.029 274.133 146.831C271.82 138.968 268.171 134.497 264.522 131.978C264.265 132.03 263.957 132.081 263.7 132.133C267.4 134.548 271.203 138.968 273.567 147.037C279.683 167.594 275.623 198.07 275.572 198.43Z" fill="#5EBEB1"/>
<path fill-rule="evenodd" clip-rule="evenodd" d="M51.2907 126.531C51.2393 126.788 51.0337 126.942 50.7767 126.891C50.5198 126.839 50.3656 126.634 50.417 126.377C53.1408 110.136 60.6957 96.7739 71.0257 86.9064C78.9403 79.3516 88.4995 73.8011 98.6754 70.6147C108.851 67.4283 119.695 66.5546 130.18 68.302C143.079 70.4605 155.414 76.5249 165.487 87.0606C175.509 97.5448 182.19 111.01 188.46 123.704C196.066 139.122 203.107 153.358 214.876 159.577C231.322 168.262 245.25 165.384 255.271 156.442C259.897 152.279 263.751 146.883 266.578 140.664C269.405 134.445 271.306 127.507 272.077 120.312C274.338 98.9839 266.732 75.754 245.661 64.653C245.455 64.5502 245.352 64.2419 245.455 64.0363C245.558 63.8307 245.866 63.7279 246.072 63.8307C267.503 75.1373 275.212 98.7269 272.951 120.415C272.18 127.713 270.278 134.754 267.4 141.075C264.522 147.397 260.616 152.947 255.888 157.161C245.558 166.361 231.271 169.29 214.465 160.399C202.439 154.078 195.347 139.687 187.638 124.115C181.368 111.472 174.738 98.0588 164.819 87.6773C154.9 77.2958 142.72 71.3342 130.025 69.227C119.695 67.4797 109.006 68.3534 98.9838 71.4884C88.9107 74.6234 79.5057 80.0711 71.6939 87.5745C61.4666 97.3393 53.9631 110.496 51.2907 126.531Z" fill="white"/>
<path fill-rule="evenodd" clip-rule="evenodd" d="M259.64 75.8567C255.888 71.4369 251.211 67.6338 245.609 64.7044C245.404 64.6016 245.301 64.2932 245.404 64.0876C245.507 63.8821 245.815 63.7793 246.02 63.8821C251.674 66.8629 256.402 70.7174 260.205 75.1372C260.051 75.3942 259.845 75.5998 259.64 75.8567Z" fill="#E7DDED"/>
<path fill-rule="evenodd" clip-rule="evenodd" d="M242.063 36.3866C254.192 37.3117 263.237 47.8987 262.312 59.9762C261.387 72.1051 250.8 81.1503 238.723 80.2252C226.594 79.3002 217.549 68.7131 218.474 56.6356C219.347 44.5068 229.934 35.4615 242.063 36.3866Z" fill="white"/>
<path d="M78.8796 116.369C81.6737 104.546 74.3546 92.6968 62.5319 89.9027C50.7092 87.1086 38.8599 94.4277 36.0658 106.25C33.2717 118.073 40.5909 129.922 52.4136 132.716C64.2363 135.511 76.0855 128.191 78.8796 116.369Z" fill="white"/>
<path fill-rule="evenodd" clip-rule="evenodd" d="M32.4806 182.344V214.516H29.1401V182.344C29.1401 181.419 29.911 180.699 30.7847 180.699C31.7611 180.699 32.4806 181.47 32.4806 182.344Z" fill="#F8C977"/>
<path fill-rule="evenodd" clip-rule="evenodd" d="M32.4806 182.344V191.132L29.1401 190.978V182.55C30.1165 182.447 31.2472 182.344 32.4292 182.241C32.4806 182.241 32.4806 182.293 32.4806 182.344Z" fill="#342A60"/>
<path fill-rule="evenodd" clip-rule="evenodd" d="M97.9045 182.344V214.516H94.564V182.344C94.564 181.419 95.3349 180.699 96.2086 180.699C97.1336 180.699 97.9045 181.47 97.9045 182.344Z" fill="#F8C977"/>
<path fill-rule="evenodd" clip-rule="evenodd" d="M97.9045 182.344V194.473L94.564 194.319V182.344C94.564 181.779 94.8723 181.265 95.2835 180.956C96.2086 181.316 97.0822 181.727 97.8531 182.138C97.9045 182.241 97.9045 182.293 97.9045 182.344Z" fill="#342A60"/>
<path fill-rule="evenodd" clip-rule="evenodd" d="M28.1636 185.068H98.9324C100.114 185.068 101.091 186.044 101.091 187.226C101.091 188.408 100.114 189.385 98.9324 189.385H28.1636C26.9815 189.385 26.0051 188.408 26.0051 187.226C25.9537 186.044 26.9301 185.068 28.1636 185.068Z" fill="#342A60"/>
<path fill-rule="evenodd" clip-rule="evenodd" d="M25.3884 179.466H101.656C103.815 179.466 105.562 181.213 105.562 183.372C105.562 185.53 103.815 187.278 101.656 187.278H25.3884C23.2298 187.278 21.4825 185.53 21.4825 183.372C21.5338 181.213 23.2812 179.466 25.3884 179.466Z" fill="#F8C977"/>
<path fill-rule="evenodd" clip-rule="evenodd" d="M39.1618 177.924H83.4116C83.9769 177.924 84.4395 177.462 84.4395 176.896V170.883C84.4395 170.318 83.9769 169.855 83.4116 169.855H39.1618C36.9519 169.855 35.1017 171.654 35.1017 173.915C35.1017 176.074 36.9519 177.924 39.1618 177.924Z" fill="white"/>
<path fill-rule="evenodd" clip-rule="evenodd" d="M87.2147 168.211C87.9856 168.211 88.6023 168.828 88.6023 169.598C88.6023 170.369 87.9856 170.986 87.2147 170.986H38.0825C37.3116 170.986 36.5921 171.294 36.0268 171.808L35.9754 171.86C35.5129 172.374 35.2045 173.093 35.2045 173.813C35.2045 174.584 35.5129 175.303 36.0268 175.868C36.5407 176.382 37.2602 176.691 38.0825 176.691H87.2147C87.9856 176.691 88.6023 177.307 88.6023 178.078C88.6023 178.849 87.9856 179.466 87.2147 179.466H38.0825C36.5407 179.466 35.1017 178.849 34.1252 177.821C33.0974 176.794 32.4806 175.406 32.4806 173.864C32.4806 172.374 33.0974 170.986 34.0738 169.958C34.0738 169.907 34.1252 169.907 34.1766 169.855C35.2045 168.828 36.5921 168.211 38.1339 168.211H87.2147Z" fill="#EB6D71"/>
<path fill-rule="evenodd" clip-rule="evenodd" d="M81.9211 158.549H37.62C37.0546 158.549 36.5921 159.011 36.5921 159.577V165.59C36.5921 166.155 37.0546 166.618 37.62 166.618H81.8697C84.0797 166.618 85.9298 164.819 85.9298 162.558C85.9298 160.348 84.131 158.549 81.9211 158.549Z" fill="white"/>
<path fill-rule="evenodd" clip-rule="evenodd" d="M33.8683 168.211C33.0974 168.211 32.4806 167.594 32.4806 166.823C32.4806 166.052 33.0974 165.436 33.8683 165.436H83.0004C83.7713 165.436 84.4908 165.127 85.0562 164.613L85.1076 164.562C85.5701 164.048 85.8785 163.328 85.8785 162.609C85.8785 161.838 85.5701 161.119 85.0562 160.553C84.5422 160.039 83.8227 159.731 83.0004 159.731H33.8683C33.0974 159.731 32.4806 159.114 32.4806 158.343C32.4806 157.572 33.0974 156.956 33.8683 156.956H83.0004C84.5422 156.956 85.9812 157.572 86.9577 158.6C87.9856 159.628 88.6023 161.016 88.6023 162.558C88.6023 164.048 87.9856 165.436 87.0091 166.463C87.0091 166.515 86.9577 166.515 86.9063 166.566C85.8785 167.594 84.4908 168.211 82.949 168.211H33.8683Z" fill="#453E77"/>
<path fill-rule="evenodd" clip-rule="evenodd" d="M44.5067 174.635V183.937L42.2968 182.293L40.0869 183.937V174.635H44.5067Z" fill="#00AA9D"/>
<path fill-rule="evenodd" clip-rule="evenodd" d="M275.366 190.875C275.366 190.875 266.321 189.231 263.905 181.47C261.798 174.584 259.023 158.909 253.01 154.386C251.571 153.307 255.271 150.891 256.196 150.583C266.27 147.448 271.717 154.489 273.876 163.842C276.24 173.71 273.105 182.652 275.366 190.875Z" fill="#5EBEB1"/>
<path fill-rule="evenodd" clip-rule="evenodd" d="M253.678 152.228C253.884 152.073 254.038 151.919 254.244 151.765C262.364 151.559 264.419 162.66 266.321 172.785C267.657 179.877 268.891 186.558 272.026 188.254C272.18 188.306 272.231 188.511 272.128 188.614C272.077 188.768 271.871 188.82 271.769 188.717C268.377 186.867 267.143 180.134 265.807 172.836C263.957 162.763 261.901 151.765 253.935 152.33C253.832 152.33 253.73 152.33 253.678 152.228Z" fill="#00AA9D"/>
<path fill-rule="evenodd" clip-rule="evenodd" d="M245.866 172.014C249.412 182.755 261.439 178.798 258.972 171.037C255.888 161.221 252.496 150.891 259.691 149.915C248.333 150.891 242.217 160.964 245.866 172.014Z" fill="#AADBF1"/>
<path fill-rule="evenodd" clip-rule="evenodd" d="M254.192 178.541C254.398 178.541 254.603 178.49 254.809 178.438C252.445 174.995 249.721 169.598 249.567 163.02C249.413 156.904 251.365 153.512 253.267 151.714C252.753 151.971 252.239 152.227 251.777 152.536C250.235 154.643 248.899 157.881 249.001 163.02C249.156 169.598 251.828 175.046 254.192 178.541Z" fill="#5EBEB1"/>
<path fill-rule="evenodd" clip-rule="evenodd" d="M280.917 194.165C280.917 194.165 290.425 190.824 291.658 181.059C292.789 172.477 293.097 153.101 298.802 146.728C300.138 145.187 295.821 142.874 294.69 142.668C283.332 140.458 278.604 149.761 277.885 161.376C277.114 173.556 281.996 183.886 280.917 194.165Z" fill="#AADBF1"/>
<path fill-rule="evenodd" clip-rule="evenodd" d="M297.774 144.261C297.568 144.107 297.311 143.902 297.054 143.748C288.266 144.775 287.906 158.395 287.598 170.935C287.392 179.723 287.187 187.895 284.052 190.464C283.898 190.567 283.898 190.773 284 190.927C284.103 191.081 284.309 191.132 284.411 191.03C287.752 188.306 287.958 179.929 288.163 170.986C288.472 158.6 288.831 145.032 297.465 144.416C297.671 144.416 297.722 144.364 297.774 144.261Z" fill="#5EBEB1"/>
<path fill-rule="evenodd" clip-rule="evenodd" d="M309.594 166.926C307.59 180.443 293.971 177.462 295.255 167.697C296.951 155.363 298.853 142.463 290.887 142.309C303.324 141.846 311.65 153.05 309.594 166.926Z" fill="#5EBEB1"/>
<path fill-rule="evenodd" clip-rule="evenodd" d="M301.68 176.023C301.474 176.023 301.217 176.023 301.012 175.971C302.964 171.5 305.02 164.562 304.044 156.545C303.17 149.144 300.498 145.392 298.133 143.439C298.75 143.696 299.316 143.953 299.881 144.21C301.937 146.471 303.941 150.223 304.66 156.442C305.637 164.51 303.633 171.449 301.68 176.023Z" fill="#00AA9D"/>
<path fill-rule="evenodd" clip-rule="evenodd" d="M280.917 189.128H275.623H265.756C264.728 189.128 264.008 190.002 264.162 191.03L266.938 209.788C267.092 210.816 268.068 211.69 269.096 211.69H275.675H280.968H287.546C288.574 211.69 289.551 210.816 289.705 209.788L292.48 191.03C292.634 190.002 291.915 189.128 290.887 189.128H280.917Z" fill="#EB6D71"/>
<path fill-rule="evenodd" clip-rule="evenodd" d="M280.917 189.128H279.375L264.214 190.207C264.111 190.464 264.111 190.721 264.162 191.03L264.574 193.908L291.452 197.711L292.429 191.03C292.583 190.002 291.863 189.128 290.836 189.128H280.917Z" fill="#342A60"/>
<path fill-rule="evenodd" clip-rule="evenodd" d="M292.326 185.273H264.214C263.443 185.273 262.826 185.89 262.826 186.661V190.67C262.826 191.441 263.443 192.057 264.214 192.057H292.326C293.097 192.057 293.714 191.441 293.714 190.67V186.661C293.714 185.89 293.097 185.273 292.326 185.273Z" fill="#EB6D71"/>
<path fill-rule="evenodd" clip-rule="evenodd" d="M135.679 107.515C135.679 107.258 135.884 107.053 136.141 107.053C136.398 107.053 136.604 107.258 136.604 107.515V108.903C136.604 109.16 136.398 109.365 136.141 109.365C135.884 109.365 135.679 109.16 135.679 108.903V107.515ZM198.841 28.8317C199.047 28.9345 199.15 29.2429 198.995 29.4485C198.893 29.654 198.584 29.7568 198.379 29.6026L197.197 28.9345C196.991 28.8317 196.888 28.5234 197.042 28.3178C197.145 28.1122 197.454 28.0095 197.659 28.1636L198.841 28.8317ZM202.85 31.1445C203.056 31.2472 203.158 31.5556 203.004 31.7612C202.901 31.9667 202.593 32.0695 202.387 31.9154L201.205 31.2472C201 31.1445 200.897 30.8361 201.051 30.6305C201.154 30.4249 201.462 30.3222 201.668 30.4763L202.85 31.1445ZM198.379 30.4249C198.584 30.3222 198.893 30.3736 198.995 30.5791C199.098 30.7847 199.047 31.0931 198.841 31.1958L197.659 31.864C197.454 31.9667 197.145 31.9154 197.042 31.7098C196.94 31.5042 196.991 31.1958 197.197 31.0931L198.379 30.4249ZM202.387 28.1122C202.593 28.0095 202.901 28.0608 203.004 28.2664C203.107 28.472 203.056 28.7804 202.85 28.8831L201.668 29.5513C201.462 29.654 201.154 29.6026 201.051 29.3971C200.948 29.1915 201 28.8831 201.205 28.7804L202.387 28.1122ZM199.561 31.6584C199.561 31.4014 199.766 31.1958 200.023 31.1958C200.28 31.1958 200.486 31.4014 200.486 31.6584V33.046C200.486 33.303 200.28 33.5086 200.023 33.5086C199.766 33.5086 199.561 33.303 199.561 33.046V31.6584ZM199.561 27.033C199.561 26.776 199.766 26.5704 200.023 26.5704C200.28 26.5704 200.486 26.776 200.486 27.033V28.4206C200.486 28.6776 200.28 28.8831 200.023 28.8831C199.766 28.8831 199.561 28.6776 199.561 28.4206V27.033ZM290.065 115.378C290.27 115.481 290.373 115.789 290.219 115.995C290.116 116.201 289.808 116.303 289.602 116.149L288.42 115.481C288.215 115.378 288.112 115.07 288.266 114.864C288.369 114.659 288.677 114.556 288.883 114.71L290.065 115.378ZM294.073 117.691C294.279 117.794 294.382 118.102 294.228 118.308C294.125 118.513 293.816 118.616 293.611 118.462L292.429 117.794C292.223 117.691 292.12 117.383 292.275 117.177C292.377 116.972 292.686 116.869 292.891 117.023L294.073 117.691ZM289.602 117.023C289.808 116.92 290.116 116.972 290.219 117.177C290.322 117.383 290.27 117.691 290.065 117.794L288.883 118.462C288.677 118.565 288.369 118.513 288.266 118.308C288.163 118.102 288.215 117.794 288.42 117.691L289.602 117.023ZM293.611 114.71C293.816 114.607 294.125 114.659 294.228 114.864C294.33 115.07 294.279 115.378 294.073 115.481L292.891 116.149C292.686 116.252 292.377 116.201 292.275 115.995C292.172 115.789 292.223 115.481 292.429 115.378L293.611 114.71ZM290.784 118.205C290.784 117.948 290.99 117.742 291.247 117.742C291.504 117.742 291.709 117.948 291.709 118.205V119.593C291.709 119.85 291.504 120.055 291.247 120.055C290.99 120.055 290.784 119.85 290.784 119.593V118.205ZM290.784 113.58C290.784 113.323 290.99 113.117 291.247 113.117C291.504 113.117 291.709 113.323 291.709 113.58V114.967C291.709 115.224 291.504 115.43 291.247 115.43C290.99 115.43 290.784 115.224 290.784 114.967V113.58ZM27.3927 136.347C27.5982 136.45 27.701 136.758 27.5468 136.964C27.4441 137.169 27.1357 137.272 26.9301 137.118L25.7481 136.45C25.5425 136.347 25.4397 136.039 25.5939 135.833C25.6967 135.627 26.005 135.525 26.2106 135.679L27.3927 136.347ZM31.4013 138.66C31.6069 138.762 31.7097 139.071 31.5555 139.276C31.4527 139.482 31.1444 139.585 30.9388 139.43L29.7568 138.762C29.5512 138.66 29.4484 138.351 29.6026 138.146C29.7054 137.94 30.0137 137.837 30.2193 137.991L31.4013 138.66ZM26.9815 137.991C27.1871 137.889 27.4954 137.94 27.5982 138.146C27.701 138.351 27.6496 138.66 27.4441 138.762L26.262 139.43C26.0564 139.533 25.7481 139.482 25.6453 139.276C25.5425 139.071 25.5939 138.762 25.7995 138.66L26.9815 137.991ZM30.9902 135.679C31.1958 135.576 31.5041 135.627 31.6069 135.833C31.7097 136.039 31.6583 136.347 31.4527 136.45L30.2707 137.118C30.0651 137.221 29.7568 137.169 29.654 136.964C29.5512 136.758 29.6026 136.45 29.8082 136.347L30.9902 135.679ZM28.1636 139.174C28.1636 138.917 28.3691 138.711 28.6261 138.711C28.8831 138.711 29.0886 138.917 29.0886 139.174V140.561C29.0886 140.818 28.8831 141.024 28.6261 141.024C28.3691 141.024 28.1636 140.818 28.1636 140.561V139.174ZM28.1636 134.548C28.1636 134.291 28.3691 134.086 28.6261 134.086C28.8831 134.086 29.0886 134.291 29.0886 134.548V135.936C29.0886 136.193 28.8831 136.398 28.6261 136.398C28.3691 136.398 28.1636 136.193 28.1636 135.936V134.548ZM89.5788 51.6504C89.7843 51.7532 89.8871 52.0616 89.7329 52.2672C89.6301 52.4727 89.3218 52.5755 89.1162 52.4213L87.9342 51.7532C87.7286 51.6504 87.6258 51.3421 87.78 51.1365C87.8828 50.9309 88.1911 50.8281 88.3967 50.9823L89.5788 51.6504ZM93.5875 53.9632C93.793 54.0659 93.8958 54.3743 93.7416 54.5799C93.6388 54.7854 93.3305 54.8882 93.1249 54.7341L91.9429 54.0659C91.7373 53.9632 91.6345 53.6548 91.7887 53.4492C91.8915 53.2436 92.1998 53.1409 92.4054 53.295L93.5875 53.9632ZM89.1162 53.295C89.3218 53.1922 89.6301 53.2436 89.7329 53.4492C89.8357 53.6548 89.7843 53.9632 89.5788 54.0659L88.3967 54.7341C88.1911 54.8368 87.8828 54.7854 87.78 54.5799C87.6772 54.3743 87.7286 54.0659 87.9342 53.9632L89.1162 53.295ZM93.1249 50.9823C93.3305 50.8795 93.6388 50.9309 93.7416 51.1365C93.8444 51.3421 93.793 51.6504 93.5875 51.7532L92.4054 52.4213C92.1998 52.5241 91.8915 52.4727 91.7887 52.2672C91.6859 52.0616 91.7373 51.7532 91.9429 51.6504L93.1249 50.9823ZM90.2983 54.4771C90.2983 54.2201 90.5038 54.0145 90.7608 54.0145C91.0178 54.0145 91.2233 54.2201 91.2233 54.4771V55.8647C91.2233 56.1217 91.0178 56.3273 90.7608 56.3273C90.5038 56.3273 90.2983 56.1217 90.2983 55.8647V54.4771ZM90.2983 49.8517C90.2983 49.5947 90.5038 49.3891 90.7608 49.3891C91.0178 49.3891 91.2233 49.5947 91.2233 49.8517V51.2393C91.2233 51.4963 91.0178 51.7018 90.7608 51.7018C90.5038 51.7018 90.2983 51.4963 90.2983 51.2393V49.8517ZM134.959 109.263C135.165 109.365 135.268 109.674 135.113 109.879C135.011 110.085 134.702 110.188 134.497 110.033L133.315 109.365C133.109 109.263 133.006 108.954 133.16 108.749C133.263 108.543 133.572 108.44 133.777 108.594L134.959 109.263ZM138.968 111.575C139.173 111.678 139.276 111.986 139.122 112.192C139.019 112.398 138.711 112.5 138.505 112.346L137.323 111.678C137.118 111.575 137.015 111.267 137.169 111.061C137.272 110.856 137.58 110.753 137.786 110.907L138.968 111.575ZM134.497 110.907C134.702 110.804 135.011 110.856 135.113 111.061C135.216 111.267 135.165 111.575 134.959 111.678L133.777 112.346C133.572 112.449 133.263 112.398 133.16 112.192C133.058 111.986 133.109 111.678 133.315 111.575L134.497 110.907ZM138.505 108.594C138.711 108.492 139.019 108.543 139.122 108.749C139.225 108.954 139.173 109.263 138.968 109.365L137.786 110.033C137.58 110.136 137.272 110.085 137.169 109.879C137.066 109.674 137.118 109.365 137.323 109.263L138.505 108.594ZM135.679 112.141C135.679 111.884 135.884 111.678 136.141 111.678C136.398 111.678 136.604 111.884 136.604 112.141V113.528C136.604 113.785 136.398 113.991 136.141 113.991C135.884 113.991 135.679 113.785 135.679 113.528V112.141Z" fill="white"/>
<path fill-rule="evenodd" clip-rule="evenodd" d="M91.2234 97.4934C90.9664 97.4934 90.7608 97.2878 90.7608 97.0308C90.7608 96.7739 90.9664 96.5683 91.2234 96.5683H106.179C106.436 96.5683 106.641 96.7739 106.641 97.0308C106.641 97.2878 106.436 97.4934 106.179 97.4934H91.2234ZM123.653 14.8527C123.396 14.8527 123.19 14.6471 123.19 14.3902C123.19 14.1332 123.396 13.9276 123.653 13.9276H179.672C179.929 13.9276 180.134 14.1332 180.134 14.3902C180.134 14.6471 179.929 14.8527 179.672 14.8527H123.653ZM164.716 18.2447C164.459 18.2447 164.254 18.0391 164.254 17.7821C164.254 17.5252 164.459 17.3196 164.716 17.3196H179.672C179.929 17.3196 180.134 17.5252 180.134 17.7821C180.134 18.0391 179.929 18.2447 179.672 18.2447H164.716ZM49.7489 142C49.4919 142 49.2863 141.795 49.2863 141.538C49.2863 141.281 49.4919 141.075 49.7489 141.075H64.7043C64.9613 141.075 65.1669 141.281 65.1669 141.538C65.1669 141.795 64.9613 142 64.7043 142H49.7489ZM49.7489 145.392C49.4919 145.392 49.2863 145.187 49.2863 144.93C49.2863 144.673 49.4919 144.467 49.7489 144.467H64.7043C64.9613 144.467 65.1669 144.673 65.1669 144.93C65.1669 145.187 64.9613 145.392 64.7043 145.392H49.7489ZM278.553 86.4438C278.296 86.4438 278.09 86.2382 278.09 85.9813C278.09 85.7243 278.296 85.5187 278.553 85.5187H293.508C293.765 85.5187 293.971 85.7243 293.971 85.9813C293.971 86.2382 293.765 86.4438 293.508 86.4438H278.553ZM278.553 89.8358C278.296 89.8358 278.09 89.6302 278.09 89.3732C278.09 89.1162 278.296 88.9107 278.553 88.9107H293.508C293.765 88.9107 293.971 89.1162 293.971 89.3732C293.971 89.6302 293.765 89.8358 293.508 89.8358H278.553ZM188.049 56.9439C187.792 56.9439 187.586 56.7384 187.586 56.4814C187.586 56.2244 187.792 56.0189 188.049 56.0189H203.004C203.261 56.0189 203.467 56.2244 203.467 56.4814C203.467 56.7384 203.261 56.9439 203.004 56.9439H188.049ZM188.049 60.3359C187.792 60.3359 187.586 60.1303 187.586 59.8734C187.586 59.6164 187.792 59.4108 188.049 59.4108H203.004C203.261 59.4108 203.467 59.6164 203.467 59.8734C203.467 60.1303 203.261 60.3359 203.004 60.3359H188.049ZM91.2234 94.1014C90.9664 94.1014 90.7608 93.8958 90.7608 93.6389C90.7608 93.3819 90.9664 93.1763 91.2234 93.1763H106.179C106.436 93.1763 106.641 93.3819 106.641 93.6389C106.641 93.8958 106.436 94.1014 106.179 94.1014H91.2234Z" fill="#BFB2D6"/>
<path fill-rule="evenodd" clip-rule="evenodd" d="M124.578 61.1581C124.578 61.1581 125.863 68.3532 130.539 68.7644C135.268 69.2269 165.693 66.2461 165.693 66.2461L171.5 65.5266C171.5 65.5266 170.061 59.4622 169.907 54.8367C169.753 50.2113 169.033 44.1469 168.057 42.4509C167.08 40.8063 162.917 37.5685 162.917 37.5685L130.539 47.0249L124.578 61.1581Z" fill="#453E77"/>
<path fill-rule="evenodd" clip-rule="evenodd" d="M124.578 61.1582C124.578 61.1582 124.629 61.4666 124.783 61.9805L131.773 59.1025L135.525 56.3272L139.174 56.0189L168.673 43.8386C168.519 43.2733 168.365 42.8107 168.159 42.5024C167.183 40.8578 163.02 37.62 163.02 37.62L130.642 47.0764L124.578 61.1582ZM128.073 67.788C128.741 68.3019 129.563 68.713 130.539 68.7644C130.899 68.8158 131.362 68.8158 131.927 68.8158L128.946 65.8864L128.073 67.788Z" fill="#342A60"/>
<path fill-rule="evenodd" clip-rule="evenodd" d="M105.305 142.977C105.305 142.977 105.511 146.78 105.408 147.962C105.305 149.144 107.104 150.891 108.286 151.508C109.468 152.125 114.505 152.33 114.505 152.33L115.07 147.037L105.305 142.977Z" fill="#F0917E"/>
<path fill-rule="evenodd" clip-rule="evenodd" d="M115.841 195.963L109.468 201.36C109.468 201.36 107.978 202.85 108.697 204.083C109.365 205.368 110.599 206.602 113.991 205.831C113.991 205.831 114.505 205.728 114.813 205.265C115.121 204.803 115.224 204.957 115.276 205.42C115.327 205.882 114.35 206.345 113.991 207.064C113.631 207.784 113.22 208.606 114.196 209.326C115.173 210.045 117.845 211.741 117.845 211.741C117.845 211.741 118.873 212.255 120.569 212.255C122.214 212.255 129.923 212.255 129.923 212.255L116.046 196.22L115.841 195.963Z" fill="#F0917E"/>
<path fill-rule="evenodd" clip-rule="evenodd" d="M171.551 65.5266L178.798 73.7496L172.476 86.4951L163.328 90.915L159.577 86.5979C159.577 86.5979 157.932 85.4673 156.236 87.6772L154.283 83.6685L160.45 66.7601L171.551 65.5266Z" fill="#EC7978"/>
<path fill-rule="evenodd" clip-rule="evenodd" d="M118.359 179.26L114.094 184.708C114.094 184.708 114.094 191.03 114.094 194.37C114.094 197.711 115.687 201.925 118.051 204.083C120.415 206.242 123.447 209.069 123.447 209.069C123.447 209.069 126.479 212.204 129.46 212.204C132.39 212.204 132.287 212.204 135.936 212.204C139.585 212.204 157.829 212.204 157.829 212.204L118.359 179.26Z" fill="#342A60"/>
<path fill-rule="evenodd" clip-rule="evenodd" d="M142.257 164.973C141.743 164.922 133.469 164.922 131.362 164.922C129.255 164.922 125.76 164.922 122.83 164.922C119.901 164.922 113.117 169.65 113.117 177.462C113.117 185.325 115.07 188.871 125.297 197.865C135.525 206.91 143.953 212.204 156.904 212.204C169.855 212.204 200.897 212.204 210.096 212.204C219.347 212.204 227.365 202.799 227.365 190.618C227.365 180.442 220.889 174.943 204.135 177.102C204.546 176.691 204.803 176.434 204.803 176.434C204.803 176.434 196.734 165.949 196.374 165.333C195.963 164.767 180.956 161.324 180.956 161.324L141.383 162.969L142.257 164.973Z" fill="#453E77"/>
<path fill-rule="evenodd" clip-rule="evenodd" d="M142.257 164.973C141.743 164.922 133.469 164.922 131.362 164.922H122.83L155.003 171.14L148.784 162.712L141.332 163.02L142.257 164.973Z" fill="#342A60"/>
<path fill-rule="evenodd" clip-rule="evenodd" d="M223.407 204.289C225.823 200.589 227.313 195.912 227.313 190.67C227.313 180.494 220.838 174.995 204.084 177.153C204.495 176.742 204.752 176.485 204.752 176.485C204.752 176.485 196.683 166.001 196.323 165.384C196.118 165.076 191.698 163.945 187.689 162.969L187.843 166.926C187.843 166.926 190.31 167.491 194.524 174.327C198.173 180.288 207.013 201.462 223.407 204.289Z" fill="#342A60"/>
<path fill-rule="evenodd" clip-rule="evenodd" d="M164.305 122.059L139.276 132.852L161.067 141.795L164.305 122.059Z" fill="#E9DAE8"/>
<path fill-rule="evenodd" clip-rule="evenodd" d="M162.455 172.168C162.198 172.117 162.044 171.86 162.095 171.603C162.146 171.346 162.403 171.192 162.66 171.243L193.239 178.849C193.496 178.901 193.651 179.158 193.599 179.415C193.548 179.672 193.291 179.826 193.034 179.774L162.455 172.168Z" fill="#342A60"/>
<path fill-rule="evenodd" clip-rule="evenodd" d="M104.175 134.599L104.277 132.081C104.277 132.081 106.539 131.619 106.539 128.381C106.539 125.092 106.539 126.377 106.539 123.242C106.539 120.107 107.567 115.43 111.01 116.766C114.453 118.102 157.11 137.837 157.11 137.837L154.694 143.388L104.175 134.599Z" fill="white"/>
<path fill-rule="evenodd" clip-rule="evenodd" d="M104.175 134.599L104.277 132.081C104.277 132.081 106.539 131.619 106.539 128.381V123.344L135.011 138.094L120.775 137.529L104.175 134.599Z" fill="#CBDAF0"/>
<path fill-rule="evenodd" clip-rule="evenodd" d="M178.078 71.1285C178.078 71.1285 157.675 92.611 157.264 94.1014C156.853 95.5918 156.904 95.9515 157.11 96.4655C157.315 96.9794 162.352 101.399 162.352 101.399C162.352 101.399 161.478 103.404 163.431 103.455C163.431 103.455 164.819 114.35 166.155 122.985C166.155 123.036 167.8 129.409 170.935 132.184C174.07 134.908 186.404 151.919 186.404 151.919C186.404 151.919 182.601 152.998 184.348 156.544L172.733 159.988C172.733 159.988 168.828 161.118 166.823 166.052C175.766 166.463 187.278 166.926 188.563 166.926C190.721 166.926 194.062 170.832 197.814 174.584C201.565 178.335 215.082 194.216 229.42 195.603C229.42 195.603 232.453 195.603 232.761 194.113C233.069 192.623 238.466 166.361 238.466 158.497C238.466 150.634 233.943 133.16 225.72 117.485C217.497 101.759 208.246 92.5596 205.677 89.219C203.107 85.8784 187.226 79.6084 187.226 79.6084C187.226 79.6084 187.175 78.0152 185.736 78.4778L179.929 71.6424C179.929 71.591 179.055 70.409 178.078 71.1285Z" fill="white"/>
<path fill-rule="evenodd" clip-rule="evenodd" d="M215.596 190.31C219.861 193.034 224.589 195.141 229.42 195.603C229.42 195.603 232.453 195.603 232.761 194.113C233.069 192.623 238.466 166.361 238.466 158.497C238.466 156.544 238.209 154.026 237.643 151.097C237.643 151.2 237.643 158.857 235.896 162.712C234.303 166.104 218.885 186.147 215.596 190.31Z" fill="#E9DAE8"/>
<path fill-rule="evenodd" clip-rule="evenodd" d="M181.213 157.418L172.682 159.936C172.682 159.936 168.776 161.067 166.772 166.001C170.935 166.206 175.663 166.412 179.62 166.566L181.213 157.418Z" fill="#E9DAE8"/>
<path fill-rule="evenodd" clip-rule="evenodd" d="M180.751 144.261C183.834 148.373 186.404 151.919 186.404 151.919L191.646 151.456L200.486 123.447L195.192 119.233L180.186 142.925L180.751 144.261Z" fill="#E9DAE8"/>
<path fill-rule="evenodd" clip-rule="evenodd" d="M111.832 146.163L112.141 151.148C112.141 151.148 112.038 153.101 114.299 154.489C116.56 155.876 151.508 170.01 151.508 170.01C151.508 170.01 162.609 174.892 169.855 168.725C177.102 162.558 200.794 122.882 200.794 122.882C200.794 122.882 202.285 119.901 200.948 116.817C196.837 107.207 189.385 99.2408 180.031 100.731C174.635 101.605 169.341 104.175 168.005 107.515C165.847 113.014 149.761 153.821 149.761 153.821L111.832 146.163Z" fill="white"/>
<path fill-rule="evenodd" clip-rule="evenodd" d="M153.512 144.21L149.966 153.204L150.84 154.335L161.221 153.821C161.221 153.821 150.223 153.307 153.512 144.21Z" fill="#E9DAE8"/>
<path fill-rule="evenodd" clip-rule="evenodd" d="M111.884 146.831L112.141 151.148C112.141 151.148 112.038 153.101 114.299 154.489C114.453 154.592 114.762 154.746 115.224 154.951L149.247 154.694L144.621 152.793L116.046 146.985L111.884 146.831Z" fill="#E9DAE8"/>
<path fill-rule="evenodd" clip-rule="evenodd" d="M93.5362 137.94C93.5362 137.94 95.5919 137.272 96.9795 135.782C98.3671 134.291 99.7034 131.053 106.796 132.39C113.117 133.572 146.934 140.458 154.386 142L150.377 152.227L93.5362 137.94Z" fill="white"/>
<path fill-rule="evenodd" clip-rule="evenodd" d="M185.582 77.9639C185.839 77.8611 186.096 78.0153 186.147 78.2723C186.25 78.5292 186.096 78.7862 185.839 78.8376C185.839 78.8376 183.115 79.6599 175.869 86.9578L180.031 100.628C180.083 100.885 179.98 101.142 179.723 101.194C179.466 101.245 179.209 101.142 179.158 100.885L175.098 87.6773C171.86 90.9664 167.748 95.4891 162.66 101.656C162.506 101.862 162.198 101.862 161.992 101.708C161.787 101.553 161.787 101.245 161.941 101.04C167.286 94.564 171.551 89.8872 174.943 86.5466C174.995 86.4952 174.995 86.4952 175.046 86.4438C182.704 78.889 185.582 78.0153 185.582 77.9639ZM184.348 156.956C184.091 156.956 183.886 156.801 183.834 156.545C183.834 156.288 183.989 156.082 184.246 156.031C184.297 156.031 196.58 154.849 198.584 155.876C200.486 156.904 211.587 165.693 211.587 165.744C211.793 165.898 211.793 166.206 211.638 166.412C211.484 166.618 211.176 166.618 210.97 166.463C210.919 166.463 199.921 157.675 198.07 156.699C196.477 155.774 184.4 156.956 184.348 156.956ZM186.456 152.33C186.199 152.382 185.993 152.176 185.942 151.919C185.89 151.662 186.096 151.457 186.353 151.405C186.404 151.405 200.126 149.915 203.518 150.737C203.775 150.788 203.929 151.045 203.878 151.302C203.827 151.559 203.57 151.714 203.313 151.662C200.075 150.891 186.456 152.33 186.456 152.33Z" fill="#E9DAE8"/>
<path fill-rule="evenodd" clip-rule="evenodd" d="M92.6624 145.238L149.658 154.797C150.377 154.9 151.045 154.437 151.148 153.718L151.919 148.99C152.022 148.27 151.559 147.602 150.84 147.499L93.8445 137.94C93.125 137.837 92.4569 138.3 92.3541 139.019L91.5832 143.748C91.4804 144.416 91.9429 145.084 92.6624 145.238Z" fill="#EB6D71"/>
<path fill-rule="evenodd" clip-rule="evenodd" d="M110.033 148.116L149.658 154.746C150.377 154.848 151.045 154.386 151.148 153.666L151.919 148.938C152.022 148.219 151.559 147.551 150.84 147.448L138.968 145.443L110.033 148.116Z" fill="#DA5556"/>
<path fill-rule="evenodd" clip-rule="evenodd" d="M156.956 58.2802C156.956 58.2802 157.315 55.0938 158.6 54.2715C159.885 53.5006 163.277 54.9396 164.562 56.9953C165.847 59.0511 168.622 67.4796 162.815 67.8908C156.904 68.3019 156.956 58.2802 156.956 58.2802Z" fill="#F2BA95"/>
<path fill-rule="evenodd" clip-rule="evenodd" d="M157.058 61.5693C157.007 61.8263 157.161 62.0833 157.367 62.1346C157.521 62.186 157.727 62.1346 157.778 61.9291C157.778 61.9291 163.328 67.0684 163.483 65.4752C163.688 63.882 163.945 62.2888 163.174 60.4901C162.403 58.6913 160.039 58.3315 160.193 57.5606C160.348 56.8411 161.324 57.0467 161.376 57.0981C162.146 57.3037 162.763 57.7662 162.763 57.7662C162.969 57.9204 163.174 57.8176 163.226 57.612C163.328 57.4064 163.226 57.0981 163.02 56.9953C163.02 56.9953 160.656 55.2479 159.011 56.5842C157.624 57.869 157.058 61.5693 157.058 61.5693Z" fill="#EC7978"/>
<path fill-rule="evenodd" clip-rule="evenodd" d="M130.282 48.3612C130.282 48.3612 125.297 53.0894 126.89 60.0276C128.535 66.9657 131.824 70.7174 133.161 72.2078C134.497 73.7496 134.754 75.4456 132.492 79.5571C132.492 79.5571 132.235 80.2252 133.058 80.7905C133.88 81.3558 135.782 82.2809 136.398 82.4351C136.398 82.4351 137.272 84.4908 138.865 85.8785C140.407 87.2147 144.673 91.5317 146.06 92.868C147.499 94.2042 149.452 94.307 151.919 92.7138C154.386 91.1206 159.936 82.3323 163.174 76.5248C166.412 70.7174 162.558 64.7044 160.142 61.5694C157.778 58.4344 147.551 44.9179 143.234 42.5538C138.968 40.1897 130.282 48.3612 130.282 48.3612Z" fill="#F2BA95"/>
<path fill-rule="evenodd" clip-rule="evenodd" d="M129.46 60.0789L141.692 54.8882L137.683 51.0851L130.385 51.7532L127.096 55.248L129.46 60.0789Z" fill="#F0917E"/>
<path fill-rule="evenodd" clip-rule="evenodd" d="M139.225 86.1354C140.561 85.3645 142 84.2338 142.874 82.6406C142.977 82.4351 143.234 82.3837 143.439 82.4865C143.645 82.5892 143.696 82.8462 143.593 83.0518C142.668 84.6964 141.229 85.9298 139.842 86.7521C139.585 86.4951 139.379 86.2896 139.225 86.1354Z" fill="#EE8B83"/>
<path fill-rule="evenodd" clip-rule="evenodd" d="M142.257 86.0327C142.411 85.8785 142.668 85.8271 142.822 85.9813C142.977 86.1355 143.028 86.3924 142.874 86.5466C142.874 86.5466 141.846 87.8828 141.075 88.1398C140.87 88.1912 140.613 88.0884 140.561 87.8828C140.51 87.6773 140.613 87.4203 140.818 87.3689C141.332 87.1633 142.257 86.0327 142.257 86.0327Z" fill="#EE8B83"/>
<path fill-rule="evenodd" clip-rule="evenodd" d="M136.809 67.6851C137.683 67.1198 138.865 67.3768 139.43 68.2505L140.407 69.7923C140.972 70.666 140.715 71.848 139.842 72.4133C138.968 72.9787 137.786 72.7217 137.221 71.848L136.244 70.3062C135.679 69.4325 135.936 68.2505 136.809 67.6851Z" fill="#342A60"/>
<path fill-rule="evenodd" clip-rule="evenodd" d="M157.675 52.524L158.446 54.3742C158.446 54.3742 157.624 55.0423 157.984 56.3786C158.292 57.7148 160.399 61.7749 160.399 61.7749C160.399 61.7749 159.114 62.0318 157.778 61.004C156.493 59.9761 153.821 56.7383 153.821 56.7383C153.821 56.7383 146.831 59.308 141.538 50.2113C140.51 48.464 139.071 47.1791 137.734 49.5946C137.683 49.646 137.683 49.8516 137.632 49.8516C126.839 43.8386 136.552 63.4195 127.507 66.7086L121.905 55.4021L127.25 45.8429C127.25 45.8429 130.437 42.7593 131.721 42.194C133.006 41.6286 139.533 38.1853 139.533 38.1853C139.533 38.1853 145.341 38.0825 145.752 38.5964C146.112 39.1104 157.675 52.524 157.675 52.524Z" fill="#453E77"/>
<path fill-rule="evenodd" clip-rule="evenodd" d="M144.261 53.8603C143.336 52.9353 142.411 51.7532 141.538 50.2114C140.51 48.464 139.071 47.1792 137.734 49.5947C137.683 49.6461 137.683 49.8517 137.632 49.8517C130.591 45.9457 132.235 52.8839 131.773 59.0511L125.092 61.7749L121.905 55.3508L127.199 45.8944C128.689 44.6609 130.18 43.4275 131.516 42.2454C131.567 42.194 131.67 42.1426 131.721 42.1426C133.006 41.5773 139.533 38.1339 139.533 38.1339C139.533 38.1339 145.341 38.0312 145.752 38.5451C146.009 38.9048 151.559 45.3804 155.003 49.3891L144.261 53.8603Z" fill="#342A60"/>
<path fill-rule="evenodd" clip-rule="evenodd" d="M133.829 67.1713C133.829 67.1713 133.366 67.5824 132.801 67.6338C132.184 67.6852 131.362 67.1199 131.31 66.9143C131.208 66.7087 131.67 66.8629 132.338 65.9378C133.006 65.0127 135.73 62.1861 139.328 63.2654C139.944 63.4709 139.842 63.9335 139.225 64.0363C138.608 64.1904 135.884 64.2932 133.829 67.1713Z" fill="#342A60"/>
<path fill-rule="evenodd" clip-rule="evenodd" d="M135.936 53.3464C135.936 53.3464 141.075 58.2288 144.364 58.1774C147.653 58.0746 149.041 57.1495 149.041 57.1495C149.041 57.1495 150.788 59.4622 155.157 58.2802C155.157 58.2802 157.058 60.5929 158.035 61.261C158.96 61.9291 160.45 61.7236 160.45 61.7236C160.45 61.7236 158.395 57.4579 158.086 56.5842C157.778 55.6591 158.086 54.4771 158.857 54.1687L158.549 45.1749L153.153 41.8343L135.936 53.3464Z" fill="#453E77"/>
<path fill-rule="evenodd" clip-rule="evenodd" d="M135.936 53.3464C135.936 53.3464 137.323 54.6827 139.174 55.9675L158.652 47.9501L158.549 45.2263L153.153 41.8857L135.936 53.3464Z" fill="#342A60"/>
<path fill-rule="evenodd" clip-rule="evenodd" d="M115.327 41.4745L155.568 21.1741C156.801 20.5574 158.292 21.0713 158.909 22.2534L166.412 37.1061C167.029 38.3395 166.515 39.83 165.333 40.4467L125.092 60.7471C123.858 61.3638 122.368 60.8499 121.751 59.6678L114.248 44.8151C113.631 43.5303 114.093 42.0399 115.327 41.4745Z" fill="#76689C"/>
<path fill-rule="evenodd" clip-rule="evenodd" d="M162.558 29.5512L166.361 37.0547C166.412 37.1574 166.412 37.2088 166.463 37.3116L144.159 48.5668L121.854 59.822C121.803 59.7706 121.751 59.6678 121.7 59.6164L117.897 52.1129L120.158 50.9823C125.863 48.1042 130.231 40.3952 137.991 36.4893C145.7 32.5834 154.54 33.6627 160.245 30.7847L162.558 29.5512Z" fill="#C5B2D6"/>
<path fill-rule="evenodd" clip-rule="evenodd" d="M123.036 55.0424C122.471 54.2715 121.443 54.734 121.134 54.734C120.62 53.4492 119.593 54.5284 119.438 54.7854C120.004 55.0424 120.364 55.5049 120.826 56.173C121.134 56.9439 121.289 57.5093 121.134 58.126C121.443 58.1774 122.882 57.9718 122.162 56.7898C122.316 56.5328 123.293 55.9675 123.036 55.0424Z" fill="#76689C"/>
<path fill-rule="evenodd" clip-rule="evenodd" d="M135.319 53.038L134.497 53.4492C134.497 51.9074 134.445 50.3656 135.73 48.6182C133.52 48.6182 132.287 47.5903 131.002 46.6652C131.002 48.2584 131.105 49.8516 129.769 51.6504C131.876 51.6504 133.109 52.5755 134.343 53.552L133.52 53.9631C132.39 53.295 131.105 52.7297 129.46 52.5241C128.792 52.5241 127.867 52.6269 128.021 53.6547C128.073 54.1687 128.381 54.6826 129.1 54.9396C128.998 55.0938 128.535 55.2479 128.124 55.1452C127.97 55.1966 127.661 54.8882 127.661 55.5049C127.559 55.9161 127.096 55.7619 126.736 55.2993C126.222 54.3229 126.685 53.3978 127.199 52.9352C126.531 53.0894 125.503 52.8838 125.04 51.9074C124.835 51.342 125.04 50.9309 125.4 51.0337C125.914 51.3934 125.863 50.9823 125.965 50.8795C126.171 50.4684 126.531 50.2114 126.736 50.2114C126.479 50.9309 126.736 51.4962 127.096 51.856C127.816 52.5755 128.484 51.9074 128.843 51.342C130.026 49.1835 130.128 47.282 130.231 45.3804C131.824 46.4083 133.417 47.4875 135.884 47.7959C136.552 47.7959 137.478 47.6931 137.323 46.6652C137.272 46.1513 136.964 45.6374 136.244 45.3804C136.347 45.2262 136.809 45.072 137.221 45.1748C137.375 45.1234 137.683 45.4318 137.683 44.8151C137.786 44.4039 138.248 44.5581 138.608 45.0206C139.122 45.9971 138.66 46.9222 138.146 47.3847C138.814 47.2306 139.842 47.4361 140.304 48.4126C140.51 48.9779 140.304 49.3891 139.944 49.2863C139.431 48.9265 139.482 49.3377 139.379 49.4405C139.174 49.8516 138.814 50.1086 138.608 50.1086C138.865 49.3891 138.608 48.8238 138.248 48.464C137.529 47.7445 136.861 48.4126 136.501 48.9779C135.73 50.3656 135.473 51.7018 135.319 53.038ZM133.623 51.8046C133.931 51.1365 134.086 50.3656 134.086 49.4919C133.366 48.9779 132.647 48.6696 131.927 48.464C131.619 49.1321 131.465 49.903 131.465 50.7767C132.184 51.2906 132.904 51.6504 133.623 51.8046ZM123.036 55.0424C123.601 55.8133 124.629 55.3507 124.938 55.3507C125.452 56.6356 126.479 55.5563 126.634 55.2993C126.068 55.0424 125.708 54.5798 125.246 53.9117C124.938 53.1408 124.783 52.5755 124.938 51.9588C124.629 51.9074 123.19 52.1129 123.91 53.295C123.756 53.552 122.779 54.1173 123.036 55.0424ZM142.463 45.2262C141.897 44.4553 140.87 44.9179 140.561 44.9179C140.047 43.633 139.019 44.7123 138.865 44.9693C139.431 45.2262 139.79 45.6888 140.253 46.3569C140.561 47.1278 140.715 47.6931 140.561 48.3098C140.87 48.3612 142.309 48.1556 141.589 46.9736C141.743 46.7166 142.72 46.1513 142.463 45.2262Z" fill="#76689C"/>
<path fill-rule="evenodd" clip-rule="evenodd" d="M154.694 43.2219L153.872 43.633C153.872 42.0912 153.821 40.5494 155.106 38.802C152.896 38.802 151.662 37.7742 150.377 36.8491C150.377 38.4423 150.48 40.0355 149.144 41.8342C151.251 41.8342 152.484 42.7593 153.718 43.7358L152.896 44.1469C151.765 43.4788 150.48 42.9135 148.836 42.7079C148.167 42.7079 147.242 42.8107 147.397 43.8386C147.448 44.3525 147.756 44.8665 148.476 45.1234C148.373 45.2776 147.91 45.4318 147.499 45.329C147.345 45.3804 147.037 45.072 147.037 45.6887C146.934 46.0999 146.471 45.9457 146.112 45.4832C145.598 44.5067 146.06 43.5816 146.574 43.1191C145.906 43.2733 144.878 43.0677 144.416 42.0912C144.21 41.5259 144.416 41.1147 144.775 41.2175C145.289 41.5773 145.238 41.1661 145.341 41.0633C145.546 40.6522 145.906 40.3952 146.112 40.3952C145.855 41.1147 146.112 41.6801 146.471 42.0398C147.191 42.7593 147.859 42.0912 148.219 41.5259C149.401 39.3674 149.504 37.4658 149.606 35.5642C151.2 36.5921 152.793 37.6714 155.26 37.9797C155.928 37.9797 156.853 37.8769 156.699 36.8491C156.647 36.3351 156.339 35.8212 155.619 35.5642C155.722 35.4101 156.185 35.2559 156.596 35.3587C156.75 35.3073 157.058 35.6156 157.058 34.9989C157.161 34.5878 157.624 34.7419 157.984 35.2045C158.498 36.181 158.035 37.106 157.521 37.5686C158.189 37.4144 159.217 37.62 159.68 38.5964C159.885 39.1618 159.68 39.5729 159.32 39.4701C158.806 39.1104 158.857 39.5215 158.754 39.6243C158.549 40.0355 158.189 40.2924 157.984 40.2924C158.241 39.5729 157.984 39.0076 157.624 38.6478C156.904 37.9283 156.236 38.5964 155.876 39.1618C155.157 40.6008 154.849 41.937 154.694 43.2219ZM152.998 41.9884C153.307 41.3203 153.461 40.5494 153.461 39.6757C152.741 39.1618 152.022 38.8534 151.302 38.6478C150.994 39.316 150.84 40.0869 150.84 40.9605C151.559 41.4745 152.279 41.8342 152.998 41.9884ZM161.889 35.4101C161.324 34.6392 160.296 35.1017 159.988 35.1017C159.474 33.8169 158.446 34.8961 158.292 35.1531C158.857 35.4101 159.217 35.8726 159.68 36.5407C159.988 37.3116 160.142 37.8769 159.988 38.4937C160.296 38.5451 161.735 38.3395 161.016 37.1574C161.17 36.9005 162.146 36.3351 161.889 35.4101ZM142.463 45.2262C143.028 45.9971 144.056 45.5346 144.364 45.5346C144.878 46.8194 145.906 45.7401 146.06 45.4832C145.495 45.2262 145.135 44.7637 144.673 44.0956C144.364 43.3247 144.21 42.7593 144.364 42.1426C144.056 42.0912 142.617 42.2968 143.336 43.4788C143.182 43.7358 142.206 44.3011 142.463 45.2262Z" fill="#76689C"/>
<path fill-rule="evenodd" clip-rule="evenodd" d="M161.889 35.4101C161.632 34.485 162.609 33.9196 162.763 33.7141C162.044 32.532 163.534 32.3264 163.791 32.3778C163.637 32.9946 163.791 33.5599 164.099 34.3308C164.562 34.9989 164.922 35.4614 165.487 35.7184C165.333 35.9754 164.305 37.0546 163.791 35.7698C163.483 35.7184 162.455 36.181 161.889 35.4101Z" fill="#76689C"/>
<path fill-rule="evenodd" clip-rule="evenodd" d="M117.948 52.0616L119.284 51.3935C120.364 51.7532 121.186 52.4214 122.008 53.0381C122.008 51.9074 121.957 50.7254 122.419 49.4919C123.704 48.5155 124.938 47.3848 126.222 46.1C126.12 46.3569 125.914 46.6139 125.76 46.7681C126.428 46.6139 127.456 46.8195 127.918 47.7959C128.124 48.3613 127.918 48.7724 127.559 48.6696C127.045 48.3099 127.096 48.721 126.993 48.8238C126.788 49.235 126.428 49.4919 126.222 49.4919C126.479 48.721 126.222 48.2071 125.863 47.8473C125.143 47.1278 124.475 47.7959 124.115 48.3613C122.933 50.5198 122.83 52.4214 122.728 54.3229C121.289 53.3978 119.901 52.4727 117.948 52.0616ZM120.209 50.9309C120.518 51.0851 120.826 51.1879 121.134 51.2393C121.289 50.9309 121.391 50.5712 121.443 50.2114C121.032 50.4684 120.621 50.7254 120.209 50.9309ZM127.302 45.1235C127.456 45.3291 127.61 45.5346 127.764 45.7916C128.073 46.5625 128.227 47.1278 128.073 47.7445C128.381 47.7959 129.82 47.5904 129.1 46.4083C129.255 46.2027 130.231 45.6374 129.974 44.7123C129.409 43.9414 128.381 44.404 128.073 44.404V44.3526L127.302 45.1235Z" fill="#76689C"/>
<path fill-rule="evenodd" clip-rule="evenodd" d="M137.169 36.8491C137.426 36.6949 137.683 36.5407 137.992 36.4379C137.992 37.9798 138.043 39.5216 136.758 41.2689C138.968 41.2689 140.201 42.2968 141.486 43.2219C141.486 41.6287 141.383 40.0355 142.72 38.2367C140.613 38.2367 139.379 37.3116 138.146 36.3352C138.403 36.181 138.711 36.0782 138.968 35.924C140.099 36.5921 141.332 37.1061 143.028 37.363C143.696 37.363 144.621 37.2602 144.467 36.2324C144.416 35.7184 144.107 35.2045 143.388 34.9475C143.491 34.7934 143.953 34.6392 144.364 34.742C144.518 34.6906 144.827 34.9989 144.827 34.3822C144.93 33.9711 145.392 34.1252 145.752 34.5878C146.266 35.5643 145.803 36.4893 145.289 36.9519C145.958 36.7977 146.985 37.0033 147.448 37.9798C147.653 38.5451 147.448 38.9562 147.088 38.8534C146.574 38.4937 146.626 38.9048 146.523 39.0076C146.317 39.4188 145.958 39.6757 145.752 39.6757C146.009 38.9562 145.752 38.3909 145.392 38.0311C144.673 37.3116 144.005 37.9798 143.645 38.5451C142.463 40.7036 142.36 42.6052 142.257 44.5067C140.664 43.4789 139.071 42.3996 136.604 42.0912C135.936 42.0912 135.011 42.194 135.165 43.2219C135.216 43.7358 135.525 44.2498 136.244 44.5067C136.141 44.6609 135.679 44.8151 135.268 44.7123C135.113 44.7637 134.805 44.4553 134.805 45.072C134.702 45.4832 134.24 45.329 133.88 44.8665C133.366 43.89 133.829 42.9649 134.343 42.5024C133.674 42.6566 132.647 42.451 132.184 41.4745C131.978 40.9092 132.184 40.498 132.544 40.6008C133.058 40.9606 133.006 40.5494 133.109 40.4466C133.315 40.0355 133.674 39.7785 133.88 39.7785C133.623 40.5494 133.88 41.0634 134.24 41.4231C134.959 42.1426 135.627 41.4745 135.987 40.9092C136.707 39.5216 137.015 38.1853 137.169 36.8491ZM138.865 38.0825C138.557 38.7507 138.403 39.5216 138.403 40.3952C139.122 40.9092 139.842 41.2175 140.561 41.4231C140.87 40.755 141.024 39.9841 141.024 39.1104C140.304 38.5965 139.585 38.2367 138.865 38.0825ZM129.974 44.6609C130.539 45.4318 131.567 44.9693 131.876 44.9693C132.39 46.2541 133.417 45.1748 133.572 44.9179C133.006 44.6609 132.647 44.1984 132.184 43.5302C131.876 42.7593 131.722 42.194 131.876 41.5773C131.567 41.5259 130.128 41.7315 130.848 42.9135C130.694 43.1705 129.717 43.7358 129.974 44.6609ZM149.401 34.8448C148.836 34.0738 147.808 34.5364 147.499 34.5364C146.985 33.2516 145.958 34.3308 145.803 34.5878C146.369 34.8448 146.728 35.3073 147.191 35.9754C147.499 36.7463 147.653 37.3116 147.499 37.9284C147.808 37.9798 149.247 37.7742 148.527 36.5921C148.681 36.3352 149.658 35.7698 149.401 34.8448Z" fill="#76689C"/>
<path fill-rule="evenodd" clip-rule="evenodd" d="M150.275 33.0974L151.405 32.9432C151.457 33.2001 151.559 33.4571 151.662 33.7141C152.125 34.3822 152.484 34.8447 153.05 35.1017C152.896 35.3587 151.868 36.4379 151.354 35.1531C151.097 35.1531 150.069 35.6156 149.452 34.8447C149.144 33.9197 150.12 33.3543 150.275 33.0974ZM152.793 32.7376C153.101 32.789 153.358 32.789 153.615 32.7376C153.101 33.2001 152.639 34.1252 153.153 35.1017C153.512 35.6156 153.923 35.7184 154.078 35.3073C154.078 34.6906 154.386 34.9475 154.54 34.9475C154.951 34.9989 155.414 34.8961 155.517 34.7419C154.746 34.5364 154.489 33.971 154.437 33.4571C154.283 32.4292 155.208 32.3265 155.876 32.3265C158.343 32.6348 159.885 33.7141 161.53 34.7419C161.632 33.0974 161.735 31.4014 162.558 29.5512L161.221 30.2193C160.862 31.2986 160.913 32.3778 160.913 33.4057C159.988 32.6862 159.063 31.9667 157.829 31.6583C156.236 32.1209 154.592 32.4292 152.793 32.7376ZM158.909 31.2472C159.371 31.093 159.782 30.8874 160.245 30.6819C160.193 30.9902 160.091 31.35 159.937 31.6069C159.628 31.5556 159.268 31.4014 158.909 31.2472Z" fill="#76689C"/>
<path fill-rule="evenodd" clip-rule="evenodd" d="M122.111 59.4109C122.214 59.6164 122.111 59.9248 121.905 60.0276C121.7 60.1304 121.391 60.0276 121.289 59.822L113.785 44.9693C113.682 44.7637 113.785 44.4554 113.991 44.3526C114.196 44.2498 114.505 44.3526 114.607 44.5582L122.111 59.4109Z" fill="white"/>
<path fill-rule="evenodd" clip-rule="evenodd" d="M167.543 107.361C167.646 107.104 167.903 107.001 168.159 107.104C168.416 107.207 168.519 107.464 168.416 107.721C167.697 109.571 165.436 115.327 162.712 122.162L154.386 143.234C154.283 143.491 154.026 143.593 153.769 143.491C153.512 143.388 153.41 143.131 153.512 142.874L161.838 121.802C164.562 114.967 166.823 109.211 167.543 107.361Z" fill="white"/>
<path fill-rule="evenodd" clip-rule="evenodd" d="M122.779 164.459C123.036 164.459 123.242 164.665 123.242 164.922C123.242 165.179 123.036 165.384 122.779 165.384C121.186 165.384 118.359 166.926 116.201 169.65C114.659 171.654 113.477 174.275 113.477 177.462C113.477 178.541 113.528 179.517 113.58 180.442C113.682 181.368 113.785 182.241 114.042 183.063C114.094 183.32 113.939 183.577 113.734 183.629C113.477 183.68 113.22 183.526 113.168 183.32C112.963 182.447 112.809 181.522 112.706 180.597C112.603 179.62 112.552 178.592 112.552 177.513C112.552 174.121 113.785 171.243 115.43 169.136C117.794 166.104 120.98 164.459 122.779 164.459Z" fill="white"/>
<path fill-rule="evenodd" clip-rule="evenodd" d="M201.205 123.087C201.103 123.293 200.846 123.396 200.589 123.293C200.383 123.19 200.28 122.933 200.383 122.676C200.383 122.676 201.771 119.85 200.537 116.971C198.379 111.884 195.244 107.258 191.389 104.329C188.1 101.81 184.297 100.526 180.083 101.194C177.308 101.656 174.584 102.53 172.425 103.763C170.472 104.843 169.033 106.23 168.416 107.721C168.314 107.978 168.057 108.08 167.8 107.978C167.543 107.875 167.44 107.618 167.543 107.361C168.211 105.665 169.804 104.174 171.963 102.941C174.224 101.656 177.051 100.731 179.929 100.269C184.4 99.5491 188.46 100.937 191.903 103.609C195.861 106.641 199.098 111.421 201.308 116.612C202.747 119.901 201.205 123.087 201.205 123.087Z" fill="#E9DAE8"/>
<path fill-rule="evenodd" clip-rule="evenodd" d="M231.425 66.5546C231.425 64.0877 232.401 61.8264 234.046 60.2332C235.639 58.64 237.9 57.6121 240.367 57.6121C242.834 57.6121 245.095 58.5886 246.689 60.2332C248.282 61.8264 249.31 64.0877 249.31 66.5546H245.352C245.352 65.167 244.787 63.9335 243.913 63.0084C242.988 62.0834 241.755 61.5694 240.367 61.5694C238.98 61.5694 237.746 62.1347 236.821 63.0084C235.896 63.9335 235.382 65.167 235.382 66.5546H231.425Z" fill="#342A60"/>
<path fill-rule="evenodd" clip-rule="evenodd" d="M251.468 55.6592L253.318 53.6034L251.931 50.5198C251.931 50.5198 251.622 49.6461 250.492 50.417C249.31 51.1879 240.367 56.1217 240.367 56.1217L239.185 59.6679L251.468 55.6592Z" fill="#B19FCB"/>
<path fill-rule="evenodd" clip-rule="evenodd" d="M229.215 55.6592L227.365 53.6034L228.752 50.5198C228.752 50.5198 229.061 49.6461 230.191 50.417C231.373 51.1879 240.316 56.1217 240.316 56.1217V59.2053L229.215 55.6592Z" fill="#C5B2D6"/>
<path fill-rule="evenodd" clip-rule="evenodd" d="M240.881 61.3125H240.83H240.778H240.727H240.676H240.624H240.573H240.521H240.47H240.419H240.367H240.316H240.264H240.213H240.162H240.11L226.645 56.2759C225.926 56.019 225.515 55.1967 225.823 54.4258C226.08 53.7063 226.902 53.2951 227.673 53.6035L240.624 58.4344L253.575 53.6035C254.295 53.3465 255.117 53.7063 255.426 54.4258C255.683 55.1453 255.323 55.9676 254.603 56.2759L240.881 61.3125Z" fill="#342A60"/>
<path fill-rule="evenodd" clip-rule="evenodd" d="M235.999 48.7725C235.999 48.6183 236.102 48.5155 236.256 48.5155C236.41 48.5155 236.513 48.6183 236.513 48.7725V49.5434C236.513 49.6976 236.41 49.8003 236.256 49.8003C236.102 49.8003 235.999 49.6976 235.999 49.5434V48.7725ZM235.588 49.8003C235.69 49.8517 235.742 50.0059 235.69 50.1601C235.639 50.2629 235.485 50.3143 235.331 50.2629L234.663 49.9031C234.56 49.8517 234.508 49.6976 234.56 49.5434C234.611 49.4406 234.765 49.3892 234.92 49.4406L235.588 49.8003ZM237.798 51.0852C237.9 51.1366 237.952 51.2907 237.9 51.4449C237.849 51.5477 237.695 51.5991 237.541 51.5477L236.872 51.188C236.77 51.1366 236.718 50.9824 236.77 50.8282C236.821 50.7254 236.975 50.674 237.129 50.7254L237.798 51.0852ZM235.331 50.674C235.433 50.6226 235.588 50.6226 235.69 50.7768C235.742 50.8796 235.742 51.0338 235.588 51.1366L234.92 51.4963C234.817 51.5477 234.663 51.5477 234.56 51.3935C234.508 51.2907 234.508 51.1366 234.663 51.0338L235.331 50.674ZM237.541 49.3892C237.643 49.3378 237.798 49.3378 237.9 49.492C237.952 49.5948 237.952 49.7489 237.798 49.8517L237.129 50.2115C237.027 50.2629 236.873 50.2629 236.77 50.1087C236.718 50.0059 236.718 49.8517 236.872 49.7489L237.541 49.3892ZM235.999 51.3421C235.999 51.188 236.102 51.0852 236.256 51.0852C236.41 51.0852 236.513 51.188 236.513 51.3421V52.113C236.513 52.2672 236.41 52.37 236.256 52.37C236.102 52.37 235.999 52.2672 235.999 52.113V51.3421Z" fill="#F7C7B7"/>
<path fill-rule="evenodd" clip-rule="evenodd" d="M243.194 47.0251C243.194 46.8709 243.297 46.7681 243.451 46.7681C243.605 46.7681 243.708 46.8709 243.708 47.0251V47.796C243.708 47.9502 243.605 48.053 243.451 48.053C243.297 48.053 243.194 47.9502 243.194 47.796V47.0251ZM242.783 48.0016C242.886 48.053 242.937 48.2071 242.886 48.3613C242.834 48.4641 242.68 48.5155 242.526 48.4641L241.858 48.1044C241.755 48.053 241.703 47.8988 241.755 47.7446C241.806 47.6418 241.96 47.5904 242.115 47.6418L242.783 48.0016ZM245.044 49.2864C245.147 49.3378 245.198 49.492 245.147 49.6462C245.095 49.7489 244.941 49.8003 244.787 49.749L244.119 49.3378C244.016 49.2864 243.965 49.1322 244.016 48.978C244.068 48.8753 244.222 48.8239 244.376 48.8753L245.044 49.2864ZM242.526 48.9267C242.629 48.8753 242.783 48.8753 242.886 49.0294C242.937 49.1322 242.937 49.2864 242.783 49.3892L242.115 49.749C242.012 49.8003 241.858 49.8003 241.755 49.6462C241.703 49.5434 241.703 49.3892 241.858 49.2864L242.526 48.9267ZM244.787 47.6418C244.89 47.5904 245.044 47.5904 245.147 47.7446C245.198 47.8474 245.198 48.0016 245.044 48.1044L244.376 48.4641C244.273 48.5155 244.119 48.5155 244.016 48.3613C243.965 48.2585 243.965 48.1044 244.119 48.0016L244.787 47.6418ZM243.194 49.5948C243.194 49.4406 243.297 49.3378 243.451 49.3378C243.605 49.3378 243.708 49.4406 243.708 49.5948V50.3657C243.708 50.5199 243.605 50.6226 243.451 50.6226C243.297 50.6226 243.194 50.5199 243.194 50.3657V49.5948Z" fill="#F7C7B7"/>
<path fill-rule="evenodd" clip-rule="evenodd" d="M240.419 52.37C240.727 52.37 240.933 52.113 240.933 51.856C240.933 51.5477 240.676 51.3421 240.419 51.3421C240.11 51.3421 239.905 51.5991 239.905 51.856C239.905 52.113 240.162 52.37 240.419 52.37Z" fill="#F7C7B7"/>
<path fill-rule="evenodd" clip-rule="evenodd" d="M246.175 45.3805C246.483 45.3805 246.689 45.1235 246.689 44.8665C246.689 44.5582 246.432 44.3526 246.175 44.3526C245.866 44.3526 245.661 44.6096 245.661 44.8665C245.661 45.1235 245.866 45.3805 246.175 45.3805Z" fill="#F7C7B7"/>
<path fill-rule="evenodd" clip-rule="evenodd" d="M245.866 51.4449C246.175 51.4449 246.38 51.188 246.38 50.931C246.38 50.6226 246.123 50.4171 245.866 50.4171C245.558 50.4171 245.352 50.674 245.352 50.931C245.352 51.2393 245.609 51.4449 245.866 51.4449Z" fill="#F7C7B7"/>
<path fill-rule="evenodd" clip-rule="evenodd" d="M238.723 48.0016C239.031 48.0016 239.237 47.7446 239.237 47.4876C239.237 47.1793 238.98 46.9737 238.723 46.9737C238.414 46.9737 238.209 47.2307 238.209 47.4876C238.209 47.796 238.414 48.0016 238.723 48.0016Z" fill="#F7C7B7"/>
<path fill-rule="evenodd" clip-rule="evenodd" d="M63.882 118.719C63.882 119.49 63.2653 120.106 62.4944 120.106H56.9953H51.4962H41.9884C41.2175 120.106 40.6008 119.49 40.6008 118.719C40.6008 117.948 41.2175 117.331 41.9884 117.331H50.16V111.37L46.2027 114.659C45.6374 115.121 44.7637 115.07 44.2497 114.505C43.7872 113.939 43.8386 113.066 44.4039 112.552L50.5197 107.464C50.7767 107.207 51.1365 107.053 51.4962 107.053C52.2671 107.053 52.8838 107.669 52.8838 108.44V117.331H55.6077V102.427C55.6077 101.656 56.2244 101.04 56.9953 101.04C57.7662 101.04 58.3829 101.656 58.3829 102.427V117.331H61.1068V98.1615C61.1068 97.3906 61.7235 96.7739 62.4944 96.7739C63.2653 96.7739 63.882 97.3906 63.882 98.1615V118.719ZM66.6573 98.2129C66.6573 97.442 67.274 96.8253 68.0449 96.8253C68.8158 96.8253 69.4325 97.442 69.4325 98.2129V118.719C69.4325 119.49 68.8158 120.106 68.0449 120.106C67.274 120.106 66.6573 119.49 66.6573 118.719V98.2129Z" fill="#F0917E"/>
<path fill-rule="evenodd" clip-rule="evenodd" d="M325.526 211.69H2.72385C1.23344 211.69 0 212.923 0 214.414C0 215.904 1.23344 217.137 2.72385 217.137H325.526C327.017 217.137 328.25 215.904 328.25 214.414C328.301 212.923 327.068 211.69 325.526 211.69Z" fill="white"/>
</g>
<defs>
<linearGradient id="paint0_linear_142_276" x1="320.653" y1="6.71637" x2="78.4335" y2="277.938" gradientUnits="userSpaceOnUse">
<stop stop-color="#CCE0FF"/>
<stop offset="1" stop-color="#8A2EFF"/>
</linearGradient>
<linearGradient id="paint1_linear_142_276" x1="9.05125" y1="218.506" x2="135.487" y2="-19.4611" gradientUnits="userSpaceOnUse">
<stop stop-color="#FF4444"/>
<stop offset="1" stop-color="#FFEAC0"/>
</linearGradient>
<clipPath id="clip0_142_276">
<rect width="328.301" height="217.189" fill="white"/>
</clipPath>
</defs>
</svg>
