<svg width="414" height="807" viewBox="0 0 414 807" fill="none" xmlns="http://www.w3.org/2000/svg">
<g clip-path="url(#clip0_56_266)">
<rect width="414" height="807" fill="#7D2DFF"/>
<circle cx="206.5" cy="745.5" r="328" fill="url(#paint0_linear_56_266)" stroke="url(#paint1_linear_56_266)" stroke-width="29"/>
<path d="M81.6225 180.016L96.9185 177.136V173.232L81.6225 176.176V180.016ZM105.077 159.664C100.021 159.664 98.165 158.896 98.165 154.672V135.088L97.653 134.96L91.829 137.392V140.4C82.037 143.536 76.853 149.424 76.853 154.416C76.853 159.024 81.077 162.032 87.861 162.032C89.653 162.032 91.317 161.84 93.109 161.264C94.965 164.784 98.613 166 103.477 166C106.741 166 107.637 163.76 107.637 161.776C107.637 160.56 107.189 159.664 105.077 159.664ZM88.437 155.888C85.941 155.888 82.741 154.928 82.037 152.88C82.805 150.512 86.645 148.08 91.829 146.608V154.672V155.568C90.741 155.76 89.653 155.888 88.437 155.888ZM112.364 96.256H116.844V83.52H112.364V96.256ZM122.44 98.44L106.76 101.384V105.288L122.44 102.408V98.44ZM123.272 107.08L119.624 107.912C120.008 109.064 120.328 110.408 120.328 111.688C120.328 113.096 119.944 114.056 118.664 114.056C117.512 114.056 116.616 113.416 116.616 111.816C116.616 111.112 116.616 110.344 116.68 109.256L113.224 109.448C113.16 113.224 112.52 114.248 111.176 114.248C110.024 114.248 109.448 113.48 109.448 111.88C109.448 111.112 109.576 110.216 109.768 109.192L106.184 109.32C105.799 110.536 105.608 111.88 105.608 112.712C105.608 115.4 106.824 118.024 110.984 118.024C112.584 118.024 114.056 117.448 115.016 116.296C115.784 117.256 117.192 117.896 118.856 117.896C122.44 117.896 124.232 115.144 124.232 111.88C124.232 110.344 123.784 108.552 123.272 107.08ZM124.297 159.664C119.817 159.664 117.513 159.088 117.513 153.264V122.352L116.937 122.032L111.177 123.568V153.712C111.177 156.016 110.985 157.552 110.729 158.64C109.257 159.536 107.081 159.664 105.097 159.664L103.625 166C109.129 166 112.521 165.104 114.761 162.288C116.745 165.36 120.329 166 122.825 166C126.089 166 126.857 163.76 126.857 161.776C126.857 160.56 126.345 159.664 124.297 159.664ZM122.812 166C131.389 166 136.701 163.44 136.701 153.2V122.352L136.125 122.032L130.365 123.568V153.712C130.365 156.016 130.173 157.552 129.917 158.64C128.445 159.536 126.269 159.664 124.285 159.664L122.812 166ZM151.694 110.896C149.71 110.896 148.046 112.688 145.614 115.824C145.166 115.824 144.718 115.696 144.334 115.632C144.846 114.8 145.294 113.712 145.742 112.432L145.55 112.304L142.99 112.624C142.542 114.16 142.222 114.992 141.838 115.504C141.39 115.952 141.006 116.144 139.918 116.144L139.342 118.512C140.878 118.512 142.03 118.128 142.926 117.424C144.142 118.064 145.87 118.576 149.262 118.576C153.87 118.576 155.086 116.592 155.086 114.48C155.086 112.752 153.806 110.896 151.694 110.896ZM152.782 115.696C152.334 115.952 150.734 116.08 149.262 116.08H148.046C149.582 114.352 150.606 113.392 151.566 113.392C152.59 113.392 153.102 114.416 152.782 115.696ZM144.782 123.568V166.128L145.23 166.384L151.054 165.168L151.118 122.352L150.67 122.032L144.782 123.568ZM180.806 129.408L196.486 126.528V122.56L180.806 125.504V129.408ZM189.901 145.776L193.613 140.208L187.661 136.112L183.949 141.616L189.901 145.776ZM188.109 177.904C199.757 177.904 207.309 171.312 207.309 161.008C207.309 157.808 205.709 151.856 203.853 147.888H203.469L197.901 151.856C201.421 159.536 202.253 163.248 201.037 166.896C198.669 169.968 194.637 171.568 189.389 171.568C182.093 171.568 178.701 168.496 178.701 161.648C178.701 159.664 178.893 157.552 179.277 155.696L178.701 155.44L173.901 157.232C173.261 159.024 172.813 162.352 172.813 164.656C172.813 172.848 178.637 177.904 188.109 177.904ZM226.81 166C230.01 166 230.842 163.888 230.842 161.776C230.842 160.496 230.266 159.664 228.282 159.664C223.226 159.664 221.306 158.448 221.306 153.776V122.352L220.794 122.032L214.97 123.568V154.352C214.97 163.056 219.578 166 226.81 166ZM230.931 133.408L246.611 130.528V126.56L230.931 129.504V133.408ZM267.837 159.664C261.885 159.664 258.749 159.28 256.765 157.68C258.557 157.232 260.221 157.04 261.885 156.912L263.101 151.216C259.517 151.024 255.933 149.936 249.469 146.736C244.221 144.112 241.341 143.088 238.781 143.088C236.733 143.088 234.557 143.664 233.085 144.368L230.781 150.128L231.036 150.384C233.021 149.744 235.26 149.168 237.821 149.168C240.637 149.168 243.389 150.064 248.509 152.624C249.853 153.328 251.005 153.84 251.901 154.288C249.661 154.8 247.229 155.504 244.029 156.592C236.989 159.024 233.341 159.664 228.221 159.664L226.812 166C232.637 166 237.373 164.848 245.821 161.328C247.677 160.56 249.341 159.92 250.877 159.408C253.181 163.632 256.893 166 266.429 166C269.693 166 270.333 163.76 270.333 161.776C270.333 160.56 269.885 159.664 267.837 159.664ZM279.941 138.408C283.333 138.408 285.637 136.168 285.637 132.776C285.637 129.256 283.525 126.76 280.26 126.76C276.677 126.76 274.373 129.256 274.373 133.032C274.373 136.296 276.549 138.408 279.941 138.408ZM279.941 135.016C278.661 135.016 277.765 134.12 277.765 132.776C277.765 131.368 278.661 130.408 280.005 130.408C281.285 130.408 282.245 131.368 282.245 132.84C282.245 134.184 281.349 135.016 279.941 135.016ZM288.521 159.664C284.937 159.664 282.569 158.896 280.969 158.064C282.249 155.44 283.145 152.112 284.041 148.144L283.401 147.696L277.001 149.232C275.913 154.16 275.145 157.168 274.312 158.64C273.353 159.344 271.561 159.664 269.065 159.664H267.785L266.312 166H267.593C272.073 166 275.209 164.976 277.513 162.928C280.137 165.104 284.105 166 287.049 166C290.313 166 291.081 163.76 291.081 161.776C291.081 160.56 290.569 159.664 288.521 159.664ZM272.841 176.24L278.793 180.4L282.505 174.832L276.553 170.8L272.841 176.24ZM319.427 122.92C316.419 122.92 314.051 125.608 314.051 128.424C314.051 130.344 314.819 131.496 316.291 132.648C314.435 133.288 311.939 133.928 308.739 134.504L309.507 137.896C319.043 135.976 324.419 133.416 324.419 128.232C324.419 125.288 322.243 122.92 319.427 122.92ZM317.187 128.296C317.187 127.4 318.147 126.44 319.171 126.44C320.259 126.44 320.963 127.464 320.963 128.552C320.963 129.448 320.515 130.28 319.619 130.984C317.827 129.96 317.187 129.32 317.187 128.296ZM332.055 143.152L331.671 143.088L326.231 147.248C328.151 151.408 330.007 156.016 329.111 158.896C327.831 159.472 325.527 159.664 323.287 159.664C321.687 159.664 320.087 159.408 318.679 159.024C319.639 156.784 320.535 154.096 321.559 150.896L321.303 150.64L314.903 151.664C313.943 155.056 313.047 158.128 312.407 159.024C311.767 159.472 310.679 159.664 309.591 159.664C307.287 159.664 304.471 159.088 302.551 158.384C303.575 156.4 304.407 153.904 305.431 150.96L305.175 150.64L298.327 151.664C297.559 154.8 296.855 157.488 296.151 158.64C294.871 159.344 292.567 159.664 288.471 159.664L287.062 166C292.951 166 296.47 165.168 298.967 163.184C301.015 164.592 304.599 166 308.887 166C311.447 166 313.367 165.424 314.839 164.336C316.951 165.296 319.511 166 322.583 166C330.007 166 335.255 162.928 335.255 155.44C335.255 152.176 333.911 147.696 332.055 143.152Z" fill="white"/>
<path d="M148.866 226.312C152.346 226.312 154.818 224.776 154.818 221.704C154.818 218.56 152.322 217.648 149.994 216.808L149.514 216.64C147.114 215.776 146.49 215.2 146.49 214.24C146.49 212.992 147.594 212.392 149.154 212.392C150.738 212.392 151.89 212.824 153.282 213.688L154.53 211.768C152.826 210.616 150.978 210.136 149.178 210.136C146.49 210.136 143.706 211.408 143.706 214.336C143.706 217.072 145.698 218.008 148.242 218.968L148.698 219.136C151.242 220.048 151.986 220.576 151.986 221.848C151.986 223.312 150.786 224.008 148.722 224.008C147.45 224.008 145.794 223.624 144.306 222.568L143.034 224.488C144.474 225.592 146.418 226.312 148.866 226.312ZM164.17 215.392V223.384C163.306 223.84 162.394 224.2 161.578 224.2C160.234 224.2 159.826 223.624 159.826 222.208V215.128L157.234 215.392V222.976C157.234 225.184 158.578 226.312 160.546 226.312C162.034 226.312 163.282 225.808 164.314 225.184L164.506 226H166.762V215.128L164.17 215.392ZM175.963 215.032C174.835 215.032 173.659 215.392 172.531 216.04V209.224L169.939 209.488V225.64C171.691 226.168 173.131 226.312 174.043 226.312C176.851 226.312 180.187 224.92 180.187 220.432C180.187 217.168 178.843 215.032 175.963 215.032ZM173.923 224.296C173.467 224.296 173.011 224.248 172.531 224.152V217.816C173.611 217.312 174.475 217.12 175.147 217.12C176.827 217.12 177.475 218.224 177.475 220.384C177.475 223.288 175.891 224.296 173.923 224.296ZM188.884 215.032C187.492 215.032 186.22 215.488 185.188 216.064V209.224L182.596 209.488V226H185.188V217.84C186.076 217.384 187.012 217.12 187.852 217.12C189.148 217.12 189.58 217.624 189.58 219.184V226H192.172V218.296C192.172 215.992 190.9 215.032 188.884 215.032ZM199.741 215.032C197.821 215.032 196.237 215.632 194.749 216.664L195.805 218.32C197.101 217.48 198.277 217.096 199.357 217.096C200.677 217.096 201.085 217.696 201.085 219.04V219.448C197.413 219.544 194.269 220.696 194.269 223.408C194.269 225.16 195.565 226.312 197.509 226.312C198.733 226.312 199.981 226.024 201.229 225.112L201.421 226H203.677V218.56C203.677 216.04 202.285 215.032 199.741 215.032ZM196.981 223.12C196.981 221.944 198.589 221.296 201.085 221.176V223.48C200.101 224.056 199.213 224.296 198.349 224.296C197.461 224.296 196.981 223.888 196.981 223.12ZM213.072 215.032C211.656 215.032 210.36 215.56 209.328 216.16V215.128L206.736 215.392V226H209.328V217.864C210.24 217.408 211.2 217.12 212.04 217.12C213.312 217.12 213.744 217.624 213.744 219.184V226H216.336V218.344C216.336 215.992 215.064 215.032 213.072 215.032ZM223.929 215.032C222.009 215.032 220.425 215.632 218.937 216.664L219.993 218.32C221.289 217.48 222.465 217.096 223.545 217.096C224.865 217.096 225.273 217.696 225.273 219.04V219.448C221.601 219.544 218.457 220.696 218.457 223.408C218.457 225.16 219.753 226.312 221.697 226.312C222.921 226.312 224.169 226.024 225.417 225.112L225.609 226H227.865V218.56C227.865 216.04 226.473 215.032 223.929 215.032ZM221.169 223.12C221.169 221.944 222.777 221.296 225.273 221.176V223.48C224.289 224.056 223.401 224.296 222.537 224.296C221.649 224.296 221.169 223.888 221.169 223.12ZM230.924 226H233.516V209.224L230.924 209.488V226ZM236.666 226H239.258V209.224L236.666 209.488V226ZM246.944 215.032C245.024 215.032 243.44 215.632 241.952 216.664L243.008 218.32C244.304 217.48 245.48 217.096 246.56 217.096C247.88 217.096 248.288 217.696 248.288 219.04V219.448C244.616 219.544 241.472 220.696 241.472 223.408C241.472 225.16 242.768 226.312 244.712 226.312C245.936 226.312 247.184 226.024 248.432 225.112L248.624 226H250.88V218.56C250.88 216.04 249.488 215.032 246.944 215.032ZM244.184 223.12C244.184 221.944 245.792 221.296 248.288 221.176V223.48C247.304 224.056 246.416 224.296 245.552 224.296C244.664 224.296 244.184 223.888 244.184 223.12ZM260.227 215.032C258.835 215.032 257.563 215.488 256.531 216.064V209.224L253.939 209.488V226H256.531V217.84C257.419 217.384 258.355 217.12 259.195 217.12C260.491 217.12 260.923 217.624 260.923 219.184V226H263.515V218.296C263.515 215.992 262.243 215.032 260.227 215.032Z" fill="white"/>
<g clip-path="url(#clip1_56_266)">
<path d="M205.72 662.933C100.53 660.253 85.7823 603.635 85.7823 603.635C85.7823 603.635 76.0175 581.122 87.2638 544.002C91.1024 531.339 91.7758 517.871 88.8801 504.94C81.5397 471.907 63.9631 438.271 61 379.242C61 276.191 205.72 278 205.72 278C205.72 278 346.468 274.181 353 377.634C353.606 441.086 337.376 474.252 329.901 501.656C326.265 515.057 326.399 529.128 329.767 542.595C339.801 582.462 330.844 605.712 330.844 605.712C330.844 605.712 310.911 665.546 205.72 662.933Z" fill="url(#paint2_linear_56_266)"/>
<path d="M205.788 657.908C103.292 655.295 88.9474 599.414 88.9474 599.414C88.9474 599.414 79.452 577.169 90.429 540.518C94.2002 527.989 94.8063 514.722 91.9779 501.924C84.8395 469.428 67.667 436.261 64.7712 377.902C64.7712 276.258 205.788 278.067 205.788 278.067C205.788 278.067 342.899 274.248 349.229 376.428C349.768 439.076 334.009 471.773 326.736 498.842C323.167 512.042 323.369 525.979 326.601 539.245C336.366 578.576 327.612 601.558 327.612 601.558C327.612 601.558 308.217 660.521 205.788 657.908Z" fill="url(#paint3_linear_56_266)"/>
<path d="M205.788 654.089C107.332 651.609 93.4594 597.739 93.4594 597.739C93.4594 597.739 84.3681 576.298 94.8736 540.987C98.4428 528.927 99.0489 516.129 96.3552 503.868C89.4862 472.51 72.9871 440.55 70.226 384.401C70.2934 286.442 205.788 288.184 205.788 288.184C205.788 288.184 337.511 284.499 343.639 382.927C344.178 443.297 329.026 474.788 322.022 500.852C318.588 513.583 318.722 526.984 321.887 539.781C331.248 577.705 322.898 599.816 322.898 599.816C322.898 599.816 304.311 656.568 205.788 654.089Z" fill="url(#paint4_linear_56_266)"/>
<path d="M205.855 654.089C144.708 654.089 98.7795 598.275 106.861 547.219C108.814 534.957 104.638 517.804 102.079 505.677C95.5471 474.721 79.9234 443.096 77.2971 387.617C77.2971 290.865 205.855 292.54 205.855 292.54C205.855 292.54 330.911 288.921 336.636 386.143C337.174 445.776 322.763 476.865 316.163 502.661C312.931 515.258 307.611 529.329 310.641 541.992C319.53 579.38 288.149 654.089 205.855 654.089Z" fill="#FCDDEC"/>
<path d="M301.482 436.395H115.279C107.736 436.395 101.608 430.231 101.608 422.794V362.29C101.608 354.786 107.804 348.688 115.279 348.688H301.482C309.025 348.688 315.153 354.853 315.153 362.29V422.727C315.22 430.231 309.025 436.395 301.482 436.395Z" fill="url(#paint5_linear_56_266)"/>
<path d="M295.287 429.762H121.474C114.807 429.762 109.285 424.335 109.285 417.635V367.382C109.285 360.749 114.74 355.255 121.474 355.255H295.354C302.021 355.255 307.543 360.682 307.543 367.382V417.635C307.476 424.268 302.021 429.762 295.287 429.762Z" fill="#F2F2F2"/>
<path d="M269.494 529.061C258.585 505.61 234.678 489.328 207 489.328C178.851 489.328 154.607 506.146 143.967 530.267C124.774 528.257 111.911 525.51 105.783 524.036C107.13 532.143 107.938 540.451 106.861 547.219C98.7795 598.275 144.775 654.089 205.855 654.089C288.149 654.089 319.53 579.447 310.641 541.992C309.227 536.096 309.631 529.865 310.843 523.633C296.297 525.845 282.559 527.654 269.494 529.061Z" fill="#3D3FB8"/>
<path d="M207 617.304C239.172 617.304 265.252 591.355 265.252 559.346C265.252 527.337 239.172 501.388 207 501.388C174.828 501.388 148.748 527.337 148.748 559.346C148.748 591.355 174.828 617.304 207 617.304Z" fill="url(#paint6_linear_56_266)"/>
<path d="M207 601.558C230.431 601.558 249.426 582.659 249.426 559.346C249.426 536.033 230.431 517.134 207 517.134C183.569 517.134 164.574 536.033 164.574 559.346C164.574 582.659 183.569 601.558 207 601.558Z" fill="#FCDDEC"/>
<path d="M285.926 499.244C295.931 499.244 304.042 491.175 304.042 481.22C304.042 471.266 295.931 463.197 285.926 463.197C275.921 463.197 267.811 471.266 267.811 481.22C267.811 491.175 275.921 499.244 285.926 499.244Z" fill="url(#paint7_linear_56_266)"/>
<path d="M285.926 494.353C293.216 494.353 299.125 488.473 299.125 481.22C299.125 473.968 293.216 468.088 285.926 468.088C278.636 468.088 272.727 473.968 272.727 481.22C272.727 488.473 278.636 494.353 285.926 494.353Z" fill="#FCDDEC"/>
<path d="M150.051 371.357L143.567 377.903H131.347L124.863 371.357H150.051ZM150.051 415H124.863L131.347 408.516H143.567L150.051 415ZM130.1 398.478V407.269L123.616 413.753V396.857L126.048 394.425L130.1 398.478ZM123.616 389.5V372.604L130.1 379.088V387.879L126.048 391.994L123.616 389.5ZM151.236 396.857V413.753L144.752 407.269V398.478L148.804 394.425L151.236 396.857ZM144.752 387.879V379.088L151.236 372.604V389.5L148.804 391.994L144.752 387.879ZM184.945 371.357L178.461 377.903H166.241L159.757 371.357H184.945ZM184.945 415H159.757L166.241 408.516H178.461L184.945 415ZM164.994 398.478V407.269L158.51 413.753V396.857L160.941 394.425L164.994 398.478ZM158.51 389.5V372.604L164.994 379.088V387.879L160.941 391.994L158.51 389.5ZM186.13 396.857V413.753L179.645 407.269V398.478L183.698 394.425L186.13 396.857ZM179.645 387.879V379.088L186.13 372.604V389.5L183.698 391.994L179.645 387.879ZM219.839 371.357L213.355 377.903H201.135L194.65 371.357H219.839ZM219.839 415H194.65L201.135 408.516H213.355L219.839 415ZM199.888 398.478V407.269L193.404 413.753V396.857L195.835 394.425L199.888 398.478ZM193.404 389.5V372.604L199.888 379.088V387.879L195.835 391.994L193.404 389.5ZM221.023 396.857V413.753L214.539 407.269V398.478L218.592 394.425L221.023 396.857ZM214.539 387.879V379.088L221.023 372.604V389.5L218.592 391.994L214.539 387.879ZM254.732 371.357L248.248 377.903H236.028L229.544 371.357H254.732ZM254.732 415H229.544L236.028 408.516H248.248L254.732 415ZM234.781 398.478V407.269L228.297 413.753V396.857L230.729 394.425L234.781 398.478ZM249.433 387.879V379.088L255.917 372.604V389.5L253.485 391.994L249.433 387.879ZM249.059 389.936L252.301 393.179L249.059 396.421H235.218L231.976 393.179L235.218 389.936H249.059ZM289.626 371.357L283.142 377.903H270.922L264.438 371.357H289.626ZM289.626 415H264.438L270.922 408.516H283.142L289.626 415ZM290.811 396.857V413.753L284.327 407.269V398.478L288.379 394.425L290.811 396.857ZM284.327 387.879V379.088L290.811 372.604V389.5L288.379 391.994L284.327 387.879ZM283.952 389.936L287.195 393.179L283.952 396.421H270.111L266.869 393.179L270.111 389.936H283.952Z" fill="#3D3FB8"/>
</g>
</g>
<defs>
<linearGradient id="paint0_linear_56_266" x1="352.797" y1="404.005" x2="355.788" y2="1086.83" gradientUnits="userSpaceOnUse">
<stop stop-color="#E1ADFA"/>
<stop offset="1" stop-color="#FCB4B4"/>
</linearGradient>
<linearGradient id="paint1_linear_56_266" x1="-124.84" y1="1088" x2="617.599" y2="487.866" gradientUnits="userSpaceOnUse">
<stop stop-color="#FF9315"/>
<stop offset="1" stop-color="#FFF0CB"/>
<stop offset="1" stop-color="#FFF0CB"/>
</linearGradient>
<linearGradient id="paint2_linear_56_266" x1="269.375" y1="278.547" x2="271.592" y2="662.353" gradientUnits="userSpaceOnUse">
<stop stop-color="#E1ADFA"/>
<stop offset="1" stop-color="#FCB4B4"/>
</linearGradient>
<linearGradient id="paint3_linear_56_266" x1="69.4058" y1="657.992" x2="442.523" y2="432.178" gradientUnits="userSpaceOnUse">
<stop stop-color="#FF9315"/>
<stop offset="1" stop-color="#FFF0CB"/>
<stop offset="1" stop-color="#FFF0CB"/>
</linearGradient>
<linearGradient id="paint4_linear_56_266" x1="70.226" y1="288.167" x2="433.041" y2="503.692" gradientUnits="userSpaceOnUse">
<stop stop-color="#7D2DFF"/>
<stop offset="1" stop-color="#41DDFF"/>
</linearGradient>
<linearGradient id="paint5_linear_56_266" x1="101.608" y1="348.688" x2="182.344" y2="504.995" gradientUnits="userSpaceOnUse">
<stop stop-color="#7D2DFF"/>
<stop offset="1" stop-color="#41DDFF"/>
</linearGradient>
<linearGradient id="paint6_linear_56_266" x1="231.882" y1="501.559" x2="232.386" y2="617.106" gradientUnits="userSpaceOnUse">
<stop stop-color="#E1ADFA"/>
<stop offset="1" stop-color="#FCB4B4"/>
</linearGradient>
<linearGradient id="paint7_linear_56_266" x1="304.043" y1="464.323" x2="264.491" y2="494.909" gradientUnits="userSpaceOnUse">
<stop stop-color="#CCE0FF"/>
<stop offset="1" stop-color="#8A2EFF"/>
</linearGradient>
<clipPath id="clip0_56_266">
<rect width="414" height="807" fill="white"/>
</clipPath>
<clipPath id="clip1_56_266">
<rect width="292" height="385" fill="white" transform="translate(61 278)"/>
</clipPath>
</defs>
</svg>
