<svg width="226" height="77" viewBox="0 0 226 77" fill="none" xmlns="http://www.w3.org/2000/svg">
<path d="M3.68186 29.9388C3.68186 32.3544 3.62569 34.3486 3.54143 35.6968C3.45716 36.7922 3.17629 37.3259 2.61453 37.4102C2.30557 37.4663 2.10895 37.4944 1.74381 37.5225C1.43485 37.5225 1.21015 37.6068 1.21015 37.8034C1.21015 37.9438 1.29441 38.0843 1.7719 38.0843C2.55836 38.0843 2.9235 38.0562 3.70995 38.0281C4.49641 38 5.17051 38 5.84461 38C6.37828 38 7.52987 38.0843 8.62529 38.1966C9.55219 38.2809 10.5072 38.309 11.6307 38.309C17.2763 38.309 19.8604 36.3709 21.2367 34.9665C22.8377 33.4498 24.3263 30.6691 24.3263 27.2705C24.3263 23.9281 23.0624 21.5687 21.6299 20.1362C19.0739 17.5241 15.3102 16.9062 10.5072 16.8781C8.1478 16.9062 6.88386 16.9342 5.95697 16.9342C4.72111 16.9342 2.13704 16.85 1.43485 16.85C0.95736 16.85 0.788834 16.9342 0.788834 17.1028C0.788834 17.2432 0.901184 17.3836 1.3225 17.4117C1.85617 17.4679 2.13704 17.4679 2.36174 17.496C3.42907 17.6084 3.56951 18.3667 3.62569 19.1813C3.68186 20.0801 3.68186 20.8665 3.68186 24.9954V29.9388ZM8.65338 24.546C8.65338 22.2709 8.70956 20.2486 8.68147 19.2936C8.68147 19.0408 8.70956 18.9004 8.93426 18.788C9.18705 18.6476 9.83306 18.5633 10.451 18.5633C12.3048 18.5633 14.9731 19.097 16.9112 21.6249C18.0908 23.2259 19.0177 25.501 19.0177 28.057C19.0177 30.6972 18.6526 33.197 17.192 34.6576C15.7034 36.2024 14.0462 36.6237 12.0801 36.6237C10.8442 36.6237 9.69263 36.2305 9.18705 35.6125C8.87808 35.3036 8.76573 34.7418 8.70956 33.5902C8.68147 33.0566 8.65338 31.1185 8.65338 28.1412V24.546Z" fill="#26A2B3"/>
<path d="M33.0809 36.1462C36.002 31.4837 39.4287 26.0347 42.6307 20.7823C42.8835 20.3609 42.9396 20.1924 42.9396 19.9958C42.9396 19.8273 42.8273 19.7711 42.5745 19.7711H34.092C32.7157 19.7711 31.5361 19.7711 29.1486 19.6868C28.5588 19.6587 28.2779 19.5183 28.1094 19.5183C27.9408 19.5183 27.8566 19.6307 27.8004 19.9677C27.688 20.9508 27.2386 23.7596 27.2386 24.209C27.2386 24.5179 27.351 24.6303 27.4914 24.6303C27.688 24.6303 27.8285 24.4617 27.9127 24.1809C28.2498 23.0574 28.643 22.4394 29.289 22.1024C29.9351 21.7653 30.7777 21.653 32.8281 21.653H36.8446C33.7269 26.7088 30.1598 32.2701 27.1544 36.8484C26.8454 37.3259 26.7331 37.5506 26.7331 37.7191C26.7331 37.9157 26.9297 37.9719 27.1825 37.9719C33.2213 37.9719 37.3783 38.0843 41.5914 38.0843C42.097 38.0843 42.1813 37.7753 42.2655 37.4663C42.5745 36.5956 43.0239 34.2363 43.0239 33.5902C43.0239 33.2813 42.9396 33.1689 42.7992 33.1689C42.6307 33.1689 42.5183 33.2813 42.4341 33.5341C42.3779 33.7588 42.3217 34.0116 42.2094 34.2643C41.7319 35.6125 40.6926 36.1462 37.6592 36.1462H33.0809Z" fill="#26A2B3"/>
<path d="M47.6132 31.0062C47.6132 33.4217 47.5851 35.107 47.4446 36.1181C47.3885 36.8203 47.1638 37.3259 46.6301 37.4382C46.2931 37.4944 46.0403 37.4944 45.8156 37.5225C45.5347 37.5225 45.3942 37.6629 45.3942 37.8034C45.3942 38 45.5628 38.0843 45.9841 38.0843C46.7705 38.0843 49.6917 38 49.7478 38C49.8883 38 52.7813 38.0843 54.5227 38.0843C54.9441 38.0843 55.0564 37.9438 55.0564 37.8315C55.0564 37.691 54.9441 37.5225 54.5227 37.5225C54.2419 37.4944 53.8206 37.4944 53.4835 37.4102C52.7251 37.2416 52.5566 36.8203 52.5004 36.2024C52.3881 35.1631 52.36 32.86 52.36 31.0062V26.7368C52.36 22.945 52.36 22.3552 52.4443 21.5687C52.5566 20.7261 52.7813 20.4733 53.4554 20.3329C53.7363 20.2767 53.7644 20.2767 54.0172 20.2486C54.3261 20.2205 54.5227 20.1643 54.5227 19.9677C54.5227 19.7992 54.4666 19.6868 54.0172 19.6868C53.0622 19.6868 49.8883 19.7711 49.7478 19.7711C49.6636 19.7711 46.9672 19.6868 45.9841 19.6868C45.5066 19.6868 45.4223 19.8273 45.4223 19.9677C45.4223 20.1362 45.5628 20.2205 45.8998 20.2486C46.2369 20.2767 46.5178 20.3048 46.6863 20.3609C47.3042 20.4452 47.4727 20.8946 47.5289 21.5406C47.6132 22.299 47.6132 22.945 47.6132 26.7368V31.0062Z" fill="#26A2B3"/>
<path d="M64.7567 26.7368C64.7567 22.945 64.7567 22.5799 64.8129 21.7934C64.841 21.035 64.9253 20.4452 65.8522 20.3329C66.0488 20.3048 66.3016 20.2767 66.4701 20.2486C66.8071 20.2205 66.9476 20.1362 66.9476 19.9677C66.9476 19.7992 66.8914 19.6868 66.4139 19.6868C65.5432 19.6868 62.3412 19.7711 62.2008 19.7711C62.1165 19.7711 59.2235 19.6868 58.2404 19.6868C57.7348 19.6868 57.5944 19.7992 57.5944 19.9396C57.5944 20.1362 57.8191 20.2205 58.1 20.2486C58.3528 20.2767 58.6055 20.3048 59.0269 20.3609C59.7571 20.5014 59.9257 20.8946 59.9818 21.4844C60.0661 22.2709 60.0661 22.945 60.0661 26.7368V31.0062C60.0661 33.3936 60.0099 35.0227 59.8976 36.0339C59.8414 36.7361 59.7291 37.3259 58.8583 37.4382C58.5775 37.4944 58.5213 37.4944 58.2966 37.5225C57.9876 37.5506 57.791 37.6349 57.791 37.8315C57.791 38.0281 58.0157 38.0843 58.2966 38.0843C59.1111 38.0843 62.1446 38 62.2008 38C62.3412 38 65.2623 38.0843 67.0038 38.0843C67.3408 38.0843 67.4812 37.9438 67.4812 37.8034C67.4812 37.691 67.3689 37.5506 67.0599 37.5225C66.751 37.4944 66.3297 37.4944 65.9926 37.4382C65.0938 37.3259 64.8972 36.7361 64.841 36.1181C64.7567 35.107 64.7567 32.86 64.7567 31.0062V28.9839C66.5544 31.6522 68.998 35.0227 70.4866 36.4833C71.8068 37.7472 73.0145 38.0843 76.4131 38.0843H78.941C79.1938 38.0843 79.4466 38.0281 79.4466 37.8315C79.4466 37.6349 79.3342 37.5506 78.941 37.5225C78.4635 37.4382 78.1265 37.3821 77.6771 37.1293C77.2558 36.9046 76.6659 36.4833 75.3458 35.107C73.492 33.1408 69.4755 28.3098 68.5767 26.9054C69.2227 26.2313 71.891 23.5068 73.0426 22.4394C74.2504 21.3721 75.0649 20.6137 76.4131 20.389C76.694 20.3329 76.8906 20.3048 77.2277 20.2486C77.5366 20.2205 77.7052 20.1082 77.7052 19.9677C77.7052 19.7992 77.5928 19.7149 77.1434 19.7149C76.8344 19.7149 74.9526 19.7711 73.4077 19.7711C71.891 19.7711 71.8629 19.7149 70.7113 19.7149C70.4024 19.7149 70.2619 19.8273 70.2619 19.9677C70.2619 20.1362 70.4866 20.2205 70.7394 20.2486C71.3854 20.3609 71.4416 20.5295 71.4416 20.8103C71.4416 21.2036 70.936 21.8496 70.1777 22.6641C68.043 25.0235 66.2173 26.8211 64.7567 28.1693V26.7368Z" fill="#26A2B3"/>
<path d="M81.8725 31.0062C81.8725 33.4217 81.8444 35.107 81.7039 36.1181C81.6478 36.8203 81.423 37.3259 80.8894 37.4382C80.5523 37.4944 80.2995 37.4944 80.0748 37.5225C79.794 37.5225 79.6535 37.6629 79.6535 37.8034C79.6535 38 79.8221 38.0843 80.2434 38.0843C81.0298 38.0843 83.9509 38 84.0071 38C84.1476 38 87.0406 38.0843 88.782 38.0843C89.2033 38.0843 89.3157 37.9438 89.3157 37.8315C89.3157 37.691 89.2033 37.5225 88.782 37.5225C88.5011 37.4944 88.0798 37.4944 87.7428 37.4102C86.9844 37.2416 86.8159 36.8203 86.7597 36.2024C86.6474 35.1631 86.6193 32.86 86.6193 31.0062V26.7368C86.6193 22.945 86.6193 22.3552 86.7035 21.5687C86.8159 20.7261 87.0406 20.4733 87.7147 20.3329C87.9956 20.2767 88.0237 20.2767 88.2764 20.2486C88.5854 20.2205 88.782 20.1643 88.782 19.9677C88.782 19.7992 88.7258 19.6868 88.2764 19.6868C87.3215 19.6868 84.1476 19.7711 84.0071 19.7711C83.9229 19.7711 81.2264 19.6868 80.2434 19.6868C79.7659 19.6868 79.6816 19.8273 79.6816 19.9677C79.6816 20.1362 79.8221 20.2205 80.1591 20.2486C80.4962 20.2767 80.777 20.3048 80.9456 20.3609C81.5635 20.4452 81.732 20.8946 81.7882 21.5406C81.8724 22.299 81.8725 22.945 81.8725 26.7368V31.0062Z" fill="#26A2B3"/>
<path d="M94.3254 31.0062C94.3254 33.3936 94.2973 35.0227 94.1849 36.0339C94.1288 36.9046 93.9041 37.3259 93.3985 37.4382C93.1176 37.4944 92.7525 37.4944 92.5278 37.5225C92.2469 37.5225 92.0784 37.6349 92.0784 37.7753C92.0784 37.9438 92.1626 38.0843 92.5839 38.0843C93.3985 38.0843 96.0387 38 96.3196 38C96.46 38 99.4373 38.0843 101.151 38.0843C101.516 38.0843 101.628 37.9719 101.628 37.8315C101.628 37.691 101.628 37.5506 101.179 37.5225C100.87 37.4944 100.364 37.4663 100.027 37.354C99.2688 37.1574 99.1284 36.6518 99.0722 36.0339C99.016 35.3036 98.9598 34.1239 98.9598 32.2982V30.8096C98.9598 30.6691 99.0441 30.6129 99.1565 30.6129L100.842 30.641C100.982 30.641 101.095 30.6972 101.123 30.7815C101.6 31.5117 102.021 32.3263 103.201 34.2924C104.1 35.753 104.886 36.7361 105.617 37.2135C106.544 37.8034 107.751 38.0843 110.672 38.0843H112.863C113.088 38.0843 113.369 38.0562 113.369 37.8315C113.369 37.691 113.228 37.5506 112.976 37.5225C112.779 37.4944 112.554 37.4944 112.301 37.4382C111.515 37.3259 110.925 36.9608 109.633 35.4721C108.088 33.7588 106.291 31.0904 104.971 29.0681C107.021 27.748 108.313 26.2032 108.313 24.2932C108.313 22.3833 107.274 21.1755 105.926 20.5014C104.914 19.9396 103.173 19.6868 100.645 19.6868C99.3812 19.6868 96.7409 19.7711 96.3196 19.7711C96.0106 19.7711 93.4266 19.6868 92.4154 19.6868C91.9941 19.6868 91.9098 19.8273 91.9098 19.9677C91.9098 20.1082 92.0222 20.2486 92.3312 20.2486C92.5278 20.2767 92.7525 20.2767 93.2019 20.3609C93.7355 20.4171 94.1849 20.7542 94.2411 21.7934C94.2973 22.5799 94.3254 22.945 94.3254 26.7368V31.0062ZM98.9598 21.7653C98.9598 21.5687 99.016 21.5406 99.1284 21.4844C99.2688 21.4002 99.6901 21.4002 100.055 21.4002C101.319 21.4002 103.679 22.2147 103.679 25.6695C103.679 27.2424 103.257 28.2255 102.808 28.5625C102.415 28.8434 101.825 28.9558 101.263 28.9558C100.533 28.9558 99.662 28.8715 99.1845 28.6187C99.0722 28.5345 98.9598 28.4221 98.9598 28.2536V21.7653Z" fill="#26A2B3"/>
<path d="M128.855 38.4775C131.833 38.4775 133.771 37.4944 135.147 36.4271C136.776 37.6629 137.956 38.0281 140.484 38.0281C140.849 38.0281 144.865 38.0843 145.231 38.0843C145.792 38.0843 146.017 38 146.017 37.7753C146.017 37.5787 145.905 37.4663 145.455 37.4102C144.444 37.3259 143.77 36.9608 142.759 36.2867C142.029 35.8092 140.343 34.489 139.023 33.3094C140.989 31.2309 142.253 28.5064 142.225 26.7088C142.197 26.0347 141.888 25.8942 141.298 25.7819C140.399 25.6414 138.433 25.501 137.254 25.501C137.029 25.501 136.636 25.501 136.636 25.7538C136.636 25.9223 136.804 26.0066 137.141 26.0908C137.422 26.1189 137.872 26.2032 138.181 26.3998C138.602 26.6245 138.911 27.0177 138.911 27.748C138.911 29.4613 138.265 30.7815 137.478 32.0173C137.226 31.7645 133.743 28.3659 132.984 27.4952C130.485 24.6584 128.743 22.8607 128.743 20.6137C128.743 18.5352 130.147 18.0297 131.215 18.0297C132.507 18.0297 133.546 18.6757 134.108 19.3217C134.782 20.1082 135.035 20.8946 135.063 21.7653C135.063 22.1586 135.175 22.3271 135.344 22.3271C135.512 22.3271 135.625 22.1866 135.681 21.7653C135.765 20.8946 135.99 18.5352 135.99 17.9173C135.99 17.5241 135.877 17.2994 135.428 17.1028C134.613 16.7657 133.265 16.4568 131.524 16.4568C126.552 16.4568 124.193 19.1251 124.193 21.7934C124.193 22.8888 124.333 24.2651 125.513 25.9223C123.041 27.102 120.766 28.9839 120.766 32.0735C120.766 34.7137 122.48 38.4775 128.855 38.4775ZM130.737 35.9496C128.097 35.9496 125.766 33.843 125.766 30.3321C125.766 28.7592 126.187 27.8323 126.552 27.4109C128.827 30.2197 131.046 32.6633 133.743 35.1912C133.012 35.6406 131.973 35.9496 130.737 35.9496Z" fill="#26A2B3"/>
<path d="M157.341 29.9388C157.341 32.3544 157.285 34.3486 157.201 35.6968C157.116 36.7922 156.836 37.3259 156.274 37.4102C155.965 37.4663 155.768 37.4944 155.403 37.5225C155.094 37.5225 154.869 37.6068 154.869 37.8034C154.869 37.9438 154.954 38.0843 155.431 38.0843C156.218 38.0843 156.583 38.0562 157.369 38.0281C158.156 38 158.83 38 159.504 38C160.038 38 161.189 38.0843 162.285 38.1966C163.211 38.2809 164.166 38.309 165.29 38.309C170.936 38.309 173.52 36.3709 174.896 34.9665C176.497 33.4498 177.986 30.6691 177.986 27.2705C177.986 23.9281 176.722 21.5687 175.289 20.1362C172.733 17.5241 168.969 16.9062 164.166 16.8781C161.807 16.9062 160.543 16.9342 159.616 16.9342C158.38 16.9342 155.796 16.85 155.094 16.85C154.617 16.85 154.448 16.9342 154.448 17.1028C154.448 17.2432 154.56 17.3836 154.982 17.4117C155.515 17.4679 155.796 17.4679 156.021 17.496C157.088 17.6084 157.229 18.3667 157.285 19.1813C157.341 20.0801 157.341 20.8665 157.341 24.9954V29.9388ZM162.313 24.546C162.313 22.2709 162.369 20.2486 162.341 19.2936C162.341 19.0408 162.369 18.9004 162.594 18.788C162.846 18.6476 163.492 18.5633 164.11 18.5633C165.964 18.5633 168.632 19.097 170.57 21.6249C171.75 23.2259 172.677 25.501 172.677 28.057C172.677 30.6972 172.312 33.197 170.851 34.6576C169.363 36.2024 167.706 36.6237 165.739 36.6237C164.504 36.6237 163.352 36.2305 162.846 35.6125C162.537 35.3036 162.425 34.7418 162.369 33.5902C162.341 33.0566 162.313 31.1185 162.313 28.1412V24.546Z" fill="#26A2B3"/>
<path d="M192.139 38.4213C198.768 38.4213 202.728 34.1239 202.728 28.4221C202.728 23.6472 198.712 19.3498 192.308 19.3498C184.921 19.3498 181.438 23.9 181.438 28.9839C181.438 33.2813 184.668 38.4213 192.139 38.4213ZM192.813 36.7361C188.628 36.7361 186.831 32.2701 186.831 27.7761C186.831 22.0743 189.274 20.9789 191.437 20.9789C195.987 20.9789 197.336 25.838 197.336 29.5456C197.336 36.1462 194.358 36.7361 192.813 36.7361Z" fill="#26A2B3"/>
<path d="M215.679 33.4498C215.764 33.4498 215.876 33.506 215.904 33.5902L217.449 37.045C217.589 37.354 217.337 37.3821 217.112 37.4663C216.943 37.5225 216.775 37.5787 216.775 37.7472C216.775 37.8876 216.943 38 217.28 38C218.769 38.0281 221.69 38.0562 224.527 38.0843C224.808 38.0843 225.033 38 225.033 37.8034C225.033 37.6629 224.864 37.5225 224.555 37.5225C224.415 37.5225 224.218 37.4944 223.993 37.4663C223.038 37.3259 222.589 36.6799 221.718 34.8823C220.033 31.1747 215.679 22.0462 215.062 20.6699C214.584 19.7149 214.359 19.3498 214.078 19.3498C213.769 19.3498 213.489 19.7149 212.899 21.007L206.158 35.3878C205.427 37.045 204.781 37.3821 203.574 37.5225C203.265 37.5225 203.124 37.6349 203.124 37.8034C203.124 37.9719 203.237 38.0843 203.63 38.0843C204.838 38.0843 206.467 38 206.748 38C208.18 38 209.023 38.0843 210.259 38.0843C210.596 38.0843 210.736 37.9719 210.736 37.7753C210.736 37.6629 210.652 37.5506 210.287 37.5225C209.641 37.4663 208.573 37.4382 208.573 36.6237C208.573 36.3147 208.742 35.753 208.995 35.1351L209.584 33.7026C209.613 33.6183 209.697 33.4498 209.865 33.4498H215.679ZM210.652 31.2309C210.596 31.2309 210.539 31.2028 210.568 31.1185L212.646 26.1189C212.702 26.0066 212.702 25.9504 212.786 26.0908L215.005 31.1185C215.033 31.1747 215.033 31.2309 214.865 31.2309H210.652Z" fill="#26A2B3"/>
<path d="M43.8324 61.9577H40.3561V73H43.645C47.0531 73 49.7455 71.313 49.7455 67.4788C49.7455 63.355 47.3939 61.9577 43.8324 61.9577ZM43.3553 71.3471H42.2988V63.6106H43.8665C46.4056 63.6106 47.6666 64.7182 47.6666 67.4788C47.6666 70.6313 46.0477 71.3471 43.3553 71.3471Z" fill="#26A2B3"/>
<path d="M57.3106 65.451H51.2953L51.0908 67.0017H54.7375L50.8182 72.165V73H57.2936V71.4493H53.4424L57.3106 66.2519V65.451Z" fill="#26A2B3"/>
<path d="M59.7928 64.0877C60.4915 64.0877 61.0539 63.5424 61.0539 62.8779C61.0539 62.2133 60.4915 61.6509 59.7928 61.6509C59.1283 61.6509 58.5659 62.2133 58.5659 62.8779C58.5659 63.5424 59.1283 64.0877 59.7928 64.0877ZM58.9067 73H60.7471V65.2806L58.9067 65.468V73Z" fill="#26A2B3"/>
<path d="M66.835 68.9443L69.8001 65.5532V65.451H67.8063L64.8242 68.8762V61.0886L62.9838 61.276V73H64.8242V69.1318L67.7552 73H69.9535V72.8807L66.835 68.9443Z" fill="#26A2B3"/>
<path d="M72.1407 64.0877C72.8393 64.0877 73.4017 63.5424 73.4017 62.8779C73.4017 62.2133 72.8393 61.6509 72.1407 61.6509C71.4761 61.6509 70.9137 62.2133 70.9137 62.8779C70.9137 63.5424 71.4761 64.0877 72.1407 64.0877ZM71.2545 73H73.0949V65.2806L71.2545 65.468V73Z" fill="#26A2B3"/>
<path d="M79.3192 65.2124C78.4842 65.2124 77.7344 65.5873 77.172 66.3541V65.2806L75.3316 65.451V73H77.172V68.0923C77.7855 67.2062 78.3819 67.0358 78.9613 67.0358C79.3873 67.0358 79.7111 67.138 80.0008 67.2403L80.3075 65.3658C79.9667 65.2635 79.677 65.2124 79.3192 65.2124Z" fill="#26A2B3"/>
<path d="M89.586 61.9577H85.82V73H87.7627V69.0977H89.4838C92.3807 69.0977 93.778 67.4448 93.778 65.3999C93.778 63.4061 92.4148 61.9577 89.586 61.9577ZM89.3134 67.4959H87.7627V63.5595H89.5519C91.0004 63.5595 91.7672 64.207 91.7672 65.468C91.7672 66.8483 90.9152 67.4959 89.3134 67.4959Z" fill="#26A2B3"/>
<path d="M98.3055 65.2124C96.9422 65.2124 95.8176 65.6384 94.761 66.3712L95.5108 67.547C96.431 66.9506 97.266 66.6779 98.0328 66.6779C98.9701 66.6779 99.2598 67.1039 99.2598 68.0582V68.3479C96.6525 68.4161 94.4202 69.234 94.4202 71.1596C94.4202 72.4036 95.3404 73.2215 96.7207 73.2215C97.5898 73.2215 98.4759 73.017 99.362 72.3695L99.4983 73H101.1V67.7174C101.1 65.9281 100.112 65.2124 98.3055 65.2124ZM96.3458 70.9551C96.3458 70.1201 97.4875 69.66 99.2598 69.5748V71.2107C98.5611 71.6197 97.9306 71.7901 97.3171 71.7901C96.6866 71.7901 96.3458 71.5004 96.3458 70.9551Z" fill="#26A2B3"/>
<path d="M107.635 71.6367L106.459 71.5345C105.419 71.4493 105.147 71.313 105.147 71.0062C105.147 70.887 105.181 70.7336 105.3 70.5802C105.624 70.6313 105.965 70.6654 106.34 70.6654C108.163 70.6654 109.901 69.9838 109.901 68.0241C109.901 67.2403 109.594 66.5757 108.981 66.0985L110.651 65.6725L110.072 64.207L107.464 65.2976C107.175 65.2465 106.851 65.2124 106.476 65.2124C104.619 65.2124 102.88 65.9793 102.88 67.973C102.88 68.9102 103.289 69.7282 104.175 70.2053C103.562 70.6484 103.323 71.0403 103.323 71.4834C103.323 71.8583 103.511 72.165 103.818 72.4036C103.153 72.7955 102.608 73.3238 102.608 74.244C102.608 75.7606 104.278 76.3911 106.391 76.3911C109.032 76.3911 110.668 75.3346 110.668 73.7157C110.668 72.2843 109.543 71.8072 107.635 71.6367ZM106.391 66.5586C107.481 66.5586 108.061 67.0869 108.061 67.9901C108.061 68.7569 107.686 69.3363 106.442 69.3363C105.266 69.3363 104.738 68.825 104.738 67.956C104.738 67.121 105.232 66.5586 106.391 66.5586ZM106.425 75.0449C104.874 75.0449 104.346 74.6529 104.346 73.9713C104.346 73.5964 104.55 73.1874 104.857 72.8466C105.13 72.9148 105.436 72.9659 105.76 73L106.868 73.0852C108.197 73.2045 108.691 73.426 108.691 73.9713C108.691 74.7381 107.669 75.0449 106.425 75.0449Z" fill="#26A2B3"/>
<path d="M112.862 64.0877C113.56 64.0877 114.123 63.5424 114.123 62.8779C114.123 62.2133 113.56 61.6509 112.862 61.6509C112.197 61.6509 111.635 62.2133 111.635 62.8779C111.635 63.5424 112.197 64.0877 112.862 64.0877ZM111.976 73H113.816V65.2806L111.976 65.468V73Z" fill="#26A2B3"/>
<path d="M130.237 71.9776L128.533 70.5632C129.164 69.8304 129.675 68.9784 130.084 68.1264L128.465 67.4448C128.141 68.1605 127.749 68.8932 127.289 69.5407L124.409 67.1551C125.534 66.4734 126.557 65.6896 126.557 64.207C126.557 62.6563 125.227 61.7361 123.438 61.7361C121.461 61.7361 120.337 63.0483 120.337 64.4626C120.337 65.3828 120.712 66.0474 121.785 67.0358C120.644 67.7515 119.621 68.6546 119.621 70.2905C119.621 72.182 121.172 73.2215 123.251 73.2215C124.835 73.2215 126.199 72.6421 127.306 71.756L129.045 73.2215L130.237 71.9776ZM122.143 64.4626C122.143 63.781 122.518 63.1505 123.455 63.1505C124.256 63.1505 124.75 63.6447 124.75 64.2922C124.75 65.1272 124.086 65.6725 123.251 66.1837C122.399 65.3999 122.143 64.9909 122.143 64.4626ZM123.506 71.6708C122.16 71.6708 121.547 70.921 121.547 70.1542C121.547 69.1999 122.143 68.5694 122.927 68.0412L126.148 70.7677C125.432 71.313 124.58 71.6708 123.506 71.6708Z" fill="#26A2B3"/>
<path d="M139.476 61.9577H135.71V73H137.653V69.0977H139.374C142.271 69.0977 143.668 67.4448 143.668 65.3999C143.668 63.4061 142.305 61.9577 139.476 61.9577ZM139.204 67.4959H137.653V63.5595H139.442C140.891 63.5595 141.658 64.207 141.658 65.468C141.658 66.8483 140.806 67.4959 139.204 67.4959Z" fill="#26A2B3"/>
<path d="M151.4 68.4501C151.4 66.6268 150.292 65.2124 148.128 65.2124C145.708 65.2124 144.43 66.9506 144.43 69.3192C144.43 72.182 146.134 73.2215 148.196 73.2215C149.457 73.2215 150.479 72.7955 151.212 72.2843L150.565 71.0914C149.815 71.5175 149.218 71.7731 148.332 71.7731C147.293 71.7731 146.356 71.1937 146.27 69.5919H151.348C151.383 69.1829 151.4 68.7398 151.4 68.4501ZM148.145 66.5416C149.014 66.5416 149.627 67.0358 149.627 68.2627V68.3138H146.356C146.543 67.2232 147.105 66.5416 148.145 66.5416Z" fill="#26A2B3"/>
<path d="M157.36 71.4493C156.934 71.6197 156.61 71.722 156.235 71.722C155.655 71.722 155.332 71.3641 155.332 70.5121V66.8995H157.496L157.683 65.451H155.332V63.4743L153.491 63.7469V65.451H152.043V66.8995H153.491V70.8018C153.491 72.5058 154.548 73.2215 155.826 73.2215C156.746 73.2215 157.411 72.9489 157.871 72.7103L157.36 71.4493Z" fill="#26A2B3"/>
<path d="M162.424 65.2124C161.061 65.2124 159.936 65.6384 158.88 66.3712L159.63 67.547C160.55 66.9506 161.385 66.6779 162.152 66.6779C163.089 66.6779 163.378 67.1039 163.378 68.0582V68.3479C160.771 68.4161 158.539 69.234 158.539 71.1596C158.539 72.4036 159.459 73.2215 160.839 73.2215C161.709 73.2215 162.595 73.017 163.481 72.3695L163.617 73H165.219V67.7174C165.219 65.9281 164.231 65.2124 162.424 65.2124ZM160.465 70.9551C160.465 70.1201 161.606 69.66 163.378 69.5748V71.2107C162.68 71.6197 162.049 71.7901 161.436 71.7901C160.805 71.7901 160.465 71.5004 160.465 70.9551Z" fill="#26A2B3"/>
<path d="M171.89 65.2124C170.884 65.2124 169.964 65.5873 169.231 66.0133V65.2806L167.391 65.468V73H169.231V67.2232C169.879 66.8994 170.561 66.695 171.157 66.695C172.06 66.695 172.367 67.0528 172.367 68.1605V73H174.207V67.564C174.207 65.8941 173.304 65.2124 171.89 65.2124Z" fill="#26A2B3"/>
<path d="M180.74 71.6367L179.564 71.5345C178.524 71.4493 178.252 71.313 178.252 71.0062C178.252 70.887 178.286 70.7336 178.405 70.5802C178.729 70.6313 179.07 70.6654 179.445 70.6654C181.268 70.6654 183.006 69.9838 183.006 68.0241C183.006 67.2403 182.699 66.5757 182.086 66.0985L183.756 65.6725L183.177 64.207L180.569 65.2976C180.28 65.2465 179.956 65.2124 179.581 65.2124C177.724 65.2124 175.985 65.9793 175.985 67.973C175.985 68.9102 176.394 69.7282 177.28 70.2053C176.667 70.6484 176.428 71.0403 176.428 71.4834C176.428 71.8583 176.616 72.165 176.923 72.4036C176.258 72.7955 175.713 73.3238 175.713 74.244C175.713 75.7606 177.383 76.3911 179.496 76.3911C182.137 76.3911 183.773 75.3346 183.773 73.7157C183.773 72.2843 182.648 71.8072 180.74 71.6367ZM179.496 66.5586C180.586 66.5586 181.166 67.0869 181.166 67.9901C181.166 68.7569 180.791 69.3363 179.547 69.3363C178.371 69.3363 177.843 68.825 177.843 67.956C177.843 67.121 178.337 66.5586 179.496 66.5586ZM179.53 75.0449C177.979 75.0449 177.451 74.6529 177.451 73.9713C177.451 73.5964 177.655 73.1874 177.962 72.8466C178.235 72.9148 178.541 72.9659 178.865 73L179.973 73.0852C181.302 73.2045 181.796 73.426 181.796 73.9713C181.796 74.7381 180.774 75.0449 179.53 75.0449Z" fill="#26A2B3"/>
<path d="M38 1H185" stroke="#26A2B3"/>
<path d="M38 51H185" stroke="#26A2B3"/>
</svg>
