<svg width="176" height="112" viewBox="0 0 176 112" fill="none" xmlns="http://www.w3.org/2000/svg">
<rect width="176" height="112" rx="8" fill="url(#paint0_linear_143_460)"/>
<g clip-path="url(#clip0_143_460)">
<path fill-rule="evenodd" clip-rule="evenodd" d="M149.096 13C149.798 13 150.486 13.0413 151.161 13.1238C144.197 14.0317 138.817 19.9743 138.817 27.1824C138.817 35.0095 145.161 41.3647 153.005 41.3647C160.216 41.3647 166.161 35.9862 167.069 29.0257C167.151 29.6997 167.193 30.4013 167.193 31.0891C167.193 41.0759 159.087 49.1781 149.096 49.1781C139.106 49.1781 131 41.0759 131 31.0891C131.014 21.1022 139.106 13 149.096 13Z" fill="url(#paint1_linear_143_460)"/>
<path opacity="0.5" fill-rule="evenodd" clip-rule="evenodd" d="M153.61 99C148.904 99 146.619 103.003 146.069 107.13C143.881 105.039 135.514 105.672 130.601 107.391C123.995 109.688 120.803 112.385 114.362 112.385H157.711H173V108.629C170.619 107.13 167.592 105.066 161.661 106.607C161.661 101.682 157.339 99 153.61 99Z" fill="white"/>
<path fill-rule="evenodd" clip-rule="evenodd" d="M33.4495 9.12839L33.2156 9.92623L32.4312 10.1601L33.2156 10.4077L33.4495 11.1918L33.6972 10.4077L34.4816 10.1601L33.6972 9.92623L33.4495 9.12839Z" fill="#FFCE3D"/>
<path fill-rule="evenodd" clip-rule="evenodd" d="M65.8165 10.1601L65.4587 11.3431L64.2752 11.7008L65.4587 12.0584L65.8165 13.2414L66.1881 12.0584L67.3578 11.7008L66.1881 11.3431L65.8165 10.1601Z" fill="#FFCE3D"/>
<path fill-rule="evenodd" clip-rule="evenodd" d="M166.069 17.6021L165.656 18.9777L164.28 19.4041L165.656 19.8305L166.069 21.2061L166.495 19.8305L167.872 19.4041L166.495 18.9777L166.069 17.6021Z" fill="#FFCE3D"/>
<path fill-rule="evenodd" clip-rule="evenodd" d="M138.078 17.6021L137.83 18.3999L137.046 18.6338L137.83 18.8814L138.078 19.6655L138.312 18.8814L139.096 18.6338L138.312 18.3999L138.078 17.6021Z" fill="#FFCE3D"/>
<path fill-rule="evenodd" clip-rule="evenodd" d="M9.6284 21.7151L9.27061 22.8981L8.08712 23.2558L9.27061 23.6134L9.6284 24.7964L9.98619 23.6134L11.1697 23.2558L9.98619 22.8981L9.6284 21.7151Z" fill="#FFCE3D"/>
<path fill-rule="evenodd" clip-rule="evenodd" d="M3.72477 44.8251L2.94037 47.3837L0.380742 48.1678L2.94037 48.9519L3.72477 51.5105L4.50918 48.9519L7.05505 48.1678L4.50918 47.3837L3.72477 44.8251Z" fill="#FFCE3D"/>
<path fill-rule="evenodd" clip-rule="evenodd" d="M153.229 35.0721L152.569 37.2318L150.408 37.8921L152.569 38.5524L153.229 40.7258L153.89 38.5524L156.05 37.8921L153.89 37.2318L153.229 35.0721Z" fill="#FFCE3D"/>
<path fill-rule="evenodd" clip-rule="evenodd" d="M80.8211 83L80.1606 85.1597L78 85.82L80.1606 86.4803L80.8211 88.6537L81.4817 86.4803L83.6422 85.82L81.4817 85.1597L80.8211 83Z" fill="#FFCE3D"/>
<path fill-rule="evenodd" clip-rule="evenodd" d="M107.252 22.3616L106.826 23.7372L105.45 24.1499L106.826 24.5763L107.252 25.9519L107.665 24.5763L109.041 24.1499L107.665 23.7372L107.252 22.3616Z" fill="#FFCE3D"/>
<path fill-rule="evenodd" clip-rule="evenodd" d="M104.803 57L104.376 58.3756L103 58.7883L104.376 59.2147L104.803 60.5903L105.216 59.2147L106.592 58.7883L105.216 58.3756L104.803 57Z" fill="#FFCE3D"/>
<path fill-rule="evenodd" clip-rule="evenodd" d="M136.541 89L136.183 90.183L135 90.5407L136.183 90.9121L136.541 92.0813L136.899 90.9121L138.083 90.5407L136.899 90.183L136.541 89Z" fill="#FFCE3D"/>
<path fill-rule="evenodd" clip-rule="evenodd" d="M159.541 77L159.183 78.183L158 78.5407L159.183 78.9121L159.541 80.0813L159.899 78.9121L161.083 78.5407L159.899 78.183L159.541 77Z" fill="#FFCE3D"/>
<path fill-rule="evenodd" clip-rule="evenodd" d="M90.0917 6.56982L89.555 8.33058L87.7798 8.88082L89.555 9.4173L90.0917 11.1918L90.6422 9.4173L92.4036 8.88082L90.6422 8.33058L90.0917 6.56982Z" fill="#FFCE3D"/>
<path fill-rule="evenodd" clip-rule="evenodd" d="M115.665 83L115.28 84.2655L114 84.6645L115.28 85.0496L115.665 86.3289L116.064 85.0496L117.344 84.6645L116.064 84.2655L115.665 83Z" fill="#FFCE3D"/>
<path fill-rule="evenodd" clip-rule="evenodd" d="M122.665 97L122.28 98.2655L121 98.6645L122.28 99.0496L122.665 100.329L123.064 99.0496L124.344 98.6645L123.064 98.2655L122.665 97Z" fill="#FFCE3D"/>
<path fill-rule="evenodd" clip-rule="evenodd" d="M165.821 60.7544L165.395 62.1163L164.018 62.5427L165.395 62.9692L165.821 64.3447L166.234 62.9692L167.61 62.5427L166.234 62.1163L165.821 60.7544Z" fill="#FFCE3D"/>
<path fill-rule="evenodd" clip-rule="evenodd" d="M34.1651 91.6915L33.9174 92.4756L33.133 92.7095L33.9174 92.9571L34.1651 93.7412L34.3991 92.9571L35.1835 92.7095L34.3991 92.4756L34.1651 91.6915Z" fill="#FFCE3D"/>
<path fill-rule="evenodd" clip-rule="evenodd" d="M164.404 101.706L164.156 102.49L163.372 102.738L164.156 102.971L164.404 103.756L164.638 102.971L165.436 102.738L164.638 102.49L164.404 101.706Z" fill="#FFCE3D"/>
<path fill-rule="evenodd" clip-rule="evenodd" d="M128.817 71.4015L128.555 72.2819L127.661 72.557L128.555 72.8322L128.817 73.7125L129.092 72.8322L129.972 72.557L129.092 72.2819L128.817 71.4015Z" fill="#FFCE3D"/>
<path opacity="0.5" fill-rule="evenodd" clip-rule="evenodd" d="M31.5 100C36.3578 100 38.711 104.127 39.2752 108.391C41.5321 106.231 50.1743 106.892 55.2385 108.652C62.0505 111.019 65.3394 113.811 72 113.811H27.2752H-3.08257C-5.91743 113.811 2.31194 111.28 8.17432 111.28C11.6284 111.28 14.133 105.502 23.2018 107.841C23.1881 102.765 27.6468 100 31.5 100Z" fill="white"/>
<path opacity="0.5" fill-rule="evenodd" clip-rule="evenodd" d="M107.344 104C110.179 104 111.555 106.407 111.885 108.897C113.206 107.632 118.243 108.017 121.216 109.048C125.193 110.438 127.119 112.061 131 112.061H104.881H87.156C85.4908 112.061 90.3073 110.589 93.7202 110.589C95.7431 110.589 97.2018 107.219 102.486 108.581C102.5 105.623 105.101 104 107.344 104Z" fill="white"/>
<path fill-rule="evenodd" clip-rule="evenodd" d="M118.33 38L117.546 40.5448L115 41.3289L117.546 42.113L118.33 44.6716L119.115 42.113L121.674 41.3289L119.115 40.5448L118.33 38Z" fill="#FFCE3D"/>
<path fill-rule="evenodd" clip-rule="evenodd" d="M17.3303 70L16.5459 72.5448L14 73.3289L16.5459 74.113L17.3303 76.6716L18.1147 74.113L20.6743 73.3289L18.1147 72.5448L17.3303 70Z" fill="#FFCE3D"/>
<path fill-rule="evenodd" clip-rule="evenodd" d="M58.3027 106.328L58.1238 106.919L57.5321 107.098L58.1238 107.277L58.3027 107.869L58.4816 107.277L59.0734 107.098L58.4816 106.919L58.3027 106.328Z" fill="#FFCE3D"/>
<path fill-rule="evenodd" clip-rule="evenodd" d="M10.9083 90.536L10.4955 91.9116L9.11932 92.3381L10.4955 92.7508L10.9083 94.1263L11.3349 92.7508L12.7111 92.3381L11.3349 91.9116L10.9083 90.536Z" fill="#FFCE3D"/>
<path fill-rule="evenodd" clip-rule="evenodd" d="M146.555 60.2317L146.128 61.6073L144.752 62.0338L146.128 62.4602L146.555 63.8358L146.968 62.4602L148.344 62.0338L146.968 61.6073L146.555 60.2317Z" fill="#FFCE3D"/>
<path fill-rule="evenodd" clip-rule="evenodd" d="M120.803 7L120.376 8.37559L119 8.80203L120.376 9.22846L120.803 10.6041L121.216 9.22846L122.592 8.80203L121.216 8.37559L120.803 7Z" fill="#FFCE3D"/>
<path fill-rule="evenodd" clip-rule="evenodd" d="M46.8027 74L46.3761 75.3756L45 75.802L46.3761 76.2285L46.8027 77.6041L47.2156 76.2285L48.5917 75.802L47.2156 75.3756L46.8027 74Z" fill="#FFCE3D"/>
<path fill-rule="evenodd" clip-rule="evenodd" d="M84.9037 107.483L84.4771 108.859L83.1009 109.285L84.4771 109.698L84.9037 111.074L85.3165 109.698L86.6927 109.285L85.3165 108.859L84.9037 107.483Z" fill="#FFCE3D"/>
<path fill-rule="evenodd" clip-rule="evenodd" d="M58.8027 91L58.3761 92.3756L57 92.802L58.3761 93.2147L58.8027 94.5903L59.2156 93.2147L60.5917 92.802L59.2156 92.3756L58.8027 91Z" fill="#FFCE3D"/>
<path d="M21.62 19.04H17.54V32H21.4C25.4 32 28.56 30.02 28.56 25.52C28.56 20.68 25.8 19.04 21.62 19.04ZM21.06 30.06H19.82V20.98H21.66C24.64 20.98 26.12 22.28 26.12 25.52C26.12 29.22 24.22 30.06 21.06 30.06ZM39.6836 19.04H30.4636L30.2236 21H36.6236L29.8236 30.9V32H39.4636V30.04H32.9236L39.6836 20.14V19.04ZM42.0713 32H44.3513V19.04H42.0713V32ZM52.2823 25.2L57.7623 19.18V19.04H55.1823L49.7223 25.14V19.04H47.4423V32H49.7223V25.46L55.2423 32H58.0223V31.86L52.2823 25.2ZM59.747 32H62.027V19.04H59.747V32ZM71.3381 26.82C73.3181 26.24 74.2781 24.74 74.2781 22.96C74.2781 20.7 72.6781 19.04 69.3981 19.04H65.1181V32H67.3981V27.1H68.9581L72.4581 32H75.0381V31.86L71.3381 26.82ZM67.3981 20.92H69.3781C71.0181 20.92 71.9181 21.64 71.9181 23.04C71.9181 24.54 70.9181 25.3 69.1181 25.3H67.3981V20.92ZM21.96 37.04H17.54V50H19.82V45.42H21.84C25.24 45.42 26.88 43.48 26.88 41.08C26.88 38.74 25.28 37.04 21.96 37.04ZM21.64 43.54H19.82V38.92H21.92C23.62 38.92 24.52 39.68 24.52 41.16C24.52 42.78 23.52 43.54 21.64 43.54ZM31.2067 48.1V44.32H36.2267L36.4867 42.48H31.2067V38.92H37.2867V37.04H28.9267V50H37.3867V48.1H31.2067ZM49.5247 37.04H38.6247V39H42.9647V50H45.2447V39H49.5247V37.04ZM55.8527 37.04H53.0327L48.2727 49.86V50H50.6127L51.8127 46.56H57.0127L58.2327 50H60.6327V49.86L55.8527 37.04ZM52.4527 44.72L54.3927 39.16L56.3527 44.72H52.4527ZM71.3014 37.04V46.66C70.9814 45.98 70.5814 45.42 70.1414 44.76L64.9214 37.04H62.4814V50H64.7014V40.44C65.0814 41.3 65.5814 41.98 66.0214 42.64L71.0014 50H73.5014V37.04H71.3014ZM81.763 42.7L81.503 44.58H84.583V47.88C83.923 48.12 83.163 48.3 82.203 48.3C79.343 48.3 78.263 46.5 78.263 43.46C78.263 40.6 79.443 38.7 82.343 38.7C83.743 38.7 84.803 39.16 85.583 39.66L86.543 37.98C85.303 37.2 83.883 36.78 82.183 36.78C78.823 36.78 75.883 38.66 75.883 43.56C75.883 47.38 77.603 50.26 82.103 50.26C83.903 50.26 85.263 49.86 86.863 49.08V42.7H81.763Z" fill="white"/>
</g>
<defs>
<linearGradient id="paint0_linear_143_460" x1="176.005" y1="3.49827" x2="51.2904" y2="154.289" gradientUnits="userSpaceOnUse">
<stop stop-color="#4E0660"/>
<stop offset="0.9999"/>
<stop offset="1" stop-color="#8A2EFF"/>
</linearGradient>
<linearGradient id="paint1_linear_143_460" x1="127.468" y1="23.8676" x2="170.596" y2="38.7235" gradientUnits="userSpaceOnUse">
<stop stop-color="#FFCE40"/>
<stop offset="0.2442" stop-color="#FECA3E"/>
<stop offset="0.4734" stop-color="#FABF39"/>
<stop offset="0.6967" stop-color="#F3AC30"/>
<stop offset="0.915" stop-color="#EA9124"/>
<stop offset="1" stop-color="#E6851E"/>
</linearGradient>
<clipPath id="clip0_143_460">
<rect width="176" height="112" fill="white" transform="matrix(-1 0 0 1 176 0)"/>
</clipPath>
</defs>
</svg>
