<svg width="374" height="144" viewBox="0 0 374 144" fill="none" xmlns="http://www.w3.org/2000/svg">
<rect width="374" height="144" rx="16" fill="url(#paint0_linear_83_2)"/>
<mask id="mask0_83_2" style="mask-type:alpha" maskUnits="userSpaceOnUse" x="0" y="0" width="374" height="144">
<rect width="374" height="144" rx="16" fill="url(#paint1_linear_83_2)"/>
</mask>
<g mask="url(#mask0_83_2)">
<path opacity="0.75" d="M180.118 -0.625593C154.73 -39.4233 -36.4842 -25.6564 -18.8538 24.4052V173.026C-18.8538 175.633 58.72 189.191 68.7945 125.05C78.8691 60.9085 211.853 47.8716 180.118 -0.625593Z" fill="url(#paint2_linear_83_2)"/>
<g style="mix-blend-mode:color-burn" opacity="0.65">
<path d="M275.5 15.9999C243.9 -2.00006 247.333 -25.8334 253 -35.5001C290.5 -38.3334 366.1 -43.9001 368.5 -43.5001C371.5 -43.0001 411 -17.0001 417 -10.0001C423 -3.00006 401.5 164.5 395 169C388.5 173.5 295 182.5 293.5 180.5C292 178.5 329.5 112.5 329 85.9999C328.5 59.4999 315 38.4999 275.5 15.9999Z" fill="url(#paint3_linear_83_2)"/>
</g>
<g style="mix-blend-mode:lighten" opacity="0.52">
<circle cx="280" cy="148" r="68" fill="url(#paint4_linear_83_2)"/>
</g>
<g style="mix-blend-mode:hard-light">
<circle cx="107.5" cy="166.5" r="49.5" fill="url(#paint5_linear_83_2)"/>
</g>
<circle opacity="0.85" cx="10" cy="-26" r="68" fill="url(#paint6_linear_83_2)"/>
</g>
<path d="M106.644 82.7273V90H105.763V82.7273H106.644ZM109.134 86.7188V90H108.296V84.5455H109.106V85.3977H109.177C109.305 85.1207 109.499 84.8982 109.759 84.7301C110.02 84.5597 110.356 84.4744 110.768 84.4744C111.137 84.4744 111.46 84.5502 111.737 84.7017C112.014 84.8509 112.23 85.0781 112.384 85.3835C112.538 85.6866 112.615 86.0701 112.615 86.5341V90H111.776V86.5909C111.776 86.1624 111.665 85.8286 111.443 85.5895C111.22 85.348 110.915 85.2273 110.526 85.2273C110.259 85.2273 110.02 85.2853 109.809 85.4013C109.601 85.5173 109.436 85.6866 109.316 85.9091C109.195 86.1316 109.134 86.4015 109.134 86.7188ZM116.348 92.1591C115.943 92.1591 115.595 92.107 115.304 92.0028C115.012 91.901 114.77 91.7661 114.576 91.598C114.384 91.4323 114.231 91.2547 114.118 91.0653L114.785 90.5966C114.861 90.696 114.957 90.8097 115.073 90.9375C115.189 91.0677 115.347 91.1802 115.549 91.2749C115.752 91.3719 116.019 91.4205 116.348 91.4205C116.788 91.4205 117.151 91.3139 117.438 91.1009C117.724 90.8878 117.868 90.554 117.868 90.0994V88.9915H117.797C117.735 89.0909 117.647 89.214 117.534 89.3608C117.422 89.5052 117.261 89.6342 117.051 89.7479C116.842 89.8591 116.561 89.9148 116.206 89.9148C115.765 89.9148 115.37 89.8106 115.02 89.6023C114.672 89.3939 114.396 89.0909 114.192 88.6932C113.991 88.2955 113.89 87.8125 113.89 87.2443C113.89 86.6856 113.989 86.1991 114.185 85.7848C114.382 85.3681 114.655 85.0462 115.005 84.8189C115.356 84.5893 115.761 84.4744 116.22 84.4744C116.575 84.4744 116.857 84.5336 117.065 84.652C117.276 84.768 117.437 84.9006 117.548 85.0497C117.662 85.1965 117.749 85.3172 117.811 85.4119H117.896V84.5455H118.706V90.1562C118.706 90.625 118.599 91.0062 118.386 91.2997C118.175 91.5956 117.891 91.8123 117.534 91.9496C117.179 92.0893 116.783 92.1591 116.348 92.1591ZM116.319 89.1619C116.655 89.1619 116.94 89.085 117.172 88.9311C117.404 88.7772 117.58 88.5559 117.701 88.267C117.821 87.9782 117.882 87.6326 117.882 87.2301C117.882 86.8371 117.823 86.4903 117.704 86.1896C117.586 85.889 117.411 85.6534 117.179 85.483C116.947 85.3125 116.66 85.2273 116.319 85.2273C115.964 85.2273 115.668 85.3172 115.431 85.4972C115.197 85.6771 115.021 85.9186 114.902 86.2216C114.786 86.5246 114.728 86.8608 114.728 87.2301C114.728 87.6089 114.788 87.9439 114.906 88.2351C115.027 88.5239 115.204 88.7512 115.439 88.9169C115.675 89.0803 115.969 89.1619 116.319 89.1619ZM121.845 90.1278C121.499 90.1278 121.185 90.0627 120.904 89.9325C120.622 89.8 120.398 89.6094 120.233 89.3608C120.067 89.1098 119.984 88.8068 119.984 88.4517C119.984 88.1392 120.046 87.8859 120.169 87.6918C120.292 87.4953 120.456 87.3414 120.662 87.2301C120.868 87.1188 121.096 87.036 121.344 86.9815C121.595 86.9247 121.847 86.8797 122.1 86.8466C122.432 86.804 122.701 86.772 122.907 86.7507C123.115 86.727 123.266 86.688 123.361 86.6335C123.458 86.5791 123.507 86.4844 123.507 86.3494V86.321C123.507 85.9706 123.411 85.6984 123.219 85.5043C123.03 85.3101 122.742 85.2131 122.356 85.2131C121.956 85.2131 121.642 85.3007 121.415 85.4759C121.188 85.651 121.028 85.8381 120.936 86.0369L120.14 85.7528C120.282 85.4214 120.472 85.1634 120.708 84.9787C120.948 84.7917 121.208 84.6615 121.49 84.5881C121.774 84.5123 122.053 84.4744 122.328 84.4744C122.503 84.4744 122.704 84.4957 122.931 84.5384C123.161 84.5786 123.382 84.6626 123.596 84.7905C123.811 84.9183 123.99 85.1113 124.132 85.3693C124.274 85.6274 124.345 85.973 124.345 86.4062V90H123.507V89.2614H123.464C123.407 89.3797 123.313 89.5064 123.18 89.6413C123.047 89.7763 122.871 89.8911 122.651 89.9858C122.431 90.0805 122.162 90.1278 121.845 90.1278ZM121.973 89.375C122.304 89.375 122.583 89.3099 122.811 89.1797C123.04 89.0495 123.213 88.8814 123.329 88.6754C123.448 88.4695 123.507 88.2528 123.507 88.0256V87.2585C123.471 87.3011 123.393 87.3402 123.272 87.3757C123.154 87.4089 123.017 87.4384 122.86 87.4645C122.707 87.4882 122.556 87.5095 122.409 87.5284C122.265 87.545 122.148 87.5592 122.058 87.571C121.84 87.5994 121.636 87.6456 121.447 87.7095C121.26 87.7711 121.109 87.8646 120.993 87.9901C120.879 88.1132 120.822 88.2812 120.822 88.4943C120.822 88.7855 120.93 89.0057 121.145 89.1548C121.363 89.3016 121.639 89.375 121.973 89.375ZM128.247 84.5455V85.2557H125.42V84.5455H128.247ZM126.244 83.2386H127.082V88.4375C127.082 88.6742 127.116 88.8518 127.185 88.9702C127.256 89.0862 127.346 89.1643 127.455 89.2045C127.566 89.2424 127.683 89.2614 127.806 89.2614C127.899 89.2614 127.974 89.2566 128.034 89.2472C128.093 89.2353 128.14 89.2259 128.176 89.2188L128.346 89.9716C128.289 89.9929 128.21 90.0142 128.108 90.0355C128.006 90.0592 127.877 90.071 127.721 90.071C127.484 90.071 127.252 90.0201 127.025 89.9183C126.8 89.8165 126.613 89.6615 126.464 89.4531C126.317 89.2448 126.244 88.982 126.244 88.6648V83.2386ZM130.463 82.7273V90H129.624V82.7273H130.463ZM133.603 90.1278C133.257 90.1278 132.943 90.0627 132.662 89.9325C132.38 89.8 132.156 89.6094 131.99 89.3608C131.825 89.1098 131.742 88.8068 131.742 88.4517C131.742 88.1392 131.803 87.8859 131.926 87.6918C132.05 87.4953 132.214 87.3414 132.42 87.2301C132.626 87.1188 132.853 87.036 133.102 86.9815C133.353 86.9247 133.605 86.8797 133.858 86.8466C134.19 86.804 134.458 86.772 134.664 86.7507C134.873 86.727 135.024 86.688 135.119 86.6335C135.216 86.5791 135.265 86.4844 135.265 86.3494V86.321C135.265 85.9706 135.169 85.6984 134.977 85.5043C134.788 85.3101 134.5 85.2131 134.114 85.2131C133.714 85.2131 133.4 85.3007 133.173 85.4759C132.946 85.651 132.786 85.8381 132.694 86.0369L131.898 85.7528C132.04 85.4214 132.23 85.1634 132.466 84.9787C132.705 84.7917 132.966 84.6615 133.248 84.5881C133.532 84.5123 133.811 84.4744 134.086 84.4744C134.261 84.4744 134.462 84.4957 134.689 84.5384C134.919 84.5786 135.14 84.6626 135.353 84.7905C135.569 84.9183 135.748 85.1113 135.89 85.3693C136.032 85.6274 136.103 85.973 136.103 86.4062V90H135.265V89.2614H135.222C135.165 89.3797 135.07 89.5064 134.938 89.6413C134.805 89.7763 134.629 89.8911 134.409 89.9858C134.189 90.0805 133.92 90.1278 133.603 90.1278ZM133.73 89.375C134.062 89.375 134.341 89.3099 134.569 89.1797C134.798 89.0495 134.971 88.8814 135.087 88.6754C135.205 88.4695 135.265 88.2528 135.265 88.0256V87.2585C135.229 87.3011 135.151 87.3402 135.03 87.3757C134.912 87.4089 134.775 87.4384 134.618 87.4645C134.464 87.4882 134.314 87.5095 134.167 87.5284C134.023 87.545 133.906 87.5592 133.816 87.571C133.598 87.5994 133.394 87.6456 133.205 87.7095C133.018 87.7711 132.866 87.8646 132.75 87.9901C132.637 88.1132 132.58 88.2812 132.58 88.4943C132.58 88.7855 132.688 89.0057 132.903 89.1548C133.121 89.3016 133.397 89.375 133.73 89.375ZM138.47 86.7188V90H137.632V82.7273H138.47V85.3977H138.541C138.669 85.116 138.861 84.8923 139.117 84.7266C139.375 84.5585 139.718 84.4744 140.146 84.4744C140.518 84.4744 140.844 84.549 141.123 84.6982C141.402 84.8449 141.619 85.071 141.773 85.3764C141.929 85.6795 142.007 86.0653 142.007 86.5341V90H141.169V86.5909C141.169 86.1577 141.057 85.8227 140.832 85.5859C140.609 85.3468 140.3 85.2273 139.905 85.2273C139.63 85.2273 139.384 85.2853 139.166 85.4013C138.951 85.5173 138.78 85.6866 138.655 85.9091C138.532 86.1316 138.47 86.4015 138.47 86.7188ZM144.79 89.0057L144.734 89.3892C144.693 89.6591 144.632 89.9479 144.549 90.2557C144.469 90.5634 144.384 90.8535 144.297 91.1257C144.209 91.398 144.137 91.6146 144.08 91.7756H143.441C143.472 91.6241 143.512 91.424 143.562 91.1754C143.612 90.9268 143.661 90.6487 143.711 90.3409C143.763 90.0355 143.806 89.723 143.839 89.4034L143.881 89.0057H144.79ZM149.994 86.7188V90H149.156V82.7273H149.994V85.3977H150.065C150.193 85.116 150.384 84.8923 150.64 84.7266C150.898 84.5585 151.241 84.4744 151.67 84.4744C152.042 84.4744 152.367 84.549 152.646 84.6982C152.926 84.8449 153.142 85.071 153.296 85.3764C153.453 85.6795 153.531 86.0653 153.531 86.5341V90H152.693V86.5909C152.693 86.1577 152.58 85.8227 152.355 85.5859C152.133 85.3468 151.824 85.2273 151.428 85.2273C151.154 85.2273 150.908 85.2853 150.69 85.4013C150.474 85.5173 150.304 85.6866 150.178 85.9091C150.055 86.1316 149.994 86.4015 149.994 86.7188ZM156.669 90.1278C156.323 90.1278 156.01 90.0627 155.728 89.9325C155.446 89.8 155.223 89.6094 155.057 89.3608C154.891 89.1098 154.808 88.8068 154.808 88.4517C154.808 88.1392 154.87 87.8859 154.993 87.6918C155.116 87.4953 155.281 87.3414 155.487 87.2301C155.692 87.1188 155.92 87.036 156.168 86.9815C156.419 86.9247 156.671 86.8797 156.925 86.8466C157.256 86.804 157.525 86.772 157.731 86.7507C157.939 86.727 158.091 86.688 158.185 86.6335C158.282 86.5791 158.331 86.4844 158.331 86.3494V86.321C158.331 85.9706 158.235 85.6984 158.043 85.5043C157.854 85.3101 157.566 85.2131 157.18 85.2131C156.78 85.2131 156.467 85.3007 156.239 85.4759C156.012 85.651 155.852 85.8381 155.76 86.0369L154.964 85.7528C155.107 85.4214 155.296 85.1634 155.533 84.9787C155.772 84.7917 156.032 84.6615 156.314 84.5881C156.598 84.5123 156.877 84.4744 157.152 84.4744C157.327 84.4744 157.528 84.4957 157.756 84.5384C157.985 84.5786 158.207 84.6626 158.42 84.7905C158.635 84.9183 158.814 85.1113 158.956 85.3693C159.098 85.6274 159.169 85.973 159.169 86.4062V90H158.331V89.2614H158.288C158.232 89.3797 158.137 89.5064 158.004 89.6413C157.872 89.7763 157.695 89.8911 157.475 89.9858C157.255 90.0805 156.986 90.1278 156.669 90.1278ZM156.797 89.375C157.128 89.375 157.408 89.3099 157.635 89.1797C157.865 89.0495 158.037 88.8814 158.153 88.6754C158.272 88.4695 158.331 88.2528 158.331 88.0256V87.2585C158.295 87.3011 158.217 87.3402 158.097 87.3757C157.978 87.4089 157.841 87.4384 157.685 87.4645C157.531 87.4882 157.38 87.5095 157.234 87.5284C157.089 87.545 156.972 87.5592 156.882 87.571C156.664 87.5994 156.461 87.6456 156.271 87.7095C156.084 87.7711 155.933 87.8646 155.817 87.9901C155.703 88.1132 155.646 88.2812 155.646 88.4943C155.646 88.7855 155.754 89.0057 155.969 89.1548C156.187 89.3016 156.463 89.375 156.797 89.375ZM161.537 86.7188V90H160.699V84.5455H161.508V85.3977H161.579C161.707 85.1207 161.901 84.8982 162.162 84.7301C162.422 84.5597 162.758 84.4744 163.17 84.4744C163.54 84.4744 163.863 84.5502 164.14 84.7017C164.417 84.8509 164.632 85.0781 164.786 85.3835C164.94 85.6866 165.017 86.0701 165.017 86.5341V90H164.179V86.5909C164.179 86.1624 164.068 85.8286 163.845 85.5895C163.622 85.348 163.317 85.2273 162.929 85.2273C162.661 85.2273 162.422 85.2853 162.211 85.4013C162.003 85.5173 161.839 85.6866 161.718 85.9091C161.597 86.1316 161.537 86.4015 161.537 86.7188ZM166.893 92.0455C166.751 92.0455 166.624 92.0336 166.513 92.0099C166.402 91.9886 166.325 91.9673 166.282 91.946L166.495 91.2074C166.699 91.2595 166.879 91.2784 167.035 91.2642C167.191 91.25 167.33 91.1802 167.45 91.0547C167.573 90.9316 167.686 90.7315 167.788 90.4545L167.944 90.0284L165.927 84.5455H166.836L168.342 88.892H168.398L169.904 84.5455H170.813L168.498 90.7955C168.394 91.0772 168.265 91.3104 168.111 91.495C167.957 91.6821 167.778 91.8205 167.575 91.9105C167.373 92.0005 167.146 92.0455 166.893 92.0455ZM173.358 90.1278C173.013 90.1278 172.699 90.0627 172.417 89.9325C172.136 89.8 171.912 89.6094 171.746 89.3608C171.581 89.1098 171.498 88.8068 171.498 88.4517C171.498 88.1392 171.559 87.8859 171.682 87.6918C171.805 87.4953 171.97 87.3414 172.176 87.2301C172.382 87.1188 172.609 87.036 172.858 86.9815C173.109 86.9247 173.361 86.8797 173.614 86.8466C173.946 86.804 174.214 86.772 174.42 86.7507C174.629 86.727 174.78 86.688 174.875 86.6335C174.972 86.5791 175.02 86.4844 175.02 86.3494V86.321C175.02 85.9706 174.925 85.6984 174.733 85.5043C174.543 85.3101 174.256 85.2131 173.87 85.2131C173.47 85.2131 173.156 85.3007 172.929 85.4759C172.702 85.651 172.542 85.8381 172.449 86.0369L171.654 85.7528C171.796 85.4214 171.985 85.1634 172.222 84.9787C172.461 84.7917 172.722 84.6615 173.003 84.5881C173.287 84.5123 173.567 84.4744 173.841 84.4744C174.017 84.4744 174.218 84.4957 174.445 84.5384C174.675 84.5786 174.896 84.6626 175.109 84.7905C175.325 84.9183 175.503 85.1113 175.645 85.3693C175.787 85.6274 175.858 85.973 175.858 86.4062V90H175.02V89.2614H174.978C174.921 89.3797 174.826 89.5064 174.694 89.6413C174.561 89.7763 174.385 89.8911 174.165 89.9858C173.944 90.0805 173.676 90.1278 173.358 90.1278ZM173.486 89.375C173.818 89.375 174.097 89.3099 174.324 89.1797C174.554 89.0495 174.727 88.8814 174.843 88.6754C174.961 88.4695 175.02 88.2528 175.02 88.0256V87.2585C174.985 87.3011 174.907 87.3402 174.786 87.3757C174.668 87.4089 174.53 87.4384 174.374 87.4645C174.22 87.4882 174.07 87.5095 173.923 87.5284C173.779 87.545 173.662 87.5592 173.572 87.571C173.354 87.5994 173.15 87.6456 172.961 87.7095C172.774 87.7711 172.622 87.8646 172.506 87.9901C172.393 88.1132 172.336 88.2812 172.336 88.4943C172.336 88.7855 172.443 89.0057 172.659 89.1548C172.877 89.3016 173.153 89.375 173.486 89.375ZM182.26 90.1136C181.806 90.1136 181.404 89.9988 181.056 89.7692C180.708 89.5372 180.436 89.2105 180.24 88.7891C180.043 88.3653 179.945 87.8646 179.945 87.2869C179.945 86.714 180.043 86.2169 180.24 85.7955C180.436 85.3741 180.71 85.0485 181.06 84.8189C181.41 84.5893 181.815 84.4744 182.275 84.4744C182.63 84.4744 182.91 84.5336 183.116 84.652C183.324 84.768 183.483 84.9006 183.592 85.0497C183.703 85.1965 183.79 85.3172 183.851 85.4119H183.922V82.7273H184.76V90H183.951V89.1619H183.851C183.79 89.2614 183.702 89.3868 183.588 89.5384C183.475 89.6875 183.313 89.8213 183.102 89.9396C182.891 90.0556 182.611 90.1136 182.26 90.1136ZM182.374 89.3608C182.71 89.3608 182.994 89.2732 183.226 89.098C183.458 88.9205 183.635 88.6754 183.755 88.3629C183.876 88.0481 183.936 87.6847 183.936 87.2727C183.936 86.8655 183.877 86.5092 183.759 86.2038C183.641 85.8961 183.465 85.657 183.233 85.4865C183.001 85.3137 182.715 85.2273 182.374 85.2273C182.019 85.2273 181.723 85.3184 181.486 85.5007C181.252 85.6806 181.075 85.9257 180.957 86.2358C180.841 86.5436 180.783 86.8892 180.783 87.2727C180.783 87.661 180.842 88.0137 180.961 88.331C181.081 88.6458 181.259 88.8968 181.493 89.0838C181.73 89.2685 182.024 89.3608 182.374 89.3608ZM188.699 90.1136C188.173 90.1136 187.72 89.9976 187.338 89.7656C186.96 89.5312 186.667 89.2045 186.461 88.7855C186.258 88.3641 186.156 87.8741 186.156 87.3153C186.156 86.7566 186.258 86.2642 186.461 85.8381C186.667 85.4096 186.954 85.0758 187.321 84.8366C187.69 84.5952 188.121 84.4744 188.613 84.4744C188.897 84.4744 189.178 84.5218 189.455 84.6165C189.732 84.7112 189.984 84.8651 190.211 85.0781C190.439 85.2888 190.62 85.5682 190.755 85.9162C190.89 86.2642 190.957 86.6927 190.957 87.2017V87.5568H186.752V86.8324H190.105C190.105 86.5246 190.043 86.25 189.92 86.0085C189.799 85.767 189.627 85.5765 189.402 85.4368C189.179 85.2971 188.916 85.2273 188.613 85.2273C188.279 85.2273 187.991 85.3101 187.747 85.4759C187.505 85.6392 187.319 85.8523 187.189 86.1151C187.059 86.3778 186.994 86.6596 186.994 86.9602V87.4432C186.994 87.8551 187.065 88.2043 187.207 88.4908C187.351 88.7749 187.551 88.9915 187.807 89.1406C188.063 89.2874 188.36 89.3608 188.699 89.3608C188.919 89.3608 189.118 89.33 189.295 89.2685C189.475 89.2045 189.63 89.1098 189.76 88.9844C189.891 88.8565 189.991 88.6979 190.062 88.5085L190.872 88.7358C190.787 89.0104 190.643 89.2519 190.442 89.4602C190.241 89.6662 189.992 89.8272 189.696 89.9432C189.4 90.0568 189.068 90.1136 188.699 90.1136ZM193.07 86.7188V90H192.232V84.5455H193.042V85.3977H193.113C193.24 85.1207 193.435 84.8982 193.695 84.7301C193.955 84.5597 194.292 84.4744 194.703 84.4744C195.073 84.4744 195.396 84.5502 195.673 84.7017C195.95 84.8509 196.165 85.0781 196.319 85.3835C196.473 85.6866 196.55 86.0701 196.55 86.5341V90H195.712V86.5909C195.712 86.1624 195.601 85.8286 195.378 85.5895C195.156 85.348 194.85 85.2273 194.462 85.2273C194.194 85.2273 193.955 85.2853 193.745 85.4013C193.536 85.5173 193.372 85.6866 193.251 85.9091C193.13 86.1316 193.07 86.4015 193.07 86.7188ZM200.283 92.1591C199.878 92.1591 199.53 92.107 199.239 92.0028C198.948 91.901 198.705 91.7661 198.511 91.598C198.319 91.4323 198.167 91.2547 198.053 91.0653L198.721 90.5966C198.796 90.696 198.892 90.8097 199.008 90.9375C199.124 91.0677 199.283 91.1802 199.484 91.2749C199.688 91.3719 199.954 91.4205 200.283 91.4205C200.724 91.4205 201.087 91.3139 201.373 91.1009C201.66 90.8878 201.803 90.554 201.803 90.0994V88.9915H201.732C201.671 89.0909 201.583 89.214 201.469 89.3608C201.358 89.5052 201.197 89.6342 200.986 89.7479C200.778 89.8591 200.496 89.9148 200.141 89.9148C199.701 89.9148 199.305 89.8106 198.955 89.6023C198.607 89.3939 198.331 89.0909 198.128 88.6932C197.926 88.2955 197.826 87.8125 197.826 87.2443C197.826 86.6856 197.924 86.1991 198.121 85.7848C198.317 85.3681 198.59 85.0462 198.941 84.8189C199.291 84.5893 199.696 84.4744 200.155 84.4744C200.51 84.4744 200.792 84.5336 201.001 84.652C201.211 84.768 201.372 84.9006 201.483 85.0497C201.597 85.1965 201.685 85.3172 201.746 85.4119H201.831V84.5455H202.641V90.1562C202.641 90.625 202.535 91.0062 202.322 91.2997C202.111 91.5956 201.827 91.8123 201.469 91.9496C201.114 92.0893 200.719 92.1591 200.283 92.1591ZM200.255 89.1619C200.591 89.1619 200.875 89.085 201.107 88.9311C201.339 88.7772 201.515 88.5559 201.636 88.267C201.757 87.9782 201.817 87.6326 201.817 87.2301C201.817 86.8371 201.758 86.4903 201.64 86.1896C201.521 85.889 201.346 85.6534 201.114 85.483C200.882 85.3125 200.596 85.2273 200.255 85.2273C199.9 85.2273 199.604 85.3172 199.367 85.4972C199.133 85.6771 198.956 85.9186 198.838 86.2216C198.722 86.5246 198.664 86.8608 198.664 87.2301C198.664 87.6089 198.723 87.9439 198.841 88.2351C198.962 88.5239 199.14 88.7512 199.374 88.9169C199.611 89.0803 199.904 89.1619 200.255 89.1619ZM205.78 90.1278C205.435 90.1278 205.121 90.0627 204.839 89.9325C204.558 89.8 204.334 89.6094 204.168 89.3608C204.002 89.1098 203.92 88.8068 203.92 88.4517C203.92 88.1392 203.981 87.8859 204.104 87.6918C204.227 87.4953 204.392 87.3414 204.598 87.2301C204.804 87.1188 205.031 87.036 205.28 86.9815C205.531 86.9247 205.783 86.8797 206.036 86.8466C206.367 86.804 206.636 86.772 206.842 86.7507C207.05 86.727 207.202 86.688 207.297 86.6335C207.394 86.5791 207.442 86.4844 207.442 86.3494V86.321C207.442 85.9706 207.346 85.6984 207.155 85.5043C206.965 85.3101 206.678 85.2131 206.292 85.2131C205.892 85.2131 205.578 85.3007 205.351 85.4759C205.123 85.651 204.964 85.8381 204.871 86.0369L204.076 85.7528C204.218 85.4214 204.407 85.1634 204.644 84.9787C204.883 84.7917 205.144 84.6615 205.425 84.5881C205.709 84.5123 205.989 84.4744 206.263 84.4744C206.439 84.4744 206.64 84.4957 206.867 84.5384C207.097 84.5786 207.318 84.6626 207.531 84.7905C207.747 84.9183 207.925 85.1113 208.067 85.3693C208.209 85.6274 208.28 85.973 208.28 86.4062V90H207.442V89.2614H207.4C207.343 89.3797 207.248 89.5064 207.116 89.6413C206.983 89.7763 206.807 89.8911 206.586 89.9858C206.366 90.0805 206.098 90.1278 205.78 90.1278ZM205.908 89.375C206.24 89.375 206.519 89.3099 206.746 89.1797C206.976 89.0495 207.149 88.8814 207.265 88.6754C207.383 88.4695 207.442 88.2528 207.442 88.0256V87.2585C207.407 87.3011 207.329 87.3402 207.208 87.3757C207.09 87.4089 206.952 87.4384 206.796 87.4645C206.642 87.4882 206.492 87.5095 206.345 87.5284C206.201 87.545 206.083 87.5592 205.993 87.571C205.776 87.5994 205.572 87.6456 205.383 87.7095C205.196 87.7711 205.044 87.8646 204.928 87.9901C204.814 88.1132 204.758 88.2812 204.758 88.4943C204.758 88.7855 204.865 89.0057 205.081 89.1548C205.299 89.3016 205.574 89.375 205.908 89.375ZM210.648 86.7188V90H209.81V84.5455H210.62V85.3977H210.691C210.819 85.1207 211.013 84.8982 211.273 84.7301C211.533 84.5597 211.87 84.4744 212.282 84.4744C212.651 84.4744 212.974 84.5502 213.251 84.7017C213.528 84.8509 213.743 85.0781 213.897 85.3835C214.051 85.6866 214.128 86.0701 214.128 86.5341V90H213.29V86.5909C213.29 86.1624 213.179 85.8286 212.956 85.5895C212.734 85.348 212.428 85.2273 212.04 85.2273C211.773 85.2273 211.533 85.2853 211.323 85.4013C211.114 85.5173 210.95 85.6866 210.829 85.9091C210.708 86.1316 210.648 86.4015 210.648 86.7188ZM218.472 90V84.5455H219.282V85.3977H219.353C219.466 85.1065 219.65 84.8804 219.903 84.7195C220.157 84.5561 220.461 84.4744 220.816 84.4744C221.176 84.4744 221.475 84.5561 221.714 84.7195C221.956 84.8804 222.144 85.1065 222.279 85.3977H222.336C222.475 85.116 222.685 84.8923 222.964 84.7266C223.244 84.5585 223.579 84.4744 223.969 84.4744C224.457 84.4744 224.856 84.6271 225.166 84.9325C225.476 85.2356 225.631 85.7079 225.631 86.3494V90H224.793V86.3494C224.793 85.947 224.683 85.6593 224.463 85.4865C224.243 85.3137 223.983 85.2273 223.685 85.2273C223.302 85.2273 223.005 85.3433 222.794 85.5753C222.583 85.8049 222.478 86.0961 222.478 86.4489V90H221.626V86.2642C221.626 85.9541 221.525 85.7043 221.324 85.5149C221.122 85.3232 220.863 85.2273 220.546 85.2273C220.328 85.2273 220.125 85.2853 219.935 85.4013C219.748 85.5173 219.597 85.6783 219.481 85.8842C219.367 86.0878 219.31 86.3234 219.31 86.5909V90H218.472ZM229.45 90.1136C228.925 90.1136 228.472 89.9976 228.09 89.7656C227.712 89.5312 227.419 89.2045 227.213 88.7855C227.01 88.3641 226.908 87.8741 226.908 87.3153C226.908 86.7566 227.01 86.2642 227.213 85.8381C227.419 85.4096 227.706 85.0758 228.073 84.8366C228.442 84.5952 228.873 84.4744 229.365 84.4744C229.649 84.4744 229.93 84.5218 230.207 84.6165C230.484 84.7112 230.736 84.8651 230.963 85.0781C231.191 85.2888 231.372 85.5682 231.507 85.9162C231.642 86.2642 231.709 86.6927 231.709 87.2017V87.5568H227.504V86.8324H230.857C230.857 86.5246 230.795 86.25 230.672 86.0085C230.551 85.767 230.378 85.5765 230.154 85.4368C229.931 85.2971 229.668 85.2273 229.365 85.2273C229.031 85.2273 228.743 85.3101 228.499 85.4759C228.257 85.6392 228.071 85.8523 227.941 86.1151C227.811 86.3778 227.746 86.6596 227.746 86.9602V87.4432C227.746 87.8551 227.817 88.2043 227.959 88.4908C228.103 88.7749 228.303 88.9915 228.559 89.1406C228.815 89.2874 229.112 89.3608 229.45 89.3608C229.671 89.3608 229.869 89.33 230.047 89.2685C230.227 89.2045 230.382 89.1098 230.512 88.9844C230.642 88.8565 230.743 88.6979 230.814 88.5085L231.624 88.7358C231.539 89.0104 231.395 89.2519 231.194 89.4602C230.993 89.6662 230.744 89.8272 230.448 89.9432C230.152 90.0568 229.82 90.1136 229.45 90.1136ZM233.822 86.7188V90H232.984V84.5455H233.794V85.3977H233.865C233.992 85.1207 234.186 84.8982 234.447 84.7301C234.707 84.5597 235.044 84.4744 235.455 84.4744C235.825 84.4744 236.148 84.5502 236.425 84.7017C236.702 84.8509 236.917 85.0781 237.071 85.3835C237.225 85.6866 237.302 86.0701 237.302 86.5341V90H236.464V86.5909C236.464 86.1624 236.353 85.8286 236.13 85.5895C235.908 85.348 235.602 85.2273 235.214 85.2273C234.946 85.2273 234.707 85.2853 234.497 85.4013C234.288 85.5173 234.124 85.6866 234.003 85.9091C233.882 86.1316 233.822 86.4015 233.822 86.7188ZM241.035 92.1591C240.63 92.1591 240.282 92.107 239.991 92.0028C239.7 91.901 239.457 91.7661 239.263 91.598C239.071 91.4323 238.919 91.2547 238.805 91.0653L239.473 90.5966C239.548 90.696 239.644 90.8097 239.76 90.9375C239.876 91.0677 240.035 91.1802 240.236 91.2749C240.44 91.3719 240.706 91.4205 241.035 91.4205C241.475 91.4205 241.839 91.3139 242.125 91.1009C242.412 90.8878 242.555 90.554 242.555 90.0994V88.9915H242.484C242.422 89.0909 242.335 89.214 242.221 89.3608C242.11 89.5052 241.949 89.6342 241.738 89.7479C241.53 89.8591 241.248 89.9148 240.893 89.9148C240.453 89.9148 240.057 89.8106 239.707 89.6023C239.359 89.3939 239.083 89.0909 238.88 88.6932C238.678 88.2955 238.578 87.8125 238.578 87.2443C238.578 86.6856 238.676 86.1991 238.873 85.7848C239.069 85.3681 239.342 85.0462 239.693 84.8189C240.043 84.5893 240.448 84.4744 240.907 84.4744C241.262 84.4744 241.544 84.5336 241.752 84.652C241.963 84.768 242.124 84.9006 242.235 85.0497C242.349 85.1965 242.437 85.3172 242.498 85.4119H242.583V84.5455H243.393V90.1562C243.393 90.625 243.287 91.0062 243.074 91.2997C242.863 91.5956 242.579 91.8123 242.221 91.9496C241.866 92.0893 241.471 92.1591 241.035 92.1591ZM241.007 89.1619C241.343 89.1619 241.627 89.085 241.859 88.9311C242.091 88.7772 242.267 88.5559 242.388 88.267C242.509 87.9782 242.569 87.6326 242.569 87.2301C242.569 86.8371 242.51 86.4903 242.392 86.1896C242.273 85.889 242.098 85.6534 241.866 85.483C241.634 85.3125 241.348 85.2273 241.007 85.2273C240.652 85.2273 240.356 85.3172 240.119 85.4972C239.885 85.6771 239.708 85.9186 239.59 86.2216C239.474 86.5246 239.416 86.8608 239.416 87.2301C239.416 87.6089 239.475 87.9439 239.593 88.2351C239.714 88.5239 239.892 88.7512 240.126 88.9169C240.363 89.0803 240.656 89.1619 241.007 89.1619ZM244.927 90V84.5455H245.765V90H244.927ZM245.353 83.6364C245.19 83.6364 245.049 83.5807 244.931 83.4695C244.815 83.3582 244.757 83.2244 244.757 83.0682C244.757 82.9119 244.815 82.7782 244.931 82.6669C245.049 82.5556 245.19 82.5 245.353 82.5C245.517 82.5 245.656 82.5556 245.772 82.6669C245.891 82.7782 245.95 82.9119 245.95 83.0682C245.95 83.2244 245.891 83.3582 245.772 83.4695C245.656 83.5807 245.517 83.6364 245.353 83.6364ZM248.138 86.7188V90H247.3V84.5455H248.11V85.3977H248.181C248.309 85.1207 248.503 84.8982 248.763 84.7301C249.024 84.5597 249.36 84.4744 249.772 84.4744C250.141 84.4744 250.464 84.5502 250.741 84.7017C251.018 84.8509 251.234 85.0781 251.388 85.3835C251.541 85.6866 251.618 86.0701 251.618 86.5341V90H250.78V86.5909C250.78 86.1624 250.669 85.8286 250.447 85.5895C250.224 85.348 249.919 85.2273 249.53 85.2273C249.263 85.2273 249.024 85.2853 248.813 85.4013C248.605 85.5173 248.44 85.6866 248.319 85.9091C248.199 86.1316 248.138 86.4015 248.138 86.7188ZM255.352 92.1591C254.947 92.1591 254.599 92.107 254.308 92.0028C254.016 91.901 253.774 91.7661 253.58 91.598C253.388 91.4323 253.235 91.2547 253.121 91.0653L253.789 90.5966C253.865 90.696 253.961 90.8097 254.077 90.9375C254.193 91.0677 254.351 91.1802 254.553 91.2749C254.756 91.3719 255.022 91.4205 255.352 91.4205C255.792 91.4205 256.155 91.3139 256.442 91.1009C256.728 90.8878 256.871 90.554 256.871 90.0994V88.9915H256.8C256.739 89.0909 256.651 89.214 256.538 89.3608C256.426 89.5052 256.265 89.6342 256.055 89.7479C255.846 89.8591 255.565 89.9148 255.21 89.9148C254.769 89.9148 254.374 89.8106 254.023 89.6023C253.675 89.3939 253.4 89.0909 253.196 88.6932C252.995 88.2955 252.894 87.8125 252.894 87.2443C252.894 86.6856 252.992 86.1991 253.189 85.7848C253.385 85.3681 253.659 85.0462 254.009 84.8189C254.36 84.5893 254.764 84.4744 255.224 84.4744C255.579 84.4744 255.861 84.5336 256.069 84.652C256.28 84.768 256.441 84.9006 256.552 85.0497C256.665 85.1965 256.753 85.3172 256.815 85.4119H256.9V84.5455H257.71V90.1562C257.71 90.625 257.603 91.0062 257.39 91.2997C257.179 91.5956 256.895 91.8123 256.538 91.9496C256.183 92.0893 255.787 92.1591 255.352 92.1591ZM255.323 89.1619C255.659 89.1619 255.943 89.085 256.175 88.9311C256.407 88.7772 256.584 88.5559 256.705 88.267C256.825 87.9782 256.886 87.6326 256.886 87.2301C256.886 86.8371 256.826 86.4903 256.708 86.1896C256.59 85.889 256.415 85.6534 256.183 85.483C255.951 85.3125 255.664 85.2273 255.323 85.2273C254.968 85.2273 254.672 85.3172 254.435 85.4972C254.201 85.6771 254.025 85.9186 253.906 86.2216C253.79 86.5246 253.732 86.8608 253.732 87.2301C253.732 87.6089 253.791 87.9439 253.91 88.2351C254.031 88.5239 254.208 88.7512 254.442 88.9169C254.679 89.0803 254.973 89.1619 255.323 89.1619ZM260.849 90.1278C260.503 90.1278 260.189 90.0627 259.908 89.9325C259.626 89.8 259.402 89.6094 259.237 89.3608C259.071 89.1098 258.988 88.8068 258.988 88.4517C258.988 88.1392 259.049 87.8859 259.173 87.6918C259.296 87.4953 259.46 87.3414 259.666 87.2301C259.872 87.1188 260.099 87.036 260.348 86.9815C260.599 86.9247 260.851 86.8797 261.104 86.8466C261.436 86.804 261.705 86.772 261.911 86.7507C262.119 86.727 262.27 86.688 262.365 86.6335C262.462 86.5791 262.511 86.4844 262.511 86.3494V86.321C262.511 85.9706 262.415 85.6984 262.223 85.5043C262.034 85.3101 261.746 85.2131 261.36 85.2131C260.96 85.2131 260.646 85.3007 260.419 85.4759C260.192 85.651 260.032 85.8381 259.94 86.0369L259.144 85.7528C259.286 85.4214 259.476 85.1634 259.712 84.9787C259.951 84.7917 260.212 84.6615 260.494 84.5881C260.778 84.5123 261.057 84.4744 261.332 84.4744C261.507 84.4744 261.708 84.4957 261.935 84.5384C262.165 84.5786 262.386 84.6626 262.599 84.7905C262.815 84.9183 262.994 85.1113 263.136 85.3693C263.278 85.6274 263.349 85.973 263.349 86.4062V90H262.511V89.2614H262.468C262.411 89.3797 262.317 89.5064 262.184 89.6413C262.051 89.7763 261.875 89.8911 261.655 89.9858C261.435 90.0805 261.166 90.1278 260.849 90.1278ZM260.977 89.375C261.308 89.375 261.587 89.3099 261.815 89.1797C262.044 89.0495 262.217 88.8814 262.333 88.6754C262.451 88.4695 262.511 88.2528 262.511 88.0256V87.2585C262.475 87.3011 262.397 87.3402 262.276 87.3757C262.158 87.4089 262.021 87.4384 261.864 87.4645C261.71 87.4882 261.56 87.5095 261.413 87.5284C261.269 87.545 261.152 87.5592 261.062 87.571C260.844 87.5994 260.64 87.6456 260.451 87.7095C260.264 87.7711 260.112 87.8646 259.996 87.9901C259.883 88.1132 259.826 88.2812 259.826 88.4943C259.826 88.7855 259.934 89.0057 260.149 89.1548C260.367 89.3016 260.643 89.375 260.977 89.375ZM267.251 84.5455V85.2557H264.424V84.5455H267.251ZM265.248 83.2386H266.086V88.4375C266.086 88.6742 266.12 88.8518 266.189 88.9702C266.26 89.0862 266.35 89.1643 266.459 89.2045C266.57 89.2424 266.687 89.2614 266.81 89.2614C266.903 89.2614 266.978 89.2566 267.037 89.2472C267.097 89.2353 267.144 89.2259 267.18 89.2188L267.35 89.9716C267.293 89.9929 267.214 90.0142 267.112 90.0355C267.01 90.0592 266.881 90.071 266.725 90.071C266.488 90.071 266.256 90.0201 266.029 89.9183C265.804 89.8165 265.617 89.6615 265.468 89.4531C265.321 89.2448 265.248 88.982 265.248 88.6648V83.2386ZM268.511 90V84.5455H269.349V90H268.511ZM268.937 83.6364C268.774 83.6364 268.633 83.5807 268.515 83.4695C268.399 83.3582 268.341 83.2244 268.341 83.0682C268.341 82.9119 268.399 82.7782 268.515 82.6669C268.633 82.5556 268.774 82.5 268.937 82.5C269.101 82.5 269.24 82.5556 269.356 82.6669C269.475 82.7782 269.534 82.9119 269.534 83.0682C269.534 83.2244 269.475 83.3582 269.356 83.4695C269.24 83.5807 269.101 83.6364 268.937 83.6364ZM115.085 102H114.162L116.832 94.7273H117.741L120.412 102H119.489L117.315 95.8778H117.259L115.085 102ZM115.426 99.1591H119.148V99.9403H115.426V99.1591ZM122.269 94.7273V102H121.431V94.7273H122.269ZM124.642 94.7273V102H123.804V94.7273H124.642ZM127.782 102.128C127.437 102.128 127.123 102.063 126.841 101.933C126.56 101.8 126.336 101.609 126.17 101.361C126.004 101.11 125.922 100.807 125.922 100.452C125.922 100.139 125.983 99.8859 126.106 99.6918C126.229 99.4953 126.394 99.3414 126.6 99.2301C126.806 99.1188 127.033 99.036 127.282 98.9815C127.533 98.9247 127.785 98.8797 128.038 98.8466C128.369 98.804 128.638 98.772 128.844 98.7507C129.052 98.727 129.204 98.688 129.299 98.6335C129.396 98.5791 129.444 98.4844 129.444 98.3494V98.321C129.444 97.9706 129.348 97.6984 129.157 97.5043C128.967 97.3101 128.68 97.2131 128.294 97.2131C127.894 97.2131 127.58 97.3007 127.353 97.4759C127.125 97.651 126.966 97.8381 126.873 98.0369L126.078 97.7528C126.22 97.4214 126.409 97.1634 126.646 96.9787C126.885 96.7917 127.145 96.6615 127.427 96.5881C127.711 96.5123 127.991 96.4744 128.265 96.4744C128.44 96.4744 128.642 96.4957 128.869 96.5384C129.099 96.5786 129.32 96.6626 129.533 96.7905C129.748 96.9183 129.927 97.1113 130.069 97.3693C130.211 97.6274 130.282 97.973 130.282 98.4062V102H129.444V101.261H129.402C129.345 101.38 129.25 101.506 129.118 101.641C128.985 101.776 128.809 101.891 128.588 101.986C128.368 102.08 128.1 102.128 127.782 102.128ZM127.91 101.375C128.242 101.375 128.521 101.31 128.748 101.18C128.978 101.049 129.151 100.881 129.267 100.675C129.385 100.469 129.444 100.253 129.444 100.026V99.2585C129.409 99.3011 129.331 99.3402 129.21 99.3757C129.092 99.4089 128.954 99.4384 128.798 99.4645C128.644 99.4882 128.494 99.5095 128.347 99.5284C128.203 99.545 128.085 99.5592 127.995 99.571C127.778 99.5994 127.574 99.6456 127.385 99.7095C127.198 99.7711 127.046 99.8646 126.93 99.9901C126.816 100.113 126.76 100.281 126.76 100.494C126.76 100.786 126.867 101.006 127.083 101.155C127.301 101.302 127.576 101.375 127.91 101.375ZM132.65 98.7188V102H131.812V94.7273H132.65V97.3977H132.721C132.849 97.116 133.041 96.8923 133.296 96.7266C133.554 96.5585 133.898 96.4744 134.326 96.4744C134.698 96.4744 135.023 96.549 135.303 96.6982C135.582 96.8449 135.799 97.071 135.953 97.3764C136.109 97.6795 136.187 98.0653 136.187 98.5341V102H135.349V98.5909C135.349 98.1577 135.236 97.8227 135.012 97.5859C134.789 97.3468 134.48 97.2273 134.085 97.2273C133.81 97.2273 133.564 97.2853 133.346 97.4013C133.131 97.5173 132.96 97.6866 132.835 97.9091C132.712 98.1316 132.65 98.4015 132.65 98.7188ZM140.845 98.4915V99.2727H137.663V98.4915H140.845ZM143.158 94.7273V102H142.32V94.7273H143.158ZM146.298 102.128C145.952 102.128 145.639 102.063 145.357 101.933C145.075 101.8 144.851 101.609 144.686 101.361C144.52 101.11 144.437 100.807 144.437 100.452C144.437 100.139 144.499 99.8859 144.622 99.6918C144.745 99.4953 144.909 99.3414 145.115 99.2301C145.321 99.1188 145.549 99.036 145.797 98.9815C146.048 98.9247 146.3 98.8797 146.554 98.8466C146.885 98.804 147.154 98.772 147.36 98.7507C147.568 98.727 147.72 98.688 147.814 98.6335C147.911 98.5791 147.96 98.4844 147.96 98.3494V98.321C147.96 97.9706 147.864 97.6984 147.672 97.5043C147.483 97.3101 147.195 97.2131 146.809 97.2131C146.409 97.2131 146.096 97.3007 145.868 97.4759C145.641 97.651 145.481 97.8381 145.389 98.0369L144.593 97.7528C144.735 97.4214 144.925 97.1634 145.162 96.9787C145.401 96.7917 145.661 96.6615 145.943 96.5881C146.227 96.5123 146.506 96.4744 146.781 96.4744C146.956 96.4744 147.157 96.4957 147.385 96.5384C147.614 96.5786 147.836 96.6626 148.049 96.7905C148.264 96.9183 148.443 97.1113 148.585 97.3693C148.727 97.6274 148.798 97.973 148.798 98.4062V102H147.96V101.261H147.917C147.86 101.38 147.766 101.506 147.633 101.641C147.501 101.776 147.324 101.891 147.104 101.986C146.884 102.08 146.615 102.128 146.298 102.128ZM146.426 101.375C146.757 101.375 147.037 101.31 147.264 101.18C147.493 101.049 147.666 100.881 147.782 100.675C147.901 100.469 147.96 100.253 147.96 100.026V99.2585C147.924 99.3011 147.846 99.3402 147.725 99.3757C147.607 99.4089 147.47 99.4384 147.314 99.4645C147.16 99.4882 147.009 99.5095 146.863 99.5284C146.718 99.545 146.601 99.5592 146.511 99.571C146.293 99.5994 146.09 99.6456 145.9 99.7095C145.713 99.7711 145.562 99.8646 145.446 99.9901C145.332 100.113 145.275 100.281 145.275 100.494C145.275 100.786 145.383 101.006 145.598 101.155C145.816 101.302 146.092 101.375 146.426 101.375ZM151.166 98.7188V102H150.328V94.7273H151.166V97.3977H151.237C151.365 97.116 151.556 96.8923 151.812 96.7266C152.07 96.5585 152.413 96.4744 152.842 96.4744C153.213 96.4744 153.539 96.549 153.818 96.6982C154.098 96.8449 154.314 97.071 154.468 97.3764C154.624 97.6795 154.703 98.0653 154.703 98.5341V102H153.865V98.5909C153.865 98.1577 153.752 97.8227 153.527 97.5859C153.305 97.3468 152.996 97.2273 152.6 97.2273C152.326 97.2273 152.079 97.2853 151.862 97.4013C151.646 97.5173 151.476 97.6866 151.35 97.9091C151.227 98.1316 151.166 98.4015 151.166 98.7188ZM159.886 98.7188V102H159.048V94.7273H159.886V97.3977H159.957C160.085 97.116 160.277 96.8923 160.533 96.7266C160.791 96.5585 161.134 96.4744 161.562 96.4744C161.934 96.4744 162.26 96.549 162.539 96.6982C162.818 96.8449 163.035 97.071 163.189 97.3764C163.345 97.6795 163.423 98.0653 163.423 98.5341V102H162.585V98.5909C162.585 98.1577 162.473 97.8227 162.248 97.5859C162.025 97.3468 161.716 97.2273 161.321 97.2273C161.046 97.2273 160.8 97.2853 160.582 97.4013C160.367 97.5173 160.196 97.6866 160.071 97.9091C159.948 98.1316 159.886 98.4015 159.886 98.7188ZM166.562 102.128C166.216 102.128 165.902 102.063 165.621 101.933C165.339 101.8 165.115 101.609 164.949 101.361C164.784 101.11 164.701 100.807 164.701 100.452C164.701 100.139 164.762 99.8859 164.885 99.6918C165.009 99.4953 165.173 99.3414 165.379 99.2301C165.585 99.1188 165.812 99.036 166.061 98.9815C166.312 98.9247 166.564 98.8797 166.817 98.8466C167.149 98.804 167.417 98.772 167.623 98.7507C167.832 98.727 167.983 98.688 168.078 98.6335C168.175 98.5791 168.224 98.4844 168.224 98.3494V98.321C168.224 97.9706 168.128 97.6984 167.936 97.5043C167.747 97.3101 167.459 97.2131 167.073 97.2131C166.673 97.2131 166.359 97.3007 166.132 97.4759C165.905 97.651 165.745 97.8381 165.653 98.0369L164.857 97.7528C164.999 97.4214 165.189 97.1634 165.425 96.9787C165.664 96.7917 165.925 96.6615 166.206 96.5881C166.491 96.5123 166.77 96.4744 167.045 96.4744C167.22 96.4744 167.421 96.4957 167.648 96.5384C167.878 96.5786 168.099 96.6626 168.312 96.7905C168.528 96.9183 168.706 97.1113 168.849 97.3693C168.991 97.6274 169.062 97.973 169.062 98.4062V102H168.224V101.261H168.181C168.124 101.38 168.029 101.506 167.897 101.641C167.764 101.776 167.588 101.891 167.368 101.986C167.148 102.08 166.879 102.128 166.562 102.128ZM166.689 101.375C167.021 101.375 167.3 101.31 167.528 101.18C167.757 101.049 167.93 100.881 168.046 100.675C168.164 100.469 168.224 100.253 168.224 100.026V99.2585C168.188 99.3011 168.11 99.3402 167.989 99.3757C167.871 99.4089 167.733 99.4384 167.577 99.4645C167.423 99.4882 167.273 99.5095 167.126 99.5284C166.982 99.545 166.865 99.5592 166.775 99.571C166.557 99.5994 166.353 99.6456 166.164 99.7095C165.977 99.7711 165.825 99.8646 165.709 99.9901C165.596 100.113 165.539 100.281 165.539 100.494C165.539 100.786 165.647 101.006 165.862 101.155C166.08 101.302 166.356 101.375 166.689 101.375ZM172.963 96.5455V97.2557H170.137V96.5455H172.963ZM170.961 95.2386H171.799V100.438C171.799 100.674 171.833 100.852 171.902 100.97C171.973 101.086 172.063 101.164 172.172 101.205C172.283 101.242 172.4 101.261 172.523 101.261C172.615 101.261 172.691 101.257 172.75 101.247C172.81 101.235 172.857 101.226 172.892 101.219L173.063 101.972C173.006 101.993 172.927 102.014 172.825 102.036C172.723 102.059 172.594 102.071 172.438 102.071C172.201 102.071 171.969 102.02 171.742 101.918C171.517 101.817 171.33 101.661 171.181 101.453C171.034 101.245 170.961 100.982 170.961 100.665V95.2386ZM174.224 102V96.5455H175.062V102H174.224ZM174.65 95.6364C174.487 95.6364 174.346 95.5807 174.228 95.4695C174.112 95.3582 174.054 95.2244 174.054 95.0682C174.054 94.9119 174.112 94.7782 174.228 94.6669C174.346 94.5556 174.487 94.5 174.65 94.5C174.814 94.5 174.953 94.5556 175.069 94.6669C175.188 94.7782 175.247 94.9119 175.247 95.0682C175.247 95.2244 175.188 95.3582 175.069 95.4695C174.953 95.5807 174.814 95.6364 174.65 95.6364ZM179.41 102V96.5455H180.219V97.3977H180.29C180.404 97.1065 180.587 96.8804 180.841 96.7195C181.094 96.5561 181.398 96.4744 181.753 96.4744C182.113 96.4744 182.413 96.5561 182.652 96.7195C182.893 96.8804 183.081 97.1065 183.216 97.3977H183.273C183.413 97.116 183.622 96.8923 183.902 96.7266C184.181 96.5585 184.516 96.4744 184.907 96.4744C185.394 96.4744 185.793 96.6271 186.104 96.9325C186.414 97.2356 186.569 97.7079 186.569 98.3494V102H185.731V98.3494C185.731 97.947 185.621 97.6593 185.4 97.4865C185.18 97.3137 184.921 97.2273 184.623 97.2273C184.239 97.2273 183.942 97.3433 183.731 97.5753C183.521 97.8049 183.415 98.0961 183.415 98.4489V102H182.563V98.2642C182.563 97.9541 182.462 97.7043 182.261 97.5149C182.06 97.3232 181.801 97.2273 181.483 97.2273C181.266 97.2273 181.062 97.2853 180.873 97.4013C180.686 97.5173 180.534 97.6783 180.418 97.8842C180.305 98.0878 180.248 98.3234 180.248 98.5909V102H179.41ZM190.388 102.114C189.862 102.114 189.409 101.998 189.028 101.766C188.649 101.531 188.357 101.205 188.151 100.786C187.947 100.364 187.845 99.8741 187.845 99.3153C187.845 98.7566 187.947 98.2642 188.151 97.8381C188.357 97.4096 188.643 97.0758 189.01 96.8366C189.379 96.5952 189.81 96.4744 190.303 96.4744C190.587 96.4744 190.867 96.5218 191.144 96.6165C191.421 96.7112 191.673 96.8651 191.901 97.0781C192.128 97.2888 192.309 97.5682 192.444 97.9162C192.579 98.2642 192.646 98.6927 192.646 99.2017V99.5568H188.442V98.8324H191.794C191.794 98.5246 191.733 98.25 191.61 98.0085C191.489 97.767 191.316 97.5765 191.091 97.4368C190.869 97.2971 190.606 97.2273 190.303 97.2273C189.969 97.2273 189.68 97.3101 189.436 97.4759C189.195 97.6392 189.009 97.8523 188.879 98.1151C188.749 98.3778 188.683 98.6596 188.683 98.9602V99.4432C188.683 99.8551 188.754 100.204 188.896 100.491C189.041 100.775 189.241 100.991 189.497 101.141C189.752 101.287 190.049 101.361 190.388 101.361C190.608 101.361 190.807 101.33 190.985 101.268C191.164 101.205 191.32 101.11 191.45 100.984C191.58 100.857 191.681 100.698 191.752 100.509L192.561 100.736C192.476 101.01 192.333 101.252 192.132 101.46C191.93 101.666 191.682 101.827 191.386 101.943C191.09 102.057 190.757 102.114 190.388 102.114ZM194.759 98.7188V102H193.921V96.5455H194.731V97.3977H194.802C194.93 97.1207 195.124 96.8982 195.384 96.7301C195.645 96.5597 195.981 96.4744 196.393 96.4744C196.762 96.4744 197.085 96.5502 197.362 96.7017C197.639 96.8509 197.855 97.0781 198.009 97.3835C198.163 97.6866 198.24 98.0701 198.24 98.5341V102H197.401V98.5909C197.401 98.1624 197.29 97.8286 197.068 97.5895C196.845 97.348 196.54 97.2273 196.151 97.2273C195.884 97.2273 195.645 97.2853 195.434 97.4013C195.226 97.5173 195.061 97.6866 194.941 97.9091C194.82 98.1316 194.759 98.4015 194.759 98.7188ZM199.771 96.5455H200.609V102.398C200.609 102.734 200.551 103.025 200.435 103.271C200.321 103.518 200.149 103.708 199.917 103.843C199.687 103.978 199.397 104.045 199.047 104.045C199.018 104.045 198.99 104.045 198.961 104.045C198.933 104.045 198.904 104.045 198.876 104.045V103.264C198.904 103.264 198.931 103.264 198.954 103.264C198.978 103.264 199.004 103.264 199.032 103.264C199.288 103.264 199.475 103.188 199.593 103.037C199.712 102.888 199.771 102.675 199.771 102.398V96.5455ZM200.183 95.6364C200.02 95.6364 199.879 95.5807 199.76 95.4695C199.644 95.3582 199.586 95.2244 199.586 95.0682C199.586 94.9119 199.644 94.7782 199.76 94.6669C199.879 94.5556 200.02 94.5 200.183 94.5C200.346 94.5 200.486 94.5556 200.602 94.6669C200.72 94.7782 200.779 94.9119 200.779 95.0682C200.779 95.2244 200.72 95.3582 200.602 95.4695C200.486 95.5807 200.346 95.6364 200.183 95.6364ZM203.749 102.128C203.403 102.128 203.09 102.063 202.808 101.933C202.526 101.8 202.303 101.609 202.137 101.361C201.971 101.11 201.888 100.807 201.888 100.452C201.888 100.139 201.95 99.8859 202.073 99.6918C202.196 99.4953 202.361 99.3414 202.567 99.2301C202.773 99.1188 203 99.036 203.248 98.9815C203.499 98.9247 203.751 98.8797 204.005 98.8466C204.336 98.804 204.605 98.772 204.811 98.7507C205.019 98.727 205.171 98.688 205.265 98.6335C205.363 98.5791 205.411 98.4844 205.411 98.3494V98.321C205.411 97.9706 205.315 97.6984 205.123 97.5043C204.934 97.3101 204.646 97.2131 204.26 97.2131C203.86 97.2131 203.547 97.3007 203.319 97.4759C203.092 97.651 202.932 97.8381 202.84 98.0369L202.045 97.7528C202.187 97.4214 202.376 97.1634 202.613 96.9787C202.852 96.7917 203.112 96.6615 203.394 96.5881C203.678 96.5123 203.957 96.4744 204.232 96.4744C204.407 96.4744 204.608 96.4957 204.836 96.5384C205.065 96.5786 205.287 96.6626 205.5 96.7905C205.715 96.9183 205.894 97.1113 206.036 97.3693C206.178 97.6274 206.249 97.973 206.249 98.4062V102H205.411V101.261H205.368C205.312 101.38 205.217 101.506 205.084 101.641C204.952 101.776 204.775 101.891 204.555 101.986C204.335 102.08 204.066 102.128 203.749 102.128ZM203.877 101.375C204.208 101.375 204.488 101.31 204.715 101.18C204.945 101.049 205.117 100.881 205.233 100.675C205.352 100.469 205.411 100.253 205.411 100.026V99.2585C205.376 99.3011 205.297 99.3402 205.177 99.3757C205.058 99.4089 204.921 99.4384 204.765 99.4645C204.611 99.4882 204.461 99.5095 204.314 99.5284C204.169 99.545 204.052 99.5592 203.962 99.571C203.744 99.5994 203.541 99.6456 203.351 99.7095C203.164 99.7711 203.013 99.8646 202.897 99.9901C202.783 100.113 202.726 100.281 202.726 100.494C202.726 100.786 202.834 101.006 203.05 101.155C203.267 101.302 203.543 101.375 203.877 101.375ZM209.838 102.114C209.384 102.114 208.983 101.999 208.635 101.769C208.287 101.537 208.014 101.21 207.818 100.789C207.621 100.365 207.523 99.8646 207.523 99.2869C207.523 98.714 207.621 98.2169 207.818 97.7955C208.014 97.3741 208.288 97.0485 208.638 96.8189C208.989 96.5893 209.393 96.4744 209.853 96.4744C210.208 96.4744 210.488 96.5336 210.694 96.652C210.903 96.768 211.061 96.9006 211.17 97.0497C211.281 97.1965 211.368 97.3172 211.429 97.4119H211.5V94.7273H212.338V102H211.529V101.162H211.429C211.368 101.261 211.28 101.387 211.167 101.538C211.053 101.687 210.891 101.821 210.68 101.94C210.469 102.056 210.189 102.114 209.838 102.114ZM209.952 101.361C210.288 101.361 210.572 101.273 210.804 101.098C211.036 100.92 211.213 100.675 211.333 100.363C211.454 100.048 211.515 99.6847 211.515 99.2727C211.515 98.8655 211.455 98.5092 211.337 98.2038C211.219 97.8961 211.043 97.657 210.811 97.4865C210.579 97.3137 210.293 97.2273 209.952 97.2273C209.597 97.2273 209.301 97.3184 209.064 97.5007C208.83 97.6806 208.654 97.9257 208.535 98.2358C208.419 98.5436 208.361 98.8892 208.361 99.2727C208.361 99.661 208.42 100.014 208.539 100.331C208.659 100.646 208.837 100.897 209.071 101.084C209.308 101.268 209.602 101.361 209.952 101.361ZM213.99 102V96.5455H214.828V102H213.99ZM214.416 95.6364C214.252 95.6364 214.112 95.5807 213.993 95.4695C213.877 95.3582 213.819 95.2244 213.819 95.0682C213.819 94.9119 213.877 94.7782 213.993 94.6669C214.112 94.5556 214.252 94.5 214.416 94.5C214.579 94.5 214.719 94.5556 214.835 94.6669C214.953 94.7782 215.012 94.9119 215.012 95.0682C215.012 95.2244 214.953 95.3582 214.835 95.4695C214.719 95.5807 214.579 95.6364 214.416 95.6364ZM221.547 96.5455V97.2557H218.721V96.5455H221.547ZM219.545 95.2386H220.383V100.438C220.383 100.674 220.417 100.852 220.486 100.97C220.557 101.086 220.647 101.164 220.756 101.205C220.867 101.242 220.984 101.261 221.107 101.261C221.199 101.261 221.275 101.257 221.334 101.247C221.394 101.235 221.441 101.226 221.476 101.219L221.647 101.972C221.59 101.993 221.511 102.014 221.409 102.036C221.307 102.059 221.178 102.071 221.022 102.071C220.785 102.071 220.553 102.02 220.326 101.918C220.101 101.817 219.914 101.661 219.765 101.453C219.618 101.245 219.545 100.982 219.545 100.665V95.2386ZM225.036 102.114C224.511 102.114 224.057 101.998 223.676 101.766C223.298 101.531 223.005 101.205 222.799 100.786C222.596 100.364 222.494 99.8741 222.494 99.3153C222.494 98.7566 222.596 98.2642 222.799 97.8381C223.005 97.4096 223.292 97.0758 223.659 96.8366C224.028 96.5952 224.459 96.4744 224.951 96.4744C225.235 96.4744 225.516 96.5218 225.793 96.6165C226.07 96.7112 226.322 96.8651 226.549 97.0781C226.776 97.2888 226.958 97.5682 227.093 97.9162C227.227 98.2642 227.295 98.6927 227.295 99.2017V99.5568H223.09V98.8324H226.443C226.443 98.5246 226.381 98.25 226.258 98.0085C226.137 97.767 225.964 97.5765 225.74 97.4368C225.517 97.2971 225.254 97.2273 224.951 97.2273C224.617 97.2273 224.329 97.3101 224.085 97.4759C223.843 97.6392 223.657 97.8523 223.527 98.1151C223.397 98.3778 223.332 98.6596 223.332 98.9602V99.4432C223.332 99.8551 223.403 100.204 223.545 100.491C223.689 100.775 223.889 100.991 224.145 101.141C224.401 101.287 224.698 101.361 225.036 101.361C225.257 101.361 225.455 101.33 225.633 101.268C225.813 101.205 225.968 101.11 226.098 100.984C226.228 100.857 226.329 100.698 226.4 100.509L227.21 100.736C227.124 101.01 226.981 101.252 226.78 101.46C226.579 101.666 226.33 101.827 226.034 101.943C225.738 102.057 225.406 102.114 225.036 102.114ZM229.408 98.7188V102H228.57V96.5455H229.379V97.3977H229.45C229.578 97.1207 229.772 96.8982 230.033 96.7301C230.293 96.5597 230.629 96.4744 231.041 96.4744C231.411 96.4744 231.734 96.5502 232.011 96.7017C232.288 96.8509 232.503 97.0781 232.657 97.3835C232.811 97.6866 232.888 98.0701 232.888 98.5341V102H232.05V98.5909C232.05 98.1624 231.939 97.8286 231.716 97.5895C231.494 97.348 231.188 97.2273 230.8 97.2273C230.532 97.2273 230.293 97.2853 230.083 97.4013C229.874 97.5173 229.71 97.6866 229.589 97.9091C229.468 98.1316 229.408 98.4015 229.408 98.7188ZM236.792 96.5455V97.2557H233.965V96.5455H236.792ZM234.789 95.2386H235.627V100.438C235.627 100.674 235.661 100.852 235.73 100.97C235.801 101.086 235.891 101.164 236 101.205C236.111 101.242 236.228 101.261 236.351 101.261C236.444 101.261 236.519 101.257 236.578 101.247C236.638 101.235 236.685 101.226 236.721 101.219L236.891 101.972C236.834 101.993 236.755 102.014 236.653 102.036C236.551 102.059 236.422 102.071 236.266 102.071C236.029 102.071 235.797 102.02 235.57 101.918C235.345 101.817 235.158 101.661 235.009 101.453C234.862 101.245 234.789 100.982 234.789 100.665V95.2386ZM240.281 102.114C239.755 102.114 239.302 101.998 238.92 101.766C238.542 101.531 238.249 101.205 238.043 100.786C237.84 100.364 237.738 99.8741 237.738 99.3153C237.738 98.7566 237.84 98.2642 238.043 97.8381C238.249 97.4096 238.536 97.0758 238.903 96.8366C239.272 96.5952 239.703 96.4744 240.195 96.4744C240.479 96.4744 240.76 96.5218 241.037 96.6165C241.314 96.7112 241.566 96.8651 241.793 97.0781C242.021 97.2888 242.202 97.5682 242.337 97.9162C242.472 98.2642 242.539 98.6927 242.539 99.2017V99.5568H238.335V98.8324H241.687C241.687 98.5246 241.625 98.25 241.502 98.0085C241.381 97.767 241.209 97.5765 240.984 97.4368C240.761 97.2971 240.498 97.2273 240.195 97.2273C239.862 97.2273 239.573 97.3101 239.329 97.4759C239.087 97.6392 238.902 97.8523 238.771 98.1151C238.641 98.3778 238.576 98.6596 238.576 98.9602V99.4432C238.576 99.8551 238.647 100.204 238.789 100.491C238.933 100.775 239.134 100.991 239.389 101.141C239.645 101.287 239.942 101.361 240.281 101.361C240.501 101.361 240.7 101.33 240.877 101.268C241.057 101.205 241.212 101.11 241.342 100.984C241.473 100.857 241.573 100.698 241.644 100.509L242.454 100.736C242.369 101.01 242.225 101.252 242.024 101.46C241.823 101.666 241.574 101.827 241.278 101.943C240.982 102.057 240.65 102.114 240.281 102.114ZM243.814 102V96.5455H244.624V97.3693H244.68C244.78 97.0994 244.96 96.8804 245.22 96.7124C245.481 96.5443 245.774 96.4602 246.101 96.4602C246.162 96.4602 246.239 96.4614 246.332 96.4638C246.424 96.4661 246.494 96.4697 246.541 96.4744V97.3267C246.513 97.3196 246.448 97.3089 246.346 97.2947C246.246 97.2782 246.141 97.2699 246.03 97.2699C245.765 97.2699 245.528 97.3255 245.32 97.4368C245.114 97.5457 244.95 97.6972 244.83 97.8913C244.711 98.0831 244.652 98.3021 244.652 98.5483V102H243.814ZM249.14 102.128C248.794 102.128 248.48 102.063 248.199 101.933C247.917 101.8 247.693 101.609 247.528 101.361C247.362 101.11 247.279 100.807 247.279 100.452C247.279 100.139 247.34 99.8859 247.464 99.6918C247.587 99.4953 247.751 99.3414 247.957 99.2301C248.163 99.1188 248.39 99.036 248.639 98.9815C248.89 98.9247 249.142 98.8797 249.395 98.8466C249.727 98.804 249.996 98.772 250.202 98.7507C250.41 98.727 250.561 98.688 250.656 98.6335C250.753 98.5791 250.802 98.4844 250.802 98.3494V98.321C250.802 97.9706 250.706 97.6984 250.514 97.5043C250.325 97.3101 250.037 97.2131 249.651 97.2131C249.251 97.2131 248.937 97.3007 248.71 97.4759C248.483 97.651 248.323 97.8381 248.231 98.0369L247.435 97.7528C247.577 97.4214 247.767 97.1634 248.003 96.9787C248.242 96.7917 248.503 96.6615 248.785 96.5881C249.069 96.5123 249.348 96.4744 249.623 96.4744C249.798 96.4744 249.999 96.4957 250.226 96.5384C250.456 96.5786 250.677 96.6626 250.89 96.7905C251.106 96.9183 251.285 97.1113 251.427 97.3693C251.569 97.6274 251.64 97.973 251.64 98.4062V102H250.802V101.261H250.759C250.702 101.38 250.608 101.506 250.475 101.641C250.342 101.776 250.166 101.891 249.946 101.986C249.726 102.08 249.457 102.128 249.14 102.128ZM249.268 101.375C249.599 101.375 249.878 101.31 250.106 101.18C250.335 101.049 250.508 100.881 250.624 100.675C250.742 100.469 250.802 100.253 250.802 100.026V99.2585C250.766 99.3011 250.688 99.3402 250.567 99.3757C250.449 99.4089 250.312 99.4384 250.155 99.4645C250.001 99.4882 249.851 99.5095 249.704 99.5284C249.56 99.545 249.443 99.5592 249.353 99.571C249.135 99.5994 248.931 99.6456 248.742 99.7095C248.555 99.7711 248.403 99.8646 248.287 99.9901C248.174 100.113 248.117 100.281 248.117 100.494C248.117 100.786 248.225 101.006 248.44 101.155C248.658 101.302 248.934 101.375 249.268 101.375ZM253.169 102V96.5455H253.979V97.3977H254.05C254.164 97.1065 254.347 96.8804 254.6 96.7195C254.854 96.5561 255.158 96.4744 255.513 96.4744C255.873 96.4744 256.172 96.5561 256.412 96.7195C256.653 96.8804 256.841 97.1065 256.976 97.3977H257.033C257.173 97.116 257.382 96.8923 257.662 96.7266C257.941 96.5585 258.276 96.4744 258.667 96.4744C259.154 96.4744 259.553 96.6271 259.863 96.9325C260.173 97.2356 260.328 97.7079 260.328 98.3494V102H259.49V98.3494C259.49 97.947 259.38 97.6593 259.16 97.4865C258.94 97.3137 258.681 97.2273 258.382 97.2273C257.999 97.2273 257.702 97.3433 257.491 97.5753C257.28 97.8049 257.175 98.0961 257.175 98.4489V102H256.323V98.2642C256.323 97.9541 256.222 97.7043 256.021 97.5149C255.82 97.3232 255.56 97.2273 255.243 97.2273C255.025 97.2273 254.822 97.2853 254.632 97.4013C254.445 97.5173 254.294 97.6783 254.178 97.8842C254.064 98.0878 254.007 98.3234 254.007 98.5909V102H253.169Z" fill="white"/>
<path d="M115.162 55.4C114.346 55.4 113.722 56.12 113.722 56.792C113.722 57.272 113.882 57.56 114.234 57.848C113.786 57.992 113.21 58.136 112.458 58.264L112.682 59.256C115.466 58.728 116.458 57.976 116.458 56.776C116.458 56.008 115.882 55.4 115.162 55.4ZM115.162 57.384C114.826 57.176 114.682 57.048 114.682 56.84C114.682 56.616 114.874 56.424 115.066 56.424C115.29 56.424 115.45 56.632 115.45 56.872C115.45 57.064 115.354 57.224 115.162 57.384ZM119.48 59.856H119.288L117.656 61.168C118.216 62.368 118.52 63.296 118.488 63.856C117.88 64.032 116.456 64.192 114.952 64.192H114.072C110.936 64.192 109.656 63.744 109.656 62.112C109.656 61.696 109.704 61.28 109.8 60.784L109.64 60.704L108.216 61.248C108.024 61.92 107.928 62.512 107.928 63.2C107.928 65.152 109.848 66.192 113.384 66.192H114.36C116.408 66.192 118.184 65.952 118.952 65.488C119.8 64.976 120.216 63.92 120.216 62.992C120.216 62.304 120.008 61.136 119.48 59.856ZM112.52 68.928L114.232 70.128L115.288 68.528L113.592 67.36L112.52 68.928ZM124.526 58.416C125.438 58.416 126.062 57.808 126.062 56.912C126.062 55.984 125.502 55.344 124.606 55.344C123.662 55.344 123.038 56 123.038 56.96C123.038 57.84 123.63 58.416 124.526 58.416ZM124.542 57.44C124.238 57.44 124.03 57.232 124.03 56.928C124.03 56.608 124.27 56.4 124.542 56.4C124.846 56.4 125.054 56.608 125.054 56.928C125.054 57.216 124.862 57.44 124.542 57.44ZM128.35 64H127.246C127.134 61.968 126.078 60.32 124.542 60.32C123.038 60.32 121.902 62.144 121.902 63.648C121.902 65.088 122.878 65.984 125.054 66C124.35 66.768 123.038 67.12 121.102 67.152L120.99 67.328L121.95 68.848C124.654 68.832 126.27 67.584 126.926 66H127.918C128.75 66 129.022 65.392 129.022 64.64C129.022 64.288 128.862 64 128.35 64ZM123.422 63.344C123.422 62.8 123.886 62.224 124.43 62.224C125.022 62.224 125.566 63.024 125.646 64H125.038C123.87 64 123.422 63.776 123.422 63.344ZM131.693 50.4C130.877 50.4 130.253 51.12 130.253 51.792C130.253 52.272 130.413 52.56 130.765 52.848C130.317 52.992 129.741 53.136 128.989 53.264L129.213 54.256C131.997 53.728 132.989 52.976 132.989 51.776C132.989 51.008 132.413 50.4 131.693 50.4ZM131.693 52.384C131.357 52.176 131.213 52.048 131.213 51.84C131.213 51.616 131.405 51.424 131.597 51.424C131.821 51.424 131.981 51.632 131.981 51.872C131.981 52.064 131.885 52.224 131.693 52.384ZM133.353 64C132.137 64 131.769 63.824 131.769 62.592V55.008L131.625 54.912L129.769 55.408V62.608C129.769 63.168 129.721 63.536 129.657 63.792C129.337 63.952 128.825 64 128.377 64L127.945 66C129.529 66 130.345 65.776 130.905 65.088C131.449 65.84 132.297 66 132.921 66C133.737 66 133.993 65.392 133.993 64.64C133.993 64.288 133.833 64 133.353 64ZM137.568 49.4C136.752 49.4 136.128 50.12 136.128 50.792C136.128 51.272 136.288 51.56 136.64 51.848C136.192 51.992 135.616 52.136 134.864 52.264L135.088 53.256C137.872 52.728 138.864 51.976 138.864 50.776C138.864 50.008 138.288 49.4 137.568 49.4ZM137.568 51.384C137.232 51.176 137.088 51.048 137.088 50.84C137.088 50.616 137.28 50.424 137.472 50.424C137.696 50.424 137.856 50.632 137.856 50.872C137.856 51.064 137.76 51.224 137.568 51.384ZM136.562 56.88L138.13 57.984L139.154 56.448L137.506 55.328L136.786 56.4L135.234 55.328L134.21 56.832L135.858 57.984L136.562 56.88ZM140.53 64H139.33C139.122 64 138.914 64 138.722 63.984C139.106 63.44 139.314 62.8 139.314 62.048C139.314 60.848 138.29 59.328 136.93 59.328C135.458 59.328 134.146 60.96 134.146 62.544C134.146 63.056 134.338 63.552 134.658 64H133.346L132.914 66H133.842C134.85 66 135.826 65.84 136.658 65.504C137.394 65.824 138.226 66 139.09 66H140.098C140.914 66 141.154 65.392 141.154 64.64C141.154 64.288 141.026 64 140.53 64ZM136.754 61.216C137.17 61.216 137.714 61.76 137.714 62.304C137.714 62.816 137.33 63.248 136.754 63.552C136.098 63.248 135.73 62.832 135.73 62.352C135.73 61.776 136.29 61.216 136.754 61.216ZM142.933 54.416C143.845 54.416 144.469 53.808 144.469 52.912C144.469 51.984 143.909 51.344 143.013 51.344C142.069 51.344 141.445 52 141.445 52.96C141.445 53.84 142.037 54.416 142.933 54.416ZM142.949 53.44C142.645 53.44 142.437 53.232 142.437 52.928C142.437 52.608 142.677 52.4 142.949 52.4C143.253 52.4 143.461 52.608 143.461 52.928C143.461 53.216 143.269 53.44 142.949 53.44ZM140.086 66C142.47 66 143.91 65.312 143.91 62.512V55.008L143.766 54.912L141.91 55.408V62.608C141.91 63.168 141.862 63.536 141.798 63.792C141.478 63.952 140.966 64 140.518 64L140.086 66ZM145.987 66.112L147.827 65.728L147.875 55.008L147.715 54.912L145.859 55.408V66.016L145.987 66.112ZM155.581 52.96C158.365 52.432 159.357 51.696 159.357 50.496C159.357 49.712 158.781 49.12 158.061 49.12C157.245 49.12 156.621 49.84 156.621 50.512C156.621 50.976 156.781 51.264 157.117 51.552C156.685 51.696 156.109 51.84 155.357 51.968L155.581 52.96ZM157.581 50.544C157.581 50.336 157.773 50.144 157.965 50.144C158.189 50.144 158.349 50.336 158.349 50.576C158.349 50.768 158.253 50.928 158.061 51.104C157.725 50.896 157.581 50.768 157.581 50.544ZM159.501 53.312L158.397 53.552C158.477 53.856 158.557 54.16 158.557 54.48C158.557 54.832 158.493 55.056 158.173 55.056C157.917 55.056 157.757 54.912 157.757 54.528C157.757 54.368 157.757 54.192 157.773 53.872L156.733 53.936C156.733 54.88 156.605 55.104 156.301 55.104C156.045 55.104 155.917 54.944 155.917 54.544C155.917 54.384 155.933 54.112 155.981 53.856L154.893 53.888C154.813 54.176 154.749 54.624 154.749 54.832C154.749 55.568 155.101 56.256 156.221 56.256C156.653 56.256 157.037 56.112 157.277 55.84C157.469 56.064 157.789 56.224 158.221 56.224C159.245 56.224 159.741 55.488 159.741 54.56C159.741 54.096 159.629 53.696 159.501 53.312ZM158.445 59.328L156.749 58.144L155.677 59.712L157.389 60.928L158.445 59.328ZM163.229 64C162.413 64 161.981 63.808 161.741 63.296C161.565 62.928 161.149 61.536 161.005 61.184H160.909L159.165 62.416C159.773 63.696 160.269 64.88 160.077 65.872C159.661 66.448 158.733 66.976 157.325 66.976C155.421 66.976 154.845 66.032 154.845 64.72C154.845 64.288 154.877 63.792 154.957 63.216L154.781 63.152L153.341 63.696C153.213 64.128 153.037 64.88 153.037 65.632C153.037 67.632 154.429 68.976 156.925 68.976C159.357 68.976 161.229 67.952 161.805 65.712C162.093 65.888 162.445 66 162.845 66C163.677 66 163.917 65.392 163.917 64.64C163.917 64.288 163.741 64 163.229 64ZM166.767 73.464C168.031 73.416 169.103 73.336 169.887 73.24L169.807 72.136C169.407 72.184 168.927 72.216 168.463 72.248C168.255 72.056 168.143 71.832 168.143 71.592C168.143 71.272 168.335 71.08 168.687 71.08C168.863 71.08 169.087 71.128 169.375 71.208L169.647 70.168C169.231 70.008 168.799 69.928 168.463 69.928C167.551 69.928 167.039 70.488 167.039 71.304C167.039 71.64 167.183 72.008 167.375 72.296C167.135 72.312 166.879 72.312 166.655 72.312L166.767 73.464ZM166.367 74.872V76.072L170.191 75.352V74.136L166.367 74.872ZM168.324 68.512C171.812 68.512 174.612 66.784 174.612 64.576C174.612 63.968 174.324 63.504 172.772 62.944C171.54 62.512 170.98 62.304 170.98 61.888C170.98 61.296 171.812 60.512 172.82 60.512C173.316 60.512 173.908 60.672 174.308 60.864L174.388 60.816L174.772 58.896C174.372 58.688 173.716 58.512 173.044 58.512C170.788 58.512 169.524 61.024 169.524 62.56C169.524 63.84 170.436 64.176 171.54 64.56C172.532 64.912 172.772 65.088 172.66 65.472C172.1 65.952 170.612 66.512 168.708 66.512C165.988 66.512 165.348 65.616 165.348 64.224C165.348 63.856 165.396 63.504 165.508 62.848L165.364 62.752L163.7 63.312C163.556 63.872 163.444 64.544 163.444 65.136C163.444 67.04 164.836 68.512 168.324 68.512ZM177.973 58.464L182.021 57.744V56.544L177.973 57.28V58.464ZM184.233 64C183.289 64 183.001 63.76 182.473 62.72C181.801 61.392 181.193 60.32 180.009 60.32C178.681 60.32 177.897 61.728 177.017 63.232C176.649 63.888 176.441 64 175.737 64L175.305 66C176.489 66 177.321 65.92 177.961 65.104C179.033 65.872 180.105 66.208 180.793 66.208C181.417 66.208 181.833 65.936 182.153 65.44C182.601 65.84 183.113 66 183.801 66C184.569 66 184.905 65.456 184.905 64.64C184.905 64.272 184.713 64 184.233 64ZM180.505 64.32C180.041 64.32 179.401 64.032 178.777 63.616C179.209 62.8 179.577 62.224 179.945 62.224C180.281 62.224 180.713 62.768 181.193 63.936L181.241 64.032C181.081 64.208 180.873 64.32 180.505 64.32ZM190.48 58.416C191.392 58.416 192.016 57.808 192.016 56.912C192.016 55.984 191.456 55.344 190.56 55.344C189.616 55.344 188.992 56 188.992 56.96C188.992 57.84 189.584 58.416 190.48 58.416ZM190.496 57.44C190.192 57.44 189.984 57.232 189.984 56.928C189.984 56.608 190.224 56.4 190.496 56.4C190.8 56.4 191.008 56.608 191.008 56.928C191.008 57.216 190.816 57.44 190.496 57.44ZM194.54 64C193.932 64 193.388 63.904 192.972 63.776C193.068 63.488 193.132 63.168 193.132 62.832C193.132 61.552 192.252 60.016 190.7 60.016C189.788 60.016 188.78 60.576 187.484 61.648L187.516 55.008L187.356 54.912L185.516 55.408V63.424C185.324 63.6 185.116 63.792 184.908 64H184.252L183.82 66H187.724C189.772 66 190.892 65.92 191.756 65.344C192.412 65.776 193.356 66 194.108 66C194.924 66 195.18 65.392 195.18 64.64C195.18 64.288 195.02 64 194.54 64ZM188.124 64H186.924C188.46 62.672 189.692 61.904 190.444 61.904C191.1 61.904 191.532 62.608 191.532 63.168C191.532 63.424 191.468 63.648 191.388 63.776C190.972 63.952 190.364 64 188.124 64ZM194.567 54.464L198.615 53.744V52.544L194.567 53.28V54.464ZM196.47 57.472L198.038 58.576L199.062 57.04L197.414 55.92L196.694 56.992L195.142 55.92L194.118 57.424L195.766 58.576L196.47 57.472ZM197.254 59.856L195.654 61.136C196.182 62.192 196.646 63.264 196.55 63.872C196.31 63.968 195.59 64 195.014 64H194.534L194.102 66H194.614C196.214 66 196.934 65.792 197.462 65.28C198.038 64.72 198.31 63.968 198.31 63.136C198.31 62.4 197.942 60.992 197.414 59.856H197.254ZM204.148 69.616L207.972 68.896V67.696L204.148 68.432V69.616ZM206.807 50.472H205.399V53.768H206.807V50.472ZM208.423 54.312L207.319 54.552C207.399 54.856 207.479 55.16 207.479 55.48C207.479 55.832 207.415 56.056 207.095 56.056C206.839 56.056 206.679 55.912 206.679 55.528C206.679 55.368 206.679 55.192 206.695 54.872L205.655 54.936C205.655 55.88 205.527 56.104 205.223 56.104C204.967 56.104 204.839 55.944 204.839 55.544C204.839 55.384 204.855 55.112 204.903 54.856L203.815 54.888C203.735 55.176 203.671 55.624 203.671 55.832C203.671 56.568 204.023 57.256 205.143 57.256C205.575 57.256 205.959 57.112 206.199 56.84C206.391 57.064 206.711 57.224 207.143 57.224C208.167 57.224 208.663 56.488 208.663 55.56C208.663 55.096 208.551 54.696 208.423 54.312ZM213.43 50.4H212.022V52.448H213.43V50.4ZM211.75 55.728C212.182 55.728 212.566 55.584 212.806 55.312C212.982 55.536 213.318 55.696 213.734 55.696C214.774 55.696 215.27 54.976 215.27 54.048C215.27 53.568 215.158 53.168 215.03 52.784L213.926 53.04C214.006 53.328 214.086 53.632 214.086 53.952C214.086 54.304 214.006 54.528 213.702 54.528C213.446 54.528 213.27 54.384 213.27 54C213.27 53.856 213.27 53.664 213.286 53.344L212.262 53.424C212.262 54.352 212.134 54.576 211.83 54.576C211.574 54.576 211.446 54.416 211.446 54.016C211.446 53.856 211.462 53.584 211.51 53.328L210.422 53.36C210.326 53.648 210.278 54.096 210.278 54.304C210.278 55.04 210.63 55.728 211.75 55.728ZM216.486 55.408V62.608C216.486 63.168 216.438 63.536 216.374 63.792C216.07 63.936 215.606 64 215.174 64C214.054 63.984 213.702 63.792 213.702 62.592V56.752L213.558 56.656L211.702 57.136V62.608C211.702 63.168 211.654 63.536 211.59 63.792C211.286 63.936 210.822 64 210.39 64C209.254 63.984 208.966 63.712 208.966 62.896V58.096L208.822 58.048L206.966 58.768V59.504C204.454 60.336 203.126 61.808 203.126 63.136C203.126 64.368 204.214 65.2 205.974 65.2C206.486 65.2 206.95 65.12 207.462 64.944C207.958 65.664 208.79 65.968 209.878 66H209.974C209.99 66 210.022 66 210.038 66H210.118C211.542 65.984 212.31 65.744 212.838 65.088C213.334 65.76 214.07 65.968 214.662 66H214.79C214.806 66 214.838 66 214.854 66H214.966C217.174 65.936 218.486 65.184 218.486 62.512V55.008L218.342 54.912L216.486 55.408ZM222.246 54.912L220.39 55.408V66.016L220.518 66.112L222.358 65.728L222.406 55.008L222.246 54.912ZM206.182 63.264C205.606 63.264 204.918 63.04 204.758 62.608C204.95 62.112 205.862 61.648 206.966 61.376V62.896V63.2C206.726 63.248 206.47 63.264 206.182 63.264ZM226.445 72.616L230.269 71.896V70.696L226.445 71.432V72.616ZM233.313 64C232.225 64 231.889 63.824 231.441 62.592L230.753 60.64H230.561L229.137 62.272C229.553 63.12 229.969 64.032 230.321 64.816C229.809 65.808 228.337 66.864 225.825 67.296L225.713 67.456L226.785 68.928C229.137 68.528 230.993 67.36 231.601 65.76C231.937 65.904 232.337 66 232.897 66C233.713 66 233.969 65.392 233.969 64.64C233.969 64.288 233.809 64 233.313 64ZM235.464 56.416C236.376 56.416 237 55.808 237 54.912C237 53.984 236.44 53.344 235.544 53.344C234.6 53.344 233.976 54 233.976 54.96C233.976 55.84 234.568 56.416 235.464 56.416ZM235.48 55.44C235.176 55.44 234.968 55.232 234.968 54.928C234.968 54.608 235.208 54.4 235.48 54.4C235.784 54.4 235.992 54.608 235.992 54.928C235.992 55.216 235.8 55.44 235.48 55.44ZM239.986 55.536L239.842 55.44L234.306 58.304L233.842 60.544L233.922 60.656C235.474 61.632 237.33 62.864 237.33 63.616C236.898 63.824 235.634 64 234.37 64H233.33L232.898 66H234.498C237.81 66 238.994 64.848 238.994 63.232C238.994 62.352 238.53 61.36 235.938 59.632L239.33 57.952L239.986 55.536ZM241.898 69.616L245.722 68.896V67.696L241.898 68.432V69.616ZM245.466 55.424L243.77 54.24L242.698 55.808L244.41 57.024L245.466 55.424ZM248.09 64C247.034 64 246.698 63.824 246.138 62.496C245.914 61.984 244.842 59.504 244.442 58.512H244.266L242.826 60.144C243.482 61.392 244.346 63.072 244.698 63.744C244.09 64 243.13 64.096 242.394 64.096C242.026 64.096 241.29 64.064 240.762 63.968L240.65 64.032L240.362 65.968C240.922 66.096 241.802 66.144 242.218 66.144C243.594 66.144 244.778 65.808 245.53 65.248C245.978 65.824 246.634 66 247.658 66C248.474 66 248.746 65.392 248.746 64.64C248.746 64.288 248.586 64 248.09 64ZM248.148 73.616L251.972 72.896V71.696L248.148 72.432V73.616ZM247.68 66H247.872C249.472 66 250.192 65.792 250.72 65.28C251.28 64.704 251.568 63.968 251.568 63.136C251.568 62.4 251.216 60.992 250.672 59.856H250.512L248.896 61.136C249.424 62.192 249.904 63.264 249.808 63.872C249.568 63.968 248.848 64 248.272 64H248.112L247.68 66ZM250.352 69.936L251.408 68.336L249.712 67.168L248.64 68.736L250.352 69.936ZM259.692 54.464L263.74 53.744V52.544L259.692 53.28V54.464ZM262.632 58.08C262.632 57.184 262.456 55.76 262.296 54.944L262.168 54.912L260.376 55.792C260.568 56.448 260.76 57.76 260.76 58.672C260.76 59.232 260.696 59.728 260.584 60.192C259.672 59.248 258.504 58.256 257.176 57.232L257.064 57.28L256.472 59.248C257.416 59.84 258.808 60.832 259.864 61.792C259.192 62.768 258.2 63.456 257.128 64.032L257.016 66H259.256C261.688 66 262.552 65.12 262.552 63.68C262.552 63.008 262.248 62.272 261.688 61.504C262.232 60.592 262.632 59.472 262.632 58.08ZM261.256 63.68C261 63.904 260.552 64 259.592 64H259.24C259.672 63.712 260.232 63.28 260.76 62.72C261.08 63.088 261.256 63.424 261.256 63.68ZM263.645 54.464L267.693 53.744V52.544L263.645 53.28V54.464ZM264.799 66.112L266.639 65.728L266.687 55.008L266.527 54.912L264.671 55.408V66.016L264.799 66.112Z" fill="white"/>
<defs>
<linearGradient id="paint0_linear_83_2" x1="374.011" y1="4.49778" x2="243.349" y2="265.606" gradientUnits="userSpaceOnUse">
<stop stop-color="#B435BF"/>
<stop offset="1" stop-color="#8A2EFF"/>
</linearGradient>
<linearGradient id="paint1_linear_83_2" x1="374.011" y1="4.49778" x2="243.349" y2="265.606" gradientUnits="userSpaceOnUse">
<stop stop-color="#B435BF"/>
<stop offset="1" stop-color="#8A2EFF"/>
</linearGradient>
<linearGradient id="paint2_linear_83_2" x1="-20" y1="181.351" x2="206.794" y2="-3.85439" gradientUnits="userSpaceOnUse">
<stop stop-color="#FF4444"/>
<stop offset="1" stop-color="#FFEAC0"/>
</linearGradient>
<linearGradient id="paint3_linear_83_2" x1="249.277" y1="-43.5205" x2="474.665" y2="95.1708" gradientUnits="userSpaceOnUse">
<stop stop-color="#54F9BD"/>
<stop offset="1" stop-color="#8FF276"/>
</linearGradient>
<linearGradient id="paint4_linear_83_2" x1="348.004" y1="84.2479" x2="198.976" y2="198.912" gradientUnits="userSpaceOnUse">
<stop stop-color="#CCE0FF"/>
<stop offset="1" stop-color="#8A2EFF"/>
</linearGradient>
<linearGradient id="paint5_linear_83_2" x1="157.003" y1="120.092" x2="48.5193" y2="203.561" gradientUnits="userSpaceOnUse">
<stop stop-color="#CCE0FF"/>
<stop offset="1" stop-color="#8A2EFF"/>
</linearGradient>
<linearGradient id="paint6_linear_83_2" x1="-58" y1="-94" x2="91.5711" y2="24.9326" gradientUnits="userSpaceOnUse">
<stop stop-color="#3378FF"/>
<stop offset="1" stop-color="#9442FE"/>
</linearGradient>
</defs>
</svg>
