<svg width="176" height="112" viewBox="0 0 176 112" fill="none" xmlns="http://www.w3.org/2000/svg">
<rect width="175.436" height="111.116" rx="8.01967" fill="url(#paint0_linear_143_461)"/>
<mask id="mask0_143_461" style="mask-type:alpha" maskUnits="userSpaceOnUse" x="0" y="0" width="176" height="112">
<rect width="175.436" height="111.116" rx="8.01967" transform="matrix(0.999987 0.00504939 -0.00509725 0.999987 0.566387 3.05176e-05)" fill="url(#paint1_linear_143_461)"/>
</mask>
<g mask="url(#mask0_143_461)">
<path opacity="0.69" d="M57.6665 108.078C77.172 108.078 92.9843 92.3401 92.9843 72.9264C92.9843 53.5127 77.172 37.7747 57.6665 37.7747C38.1609 37.7747 22.3486 53.5127 22.3486 72.9264C22.3486 92.3401 38.1609 108.078 57.6665 108.078Z" fill="url(#paint2_radial_143_461)"/>
<path d="M177.131 72.8496C176.71 72.4972 176.29 72.5412 175.582 72.5853C174.409 72.6514 173.037 72.343 171.93 72.7615C171.289 73.0037 170.669 73.5764 170.027 73.6865C169.408 73.7966 169.297 73.268 168.744 73.224C168.08 73.1579 167.505 73.7526 166.796 73.6645C166.221 73.5984 165.801 73.1359 165.247 73.0258C164.827 72.9377 164.252 73.0478 163.809 73.0478C163.411 73.0478 162.968 72.9817 162.592 73.0918C162.171 73.224 161.906 73.4002 161.485 73.4883C160.445 73.7085 159.538 74.6556 158.41 74.3693C157.901 74.2371 157.524 74.2812 157.015 74.4133C156.462 74.5675 156.418 74.5675 155.975 74.3693C155.621 74.1931 155.134 74.0609 154.736 74.149C154.271 74.2371 154.183 74.5014 153.696 74.2151C153.099 73.8627 153.01 73.6645 152.213 73.8627C151.417 74.083 150.62 74.3913 149.934 73.8847C149.115 73.268 148.761 73.246 147.765 73.4442C147.234 73.5544 146.416 73.6645 145.995 73.2901C145.774 73.0918 145.685 72.6514 145.353 72.6073C145.132 72.5853 144.889 72.8276 144.69 72.8716C144.557 72.8936 144.38 72.8716 144.247 72.8496C143.34 72.8496 142.499 73.246 141.592 73.0918C141.149 73.0258 140.95 72.8496 140.485 72.8496C139.954 72.8496 139.932 72.7174 139.489 72.5192C139.047 72.299 138.538 72.4091 138.095 72.5853C138.095 72.5853 137.653 72.8276 137.586 72.8276C137.321 72.8055 137.21 72.5633 136.944 72.4752C136.435 72.299 136.281 72.6073 135.838 72.7174C135.395 72.8276 135.152 72.4752 134.82 72.4531C134.377 72.4311 133.846 72.8716 133.382 72.8716C133.182 72.8716 133.094 72.7615 132.939 72.7395C132.629 72.6954 132.762 72.6734 132.452 72.8055C131.965 73.0037 131.766 73.3782 131.235 73.5764C130.483 73.8627 129.797 74.2371 129.089 74.6116C128.58 74.8759 128.137 75.2503 127.628 75.5146C126.721 75.9771 125.703 76.2414 124.773 76.6599C123.623 77.1885 122.494 77.673 121.277 77.9814C120.746 78.1135 120.193 78.3117 119.728 77.9153C119.308 77.5629 119.44 77.4528 118.799 77.4748C117.891 77.4968 116.541 76.5498 115.855 77.4307C115.413 77.3426 115.347 76.7039 114.793 76.792C114.572 76.814 114.483 77.0123 114.262 77.0563C113.753 77.1224 113.643 76.7259 113.488 76.3736C113.289 75.9551 113.311 75.9771 112.824 75.9331C112.359 75.889 112.315 75.8009 111.961 75.4926C111.629 75.2062 111.231 74.8979 110.832 74.7217C110.213 74.4574 109.504 74.6776 108.863 74.5675C107.734 74.3693 106.738 73.5323 105.787 72.9597C105.433 72.7615 105.167 72.4311 104.791 72.299C104.481 72.1888 104.127 72.1448 103.795 72.0347C103.485 71.9466 103.176 71.9025 102.91 71.7263C102.644 71.5501 102.467 71.2197 102.136 71.1096C101.472 70.9114 100.498 71.1096 99.812 71.1096C99.5464 71.1096 99.1702 71.0215 98.9268 71.1096C98.7055 71.1757 98.5949 71.3519 98.3957 71.462C97.754 71.7924 97.245 71.7924 96.4926 71.7924C95.7624 71.7924 95.1427 71.6823 94.4125 71.5721C93.5716 71.44 92.4209 70.603 91.6242 71.1096C91.2259 71.3519 91.0489 71.9245 90.6284 72.1448C90.0973 72.4091 89.3228 71.9906 88.7253 72.0347C88.1279 72.0787 87.3976 72.2109 86.8444 72.4531C86.0477 72.8055 85.5166 73.3341 84.5872 73.3561C84.0561 73.3782 83.5029 73.268 82.9718 73.3561C82.2858 73.4663 82.0203 73.8847 81.5555 74.3473C80.5819 75.2943 79.5197 75.4265 78.3247 75.911C77.6387 76.1974 77.0855 76.6378 76.4659 76.9902C75.6471 77.4528 74.7177 77.7831 73.8547 78.1796C72.0622 79.0165 70.2476 79.7874 68.5658 80.8666C66.198 82.3863 63.963 83.9281 61.4182 85.1394C60.7543 85.4478 60.0683 85.7561 59.3823 86.0425C59.1167 86.1526 58.8069 86.3728 58.5193 86.3508C58.2316 86.3288 57.8554 85.9103 57.5899 85.7341C56.9481 85.2275 56.3728 84.6329 55.7089 84.1703C54.9344 83.6197 53.9607 83.3554 53.0977 82.981C52.7657 82.8268 52.4559 82.6727 52.1019 82.6286C51.8584 82.6066 51.5486 82.7167 51.3052 82.6506C50.929 82.5185 50.9511 82.0339 50.6635 81.7917C50.2209 81.3952 49.7783 81.5934 49.2251 81.5494C48.2293 81.4613 48.0965 80.2059 47.0564 80.2499C46.3483 80.2719 46.0606 80.6023 45.3304 80.2499C44.7993 79.9856 44.3346 79.1487 43.6928 79.1267C43.2724 79.1046 43.2945 79.2808 43.0732 79.5672C42.7855 79.9636 42.4757 80.0077 42.0332 80.2059C41.3029 80.5362 40.5948 80.8886 39.7981 81.1089C38.8023 81.3952 37.7401 81.3952 36.7222 81.5934C35.3281 81.8357 33.602 83.3114 32.3185 82.2762C31.7874 81.8577 31.3891 81.5714 30.681 81.5274C29.8622 81.4833 29.0434 81.6815 28.2689 81.3291C27.6493 81.0428 27.2289 80.8005 26.4986 80.8666C25.9896 80.9107 25.5249 81.197 25.016 81.0648C24.7947 81.0208 24.4849 80.7565 24.3078 80.6684C23.9538 80.4922 23.5555 80.36 23.1793 80.1839C22.2277 79.6993 21.1877 79.0826 20.3468 78.4439C19.8599 78.0695 19.6608 77.4307 19.1739 77.1004C18.7756 76.8361 18.8862 77.0563 18.51 77.1444C17.9126 77.2766 17.138 77.1224 16.5184 77.1224C15.0358 77.1224 13.531 77.2325 12.0484 77.0783C10.433 76.814 8.90606 76.3736 7.24639 76.3736C5.25478 76.3736 3.10827 76.3736 1.73627 78.0254C1.53711 78.3778 1.36008 78.7522 1.16092 79.1046C0.297886 80.6243 -0.343855 82.2101 -0.808564 83.9061C-2.18056 87.8925 -3.46404 91.9011 -4.28282 96.0417C-4.41559 96.7465 -4.57049 97.4734 -4.70327 98.1782C-5.1901 99.7639 -5.01307 101.196 -4.17217 102.473C-3.72959 103.861 -2.73379 104.742 -1.1405 105.094C0.275756 105.446 1.66988 105.821 3.08614 106.173C7.3349 107.12 11.7828 107.737 16.0537 108.508C18.6207 108.97 21.2098 109.433 23.7767 109.895C28.2025 110.776 32.6505 111.283 37.1427 111.437C43.9141 111.878 50.6635 111.723 57.4349 111.239C65.2465 110.71 73.0801 109.961 80.9138 110.314C86.4018 110.556 91.8676 111.261 97.3335 111.547C103.33 111.834 109.261 111.723 115.258 111.371C118.622 111.173 122.007 110.931 125.393 110.931C128.403 110.975 131.368 111.283 134.311 111.812C138.162 112.582 142.056 112.715 145.995 112.208C147.92 111.944 149.846 111.679 151.749 111.437C156.13 111.019 160.445 110.204 164.672 108.992C166.398 108.266 168.036 107.385 169.717 106.526C172.284 105.226 175.205 104.147 177.463 102.319C178.724 101.306 178.857 99.6758 179.189 98.1782C179.985 94.4339 180.162 90.5796 180.074 86.7693C180.007 84.1263 179.255 81.6155 179.167 78.9945C179.144 78.0034 179.144 76.9902 178.945 76.0212C178.724 74.9419 178.126 74.127 177.485 73.268C177.374 73.0698 177.263 72.9597 177.131 72.8496Z" fill="url(#paint3_linear_143_461)"/>
<path d="M60.6215 97.9799C60.7985 97.8478 60.9313 97.7376 60.9756 97.6936C61.728 97.1209 62.6352 97.4293 63.454 97.0549C63.9851 96.8126 64.4277 96.4161 65.003 96.262C65.8218 96.0197 66.5078 95.8655 67.2159 95.381C67.5479 95.1607 67.9905 94.8304 68.4109 94.8744C68.7428 94.8964 68.8756 95.1828 69.1412 95.2488C69.3625 94.9405 69.4288 94.544 69.628 94.2137C69.8493 93.8833 70.1148 93.7291 70.4025 93.4868C70.6902 93.2446 70.9336 92.8701 71.2434 92.6719C71.6196 92.4076 72.1507 92.2314 72.5269 91.9231C72.9916 91.5266 73.4342 90.7558 74.0759 90.6456C74.3636 90.6016 74.5628 90.6456 74.8504 90.5575C75.116 90.4694 75.3373 90.2712 75.6028 90.1611C76.3552 89.8527 77.2625 89.8307 78.0592 89.5664C78.5681 89.3902 78.7894 89.3462 79.3205 89.3462C79.5197 89.3462 79.8295 89.4122 80.0508 89.3462C80.3384 89.2801 80.3606 89.1039 80.7146 89.1039C81.0023 89.1039 81.0908 89.192 81.3121 89.3021C81.5998 88.9057 82.3079 88.6414 82.6841 88.3551C83.0382 88.0908 83.4586 87.7604 83.8569 87.5622C84.4102 87.2758 84.9855 87.43 85.5609 87.2318C86.3133 86.9895 87.0214 86.6371 87.7738 86.3728C88.15 86.2407 88.5483 86.1746 88.9024 86.0204C89.4777 85.7561 89.6547 85.5139 90.0309 85.0513C90.5842 84.3465 90.7833 84.9632 91.4472 85.1174C91.8234 85.2055 92.1553 85.1615 92.443 84.9412C92.7971 84.6769 93.0183 84.0822 93.5494 84.3025C93.9256 84.4567 94.0805 84.9853 94.5231 85.0293C94.7887 85.0513 95.0542 84.8091 95.3198 84.743C96.2271 84.5668 95.9394 85.69 96.5811 85.7561C96.8467 85.2055 97.3999 85.9543 97.754 86.0204C97.9752 86.0645 98.2187 85.9323 98.4399 85.9984C98.617 86.0424 98.6612 86.2186 98.8604 86.2407C99.1481 86.2627 99.5685 86.0645 99.8562 86.0204C100.365 85.9323 100.83 85.646 101.317 85.4478C101.936 85.1835 102.534 84.8311 103.242 84.8972C104.216 85.0073 104.791 85.2275 105.787 84.9192C106.583 84.6549 107.159 84.6108 107.933 84.9192C108.42 85.0954 108.73 85.2055 109.084 84.743C109.327 84.787 109.372 85.0734 109.637 85.1174C109.77 84.9412 110.08 84.6769 110.323 84.743C110.5 84.787 110.522 85.0734 110.722 85.1174C110.854 85.1615 110.943 84.9632 111.031 84.9632C111.408 85.0293 111.164 84.9853 111.43 85.1394C111.651 85.2496 111.85 85.4698 112.138 85.5359C112.691 85.668 113.089 85.5359 113.576 85.8002C113.93 85.9984 114.306 86.3067 114.705 86.4389C115.192 86.5931 115.767 86.5931 116.232 86.8133C116.541 86.9455 116.741 87.2758 117.117 87.3419C117.604 87.43 118.068 86.9895 118.555 86.9234C119.308 86.7913 120.171 87.386 120.857 87.0996C121.166 86.9675 121.211 86.7032 121.565 86.7032C122.007 86.7032 122.096 87.0336 122.605 86.8794C123.047 86.7472 123.269 86.4829 123.756 86.4609C124.021 86.4389 124.331 86.527 124.596 86.4829C124.995 86.4389 125.194 86.1085 125.548 86.0424C125.991 85.9543 125.968 86.2407 126.3 86.2847C126.61 86.3067 126.809 85.9764 127.097 85.9103C127.451 85.8222 127.562 85.9323 127.872 86.0865C128.624 86.4829 129.376 86.4169 130.084 86.9014C130.483 87.1657 130.837 87.408 131.324 87.5842C131.722 87.7163 132.253 87.7824 132.607 88.0027C133.072 88.311 133.293 88.8176 133.846 88.8837C134.289 88.9277 134.311 88.8837 134.731 89.1039C135.263 89.3682 135.44 89.3241 136.059 89.214C136.679 89.1039 136.767 89.3021 137.232 89.7206C137.918 90.3593 138.294 90.095 139.069 90.0069C139.622 89.9408 139.865 90.2712 140.264 90.6016C140.751 91.0201 141.171 91.0861 141.791 91.1082C142.233 91.1082 142.654 91.0861 143.096 91.0861C143.517 91.0861 143.76 91.3064 144.136 91.3284C144.889 91.3945 145.486 90.4694 145.973 90.0289C146.77 89.2801 147.566 89.7867 148.496 89.4343C149.115 89.192 149.248 88.7295 149.691 88.311C149.956 88.0687 150.133 88.0687 150.465 87.9586C151.173 87.7163 151.527 86.8133 152.213 86.7252C152.368 86.7032 152.501 86.7913 152.678 86.7693C153.099 86.7252 153.364 86.3508 153.674 86.0865C154.139 85.69 154.471 85.2055 155.134 85.3817C155.643 85.5139 155.511 85.646 155.997 85.3377C156.285 85.1615 156.529 84.9412 156.883 84.8751C157.126 84.8311 157.392 84.9412 157.657 84.8751C158.078 84.787 158.365 84.4787 158.852 84.4346C159.228 84.3906 159.649 84.5448 160.003 84.4567C160.357 84.3906 160.534 84.0822 160.866 83.9941C161.463 83.8179 162.149 83.7298 162.747 83.5536C163.101 83.4435 163.234 83.0911 163.521 82.8929C163.787 82.7167 164.008 82.6726 164.229 82.4964C164.628 82.1881 164.893 81.4833 165.469 81.3732C165.734 81.3291 165.911 81.5274 166.155 81.5494C166.464 81.5714 166.708 81.4613 166.973 81.3512C167.571 81.1309 168.036 80.7124 168.611 80.4481C169.164 80.1838 169.717 80.316 170.271 80.1178C170.625 79.9856 171.134 79.5671 171.532 79.8314C171.864 80.0517 171.709 80.3821 172.152 80.4702C172.55 80.5583 172.926 80.4041 173.347 80.5583C174.564 81.0208 175.36 82.4524 176.135 83.4215C176.688 84.1263 177.263 84.721 178.038 85.1835C179.122 85.8002 180.317 85.9543 181.534 86.2186C182.353 86.3948 183.128 86.571 183.924 86.8353C185.252 87.2758 186.491 87.9146 187.797 88.333C189.036 88.7295 190.43 89.0158 191.714 89.214C192.909 89.3902 194.303 89.3462 195.343 90.051C195.896 90.4254 196.051 90.8218 196.316 91.4165C196.825 92.6059 197.047 94.0375 197.357 95.2709C198.197 98.6407 199.636 101.9 200.233 105.314C200.432 106.437 200.587 107.407 200.388 108.53C200.388 109.675 199.813 110.49 198.64 111.019C197.6 111.305 196.582 111.569 195.542 111.856C194.745 111.922 193.971 111.966 193.174 112.032C190.209 112.252 187.244 112.472 184.278 112.67C177.64 113.199 171.001 113.772 164.362 114.278C153.054 115.137 141.769 115.6 130.416 115.446C125.017 115.38 119.617 115.137 114.24 114.675C108.088 114.146 102.003 113.243 95.873 112.604C92.952 112.296 90.0088 112.032 87.0878 111.789C83.2373 111.481 79.4311 110.975 75.5807 110.578C71.3319 110.138 66.8397 110.402 62.7238 109.08C61.0641 108.53 58.3865 107.054 57.8332 105.204C57.7005 104.742 57.789 104.345 57.8332 103.883C57.8996 103.244 57.9218 102.671 57.9439 102.032C57.966 101.196 58.1431 100.16 58.4971 99.4115C58.5635 99.2574 58.6742 99.1032 58.7848 98.971C58.8069 99.0151 58.8512 99.0812 58.8954 99.1252C58.9397 99.3455 60.0461 98.4645 60.6215 97.9799Z" fill="url(#paint4_linear_143_461)"/>
<path d="M-3.14406 84.7821C-3.18973 84.6395 -3.09838 84.5825 -2.9157 84.611C-2.77868 84.8677 -2.82435 85.1528 -2.27629 85.1528C-1.91091 84.7821 -1.86524 84.4114 -1.22583 84.554C-0.951794 84.611 -0.906122 84.7536 -0.540745 84.8106C-0.221039 84.8677 0.144341 84.7251 0.464046 84.8391C1.37749 85.1243 1.37749 86.1224 1.78854 86.6072C2.10824 87.0349 2.47362 87.1205 2.93034 87.4627C3.34139 87.7763 3.20437 88.2611 3.52408 88.6318C3.6611 88.7744 3.88946 88.86 3.9808 89.0025C4.16349 89.2022 4.11782 89.4588 4.43752 89.6299C4.62021 89.744 4.93992 89.7155 5.07693 89.801C5.35097 89.9721 5.16828 90.2858 5.48798 90.4569C5.89903 90.3713 6.08172 90.1432 6.40143 90.0291C6.72113 90.2002 6.62979 90.4569 6.67546 90.7135C7.04084 90.7135 7.17785 90.571 7.49756 90.4854C7.77159 90.3999 7.90861 90.4284 8.18264 90.3428C8.54802 90.2573 8.95907 90.0862 9.32444 89.9721C9.87251 90.3428 9.87251 90.3428 10.5576 90.1717C10.6489 90.685 11.1513 90.7135 11.7907 90.7421C11.8821 91.2839 12.3388 91.3694 12.6585 91.8542C13.0696 92.3675 13.1152 92.5386 14.0287 92.1108C14.5311 92.453 13.983 92.9663 14.3027 93.3371C15.0791 93.28 14.8051 93.7363 14.8965 94.05C14.9878 94.4777 15.2162 94.8769 15.3988 95.2477C15.4902 95.4473 15.5359 96.2457 15.8556 96.3598C16.5406 96.6164 16.5406 95.7324 17.2714 95.8465C17.3171 96.9872 19.3723 95.932 20.0574 95.6754C20.8338 95.3902 21.1079 95.3617 21.6559 95.7895C22.204 96.1887 22.341 96.1602 23.1174 96.2172C24.2136 96.3028 23.2545 96.6735 23.8939 97.0727C24.2592 97.3008 24.5789 97.0727 24.9443 97.1583C25.3097 97.2438 25.264 97.3294 25.4467 97.5575C25.6751 97.8141 25.8121 98.0138 26.2688 98.1278C26.6342 98.2134 26.8169 98.0993 27.1366 98.2704C27.365 98.413 27.2279 98.5841 27.4106 98.7267C27.7303 98.9548 28.0957 98.8978 28.5524 98.9263C28.6438 99.2685 28.5524 100.038 29.1918 100.21C29.7856 100.381 29.5115 100.067 29.8769 100.067C30.4707 100.067 30.0139 99.9814 30.425 100.21C30.836 100.438 30.836 100.723 31.5668 100.552C32.0235 100.438 32.4802 99.8103 33.074 100.038C33.3937 100.152 33.1653 100.637 33.485 100.78C33.8047 100.922 34.0788 100.723 34.3528 100.609C34.6725 100.495 34.9465 100.324 35.3119 100.267C35.8143 100.181 35.997 100.324 36.4537 100.381C37.5955 100.523 38.1436 99.8958 39.0114 99.5822C39.8791 99.2685 39.9705 99.6392 40.6099 99.8388C40.7926 99.5822 40.9296 99.2685 41.295 99.0689C41.7974 99.0974 41.4776 99.7818 41.843 100.038C42.2541 100.067 42.4368 99.8673 42.7108 99.7247C43.2132 100.038 42.9848 100.694 43.6699 100.951C43.8526 101.008 44.492 101.065 44.6747 101.122C45.1771 101.236 45.6795 101.379 46.1362 101.55C47.0953 101.921 47.8261 102.291 48.8765 102.519C49.6073 102.69 50.3381 102.776 51.0231 102.947C52.2106 103.204 52.302 103.888 53.7178 103.574C54.4485 103.403 55.1793 102.947 56.0471 103.118C56.5951 103.232 56.8235 103.631 57.3716 103.717C57.7826 103.774 58.2393 103.631 58.6047 103.689C58.8331 103.717 59.1071 103.831 59.3355 103.917C60.0206 104.116 61.1167 104.202 61.6648 104.487C62.0758 104.687 62.0758 105.057 62.6239 105.2C63.2633 105.342 63.72 105.029 64.3594 105.057C64.5878 105.371 64.9531 105.713 65.5926 105.742C66.506 105.742 66.9171 105.314 67.8305 105.685C68.6526 106.027 68.7896 106.312 69.8857 105.998C70.7992 105.713 71.6213 105.542 72.6261 105.342C73.1741 105.228 73.6309 105.257 74.1333 105.171C75.0924 105.029 75.9145 104.63 76.5996 104.259C77.0563 104.002 78.0611 103.175 78.6548 103.118C79.3399 103.061 79.4312 103.46 80.2533 103.204C81.1668 102.919 81.6235 102.263 82.5369 101.978C83.1763 101.778 83.9528 101.664 84.6379 101.521C86.6474 101.036 88.4286 100.01 90.4839 99.6107C91.1233 99.4966 91.5343 99.7533 92.1281 99.5822C92.8132 99.4111 93.4526 99.0689 94.092 98.8692C94.503 98.7552 94.9141 98.8122 95.2795 98.6696C95.7819 98.4985 96.1016 98.0993 96.604 97.8712C96.9237 98.0708 96.741 98.5556 97.2434 98.5841C97.7001 98.2704 97.7914 98.0423 98.4765 98.0138C99.1616 97.9567 99.801 98.1278 100.44 98.0993C101.719 98.0708 102.861 97.7571 103.957 97.3579C104.597 97.1297 105.464 96.5879 106.241 96.5024C106.698 96.4453 106.743 96.702 107.2 96.4739C107.702 96.2457 107.52 96.0176 108.205 96.3028C108.433 96.4168 108.524 96.6164 108.844 96.6735C109.255 96.7875 109.94 96.5879 110.306 96.5024C110.808 96.3883 111.539 96.2172 112.132 96.3028C112.863 96.4168 113.137 96.9586 113.731 97.2438C114.644 97.7001 115.832 97.529 116.745 97.9567C117.522 98.2989 117.887 98.6411 118.892 98.8122C119.668 98.9548 119.668 99.1544 120.262 99.4396C120.856 99.7247 121.358 99.4681 121.952 99.3255C122.591 99.1544 122.82 99.1259 123.231 99.354C123.916 99.7247 124.053 99.8103 125.058 99.5536C126.337 99.2114 126.793 99.1829 127.889 99.6392C128.803 100.01 128.94 99.6962 129.899 99.7247C130.493 100.038 129.945 100.694 130.447 101.094C130.584 101.208 130.949 101.236 131.086 101.322C131.269 101.436 131.406 101.664 131.543 101.806C132.502 102.947 134.238 103.232 135.973 103.803C136.704 104.031 137.481 104.487 138.394 104.458C139.216 104.43 139.718 104.031 140.495 103.888C141.591 103.66 141.591 104.202 142.55 104.088C143.966 103.917 144.788 102.462 146.341 102.434C146.615 102.434 146.889 102.605 147.209 102.605C147.62 102.605 147.848 102.462 148.214 102.405C148.762 102.291 149.218 102.263 149.766 102.177C150.451 102.092 150.954 101.664 151.685 101.664C151.959 101.664 152.187 101.778 152.461 101.835C153.1 101.921 153.649 101.806 154.197 101.635C155.064 101.35 155.841 100.837 156.709 100.637C157.805 100.381 157.759 100.808 158.581 100.951C159.54 101.122 160.454 100.409 161.276 100.124C162.509 99.6962 163.148 100.01 164.473 100.124C165.295 100.181 166.345 100.352 167.122 100.181C168.218 99.9529 169.36 98.7552 170.639 98.8407C171.369 98.8978 171.324 99.1544 172.1 98.9263C172.602 98.7837 172.876 98.4415 173.47 98.413C174.155 98.3845 174.429 98.7267 175.023 98.8978C176.393 99.2685 178.083 98.6981 179.408 98.4415C180.869 98.1563 181.691 98.7552 183.107 98.6696C184.158 98.6126 185.162 98.0993 186.258 98.2419C186.898 98.3274 188.04 98.4985 188.588 98.6981C189.684 99.0689 189.958 99.9814 190.323 100.666C190.963 101.892 192.013 103.033 192.607 104.259C193.064 105.114 193.338 106.027 193.84 106.854C194.342 107.681 194.16 108.593 194.16 109.449C194.16 110.647 193.931 111.816 193.886 113.013C193.84 114.411 193.064 115.808 192.698 117.177C192.104 119.487 192.378 121.796 192.333 124.106C192.241 127.044 191.967 130.038 190.506 132.832C189.41 134.943 187.081 137.081 184.477 138.621C182.833 139.591 181.143 140.275 178.951 140.646C176.393 141.074 173.516 141.045 170.913 141.131C166.939 141.245 162.966 141.416 158.992 141.729C153.283 142.214 147.62 142.927 141.956 143.498C135.973 144.096 129.99 144.638 123.962 145.123C108.57 146.349 92.9045 146.919 77.376 146.492C70.5252 146.292 63.6743 146.121 56.8235 145.722C50.4751 145.38 44.1723 144.809 37.8695 144.296C30.836 143.726 23.7568 143.612 16.7233 143.241C12.2018 143.013 6.94949 142.956 2.93034 141.444C-3.64645 138.963 -4.60557 133.859 -5.61035 129.553C-7.11754 123.279 -7.16321 117.034 -6.70649 110.704C-6.29544 105.342 -5.56468 100.01 -5.88439 94.6488C-6.0214 92.6812 -6.38678 90.7706 -5.83872 88.8314C-5.56468 87.9189 -5.15363 86.8923 -4.65124 85.9798C-4.51422 85.7517 -3.92048 84.7821 -3.41809 85.0673C-3.32675 84.9532 -3.2354 84.8677 -3.14406 84.7821Z" fill="#153058"/>
<path d="M57.7771 78.5647C60.8447 78.5647 63.3315 76.0897 63.3315 73.0365C63.3315 69.9833 60.8447 67.5083 57.7771 67.5083C54.7095 67.5083 52.2227 69.9833 52.2227 73.0365C52.2227 76.0897 54.7095 78.5647 57.7771 78.5647Z" fill="#FFF7EA"/>
<path opacity="0.5" fill-rule="evenodd" clip-rule="evenodd" d="M15.2804 -1C19.9602 -1 22.2317 2.96163 22.779 7.04578C24.9547 4.97648 33.2744 5.60272 38.1595 7.30445C44.7277 9.57796 47.9023 12.2463 54.3063 12.2463H11.2026H-4V8.52969C-1.63272 7.04578 1.3777 5.0037 7.27538 6.52845C7.27538 1.65469 11.5721 -1 15.2804 -1Z" fill="white"/>
<path opacity="0.5" fill-rule="evenodd" clip-rule="evenodd" d="M140.353 5.11557C137.95 5.11557 136.786 7.14765 136.507 9.24746C135.39 8.18401 131.114 8.50914 128.609 9.37616C125.239 10.5412 123.612 11.9163 120.316 11.9163H142.444H157.463C158.865 11.9163 154.794 10.6699 151.894 10.6699C150.185 10.6699 148.946 7.82501 144.459 8.97652C144.466 6.47706 142.26 5.11557 140.353 5.11557Z" fill="white"/>
<path opacity="0.5" fill-rule="evenodd" clip-rule="evenodd" d="M98.0986 54.5991C95.2797 54.5991 93.9114 56.9815 93.5829 59.4456C92.2693 58.1932 87.2611 58.5744 84.3054 59.5954C80.3508 60.9704 78.4351 62.5768 74.5763 62.5768H100.548H118.173C119.828 62.5768 115.039 61.1201 111.645 61.1201C109.634 61.1201 108.183 57.7848 102.929 59.1325C102.915 56.2055 100.329 54.5991 98.0986 54.5991Z" fill="white"/>
</g>
<path d="M21.62 19.04H17.54V32H21.4C25.4 32 28.56 30.02 28.56 25.52C28.56 20.68 25.8 19.04 21.62 19.04ZM21.06 30.06H19.82V20.98H21.66C24.64 20.98 26.12 22.28 26.12 25.52C26.12 29.22 24.22 30.06 21.06 30.06ZM39.6836 19.04H30.4636L30.2236 21H36.6236L29.8236 30.9V32H39.4636V30.04H32.9236L39.6836 20.14V19.04ZM42.0713 32H44.3513V19.04H42.0713V32ZM52.2823 25.2L57.7623 19.18V19.04H55.1823L49.7223 25.14V19.04H47.4423V32H49.7223V25.46L55.2423 32H58.0223V31.86L52.2823 25.2ZM59.747 32H62.027V19.04H59.747V32ZM71.3381 26.82C73.3181 26.24 74.2781 24.74 74.2781 22.96C74.2781 20.7 72.6781 19.04 69.3981 19.04H65.1181V32H67.3981V27.1H68.9581L72.4581 32H75.0381V31.86L71.3381 26.82ZM67.3981 20.92H69.3781C71.0181 20.92 71.9181 21.64 71.9181 23.04C71.9181 24.54 70.9181 25.3 69.1181 25.3H67.3981V20.92ZM21.96 37.04H17.54V50H19.82V45.42H21.84C25.24 45.42 26.88 43.48 26.88 41.08C26.88 38.74 25.28 37.04 21.96 37.04ZM21.64 43.54H19.82V38.92H21.92C23.62 38.92 24.52 39.68 24.52 41.16C24.52 42.78 23.52 43.54 21.64 43.54ZM33.9581 37.04H31.1381L26.3781 49.86V50H28.7181L29.9181 46.56H35.1181L36.3381 50H38.7381V49.86L33.9581 37.04ZM30.5581 44.72L32.4981 39.16L34.4581 44.72H30.5581ZM45.1614 42.7L44.9014 44.58H47.9814V47.88C47.3214 48.12 46.5614 48.3 45.6014 48.3C42.7414 48.3 41.6614 46.5 41.6614 43.46C41.6614 40.6 42.8414 38.7 45.7414 38.7C47.1414 38.7 48.2014 39.16 48.9814 39.66L49.9414 37.98C48.7014 37.2 47.2814 36.78 45.5814 36.78C42.2214 36.78 39.2814 38.66 39.2814 43.56C39.2814 47.38 41.0014 50.26 45.5014 50.26C47.3014 50.26 48.6614 49.86 50.2614 49.08V42.7H45.1614ZM52.872 50H55.152V37.04H52.872V50Z" fill="white"/>
<defs>
<linearGradient id="paint0_linear_143_461" x1="1.40382e-06" y1="114.103" x2="126.054" y2="-43.666" gradientUnits="userSpaceOnUse">
<stop stop-color="#FF4444"/>
<stop offset="1" stop-color="#FFEAC0"/>
</linearGradient>
<linearGradient id="paint1_linear_143_461" x1="1.40382e-06" y1="114.103" x2="126.054" y2="-43.6659" gradientUnits="userSpaceOnUse">
<stop stop-color="#FF4444"/>
<stop offset="1" stop-color="#FFEAC0"/>
</linearGradient>
<radialGradient id="paint2_radial_143_461" cx="0" cy="0" r="1" gradientUnits="userSpaceOnUse" gradientTransform="translate(57.6627 72.9226) scale(35.3141 35.1479)">
<stop stop-color="#FFC635"/>
<stop offset="0.1043" stop-color="#DDD62F"/>
<stop offset="0.3553" stop-color="#FDEE6B"/>
<stop offset="0.5794" stop-color="#532B18" stop-opacity="0"/>
<stop offset="0.7681" stop-color="#271510" stop-opacity="0"/>
<stop offset="0.9142" stop-color="#0C070C" stop-opacity="0"/>
<stop offset="1" stop-color="#02020A" stop-opacity="0"/>
</radialGradient>
<linearGradient id="paint3_linear_143_461" x1="87.5711" y1="107.968" x2="87.5711" y2="64.6862" gradientUnits="userSpaceOnUse">
<stop stop-color="#CE727F"/>
<stop offset="1" stop-color="#366BC9"/>
</linearGradient>
<linearGradient id="paint4_linear_143_461" x1="129.091" y1="71.6288" x2="129.091" y2="108.63" gradientUnits="userSpaceOnUse">
<stop stop-color="#4963A2"/>
<stop offset="1" stop-color="#513959"/>
</linearGradient>
</defs>
</svg>
