<svg width="64" height="64" viewBox="0 0 64 64" fill="none" xmlns="http://www.w3.org/2000/svg">
<path d="M14.32 26.18C13.9222 26.18 13.5407 26.022 13.2593 25.7407C12.978 25.4594 12.82 25.0778 12.82 24.68V14.32C12.82 13.9222 12.978 13.5407 13.2593 13.2593C13.5407 12.978 13.9222 12.82 14.32 12.82H24.68C25.0778 12.82 25.4594 12.978 25.7407 13.2593C26.022 13.5407 26.18 13.9222 26.18 14.32C26.18 14.7178 26.022 15.0994 25.7407 15.3807C25.4594 15.662 25.0778 15.82 24.68 15.82H15.82V24.68C15.82 25.0778 15.662 25.4594 15.3807 25.7407C15.0994 26.022 14.7178 26.18 14.32 26.18Z" fill="white"/>
<path d="M49.68 51.18H39.32C38.9222 51.18 38.5407 51.022 38.2593 50.7407C37.978 50.4594 37.82 50.0778 37.82 49.68C37.82 49.2822 37.978 48.9007 38.2593 48.6193C38.5407 48.338 38.9222 48.18 39.32 48.18H48.18V39.32C48.18 38.9222 48.338 38.5407 48.6193 38.2593C48.9007 37.978 49.2822 37.82 49.68 37.82C50.0778 37.82 50.4594 37.978 50.7407 38.2593C51.022 38.5407 51.18 38.9222 51.18 39.32V49.68C51.18 50.0778 51.022 50.4594 50.7407 50.7407C50.4594 51.022 50.0778 51.18 49.68 51.18Z" fill="white"/>
<path d="M49.68 26.18C49.2822 26.18 48.9007 26.022 48.6193 25.7407C48.338 25.4594 48.18 25.0778 48.18 24.68V15.82H39.32C38.9222 15.82 38.5407 15.662 38.2593 15.3807C37.978 15.0994 37.82 14.7178 37.82 14.32C37.82 13.9222 37.978 13.5407 38.2593 13.2593C38.5407 12.978 38.9222 12.82 39.32 12.82H49.68C50.0778 12.82 50.4594 12.978 50.7407 13.2593C51.022 13.5407 51.18 13.9222 51.18 14.32V24.68C51.18 25.0778 51.022 25.4594 50.7407 25.7407C50.4594 26.022 50.0778 26.18 49.68 26.18Z" fill="white"/>
<path d="M24.68 51.18H14.32C13.9222 51.18 13.5407 51.022 13.2593 50.7407C12.978 50.4594 12.82 50.0778 12.82 49.68V39.32C12.82 38.9222 12.978 38.5407 13.2593 38.2593C13.5407 37.978 13.9222 37.82 14.32 37.82C14.7178 37.82 15.0994 37.978 15.3807 38.2593C15.662 38.5407 15.82 38.9222 15.82 39.32V48.18H24.68C25.0778 48.18 25.4594 48.338 25.7407 48.6193C26.022 48.9007 26.18 49.2822 26.18 49.68C26.18 50.0778 26.022 50.4594 25.7407 50.7407C25.4594 51.022 25.0778 51.18 24.68 51.18Z" fill="white"/>
<path d="M39.32 15.82C38.9223 15.8196 38.541 15.6614 38.26 15.38L32 9.11999L25.74 15.38C25.4556 15.645 25.0795 15.7892 24.6909 15.7823C24.3023 15.7755 23.9316 15.6181 23.6567 15.3432C23.3819 15.0684 23.2245 14.6976 23.2176 14.309C23.2108 13.9204 23.355 13.5443 23.62 13.26L30.94 5.93999C31.2212 5.65909 31.6025 5.50131 32 5.50131C32.3975 5.50131 32.7787 5.65909 33.06 5.93999L40.38 13.26C40.5895 13.4698 40.7322 13.7369 40.7899 14.0277C40.8477 14.3185 40.818 14.6199 40.7046 14.8938C40.5911 15.1678 40.3991 15.4019 40.1527 15.5668C39.9062 15.7316 39.6165 15.8197 39.32 15.82Z" fill="white"/>
<path d="M49.68 40.82C49.3835 40.8197 49.0938 40.7316 48.8474 40.5668C48.6009 40.402 48.4089 40.1678 48.2954 39.8939C48.182 39.6199 48.1523 39.3185 48.2101 39.0277C48.2679 38.7369 48.4105 38.4698 48.62 38.26L54.88 32L48.62 25.74C48.3551 25.4557 48.2108 25.0796 48.2177 24.691C48.2245 24.3024 48.3819 23.9316 48.6568 23.6568C48.9316 23.3819 49.3024 23.2245 49.691 23.2177C50.0796 23.2108 50.4557 23.355 50.74 23.62L58.06 30.94C58.3409 31.2213 58.4987 31.6025 58.4987 32C58.4987 32.3975 58.3409 32.7788 58.06 33.06L50.74 40.38C50.459 40.6614 50.0777 40.8197 49.68 40.82Z" fill="white"/>
<path d="M14.32 40.82C13.9223 40.8197 13.5411 40.6614 13.26 40.38L5.94002 33.06C5.65912 32.7788 5.50134 32.3975 5.50134 32C5.50134 31.6025 5.65912 31.2213 5.94002 30.94L13.26 23.62C13.5444 23.355 13.9205 23.2108 14.3091 23.2177C14.6977 23.2245 15.0684 23.3819 15.3433 23.6568C15.6181 23.9316 15.7755 24.3024 15.7824 24.691C15.7892 25.0796 15.645 25.4557 15.38 25.74L9.12002 32L15.38 38.26C15.5895 38.4698 15.7322 38.7369 15.79 39.0277C15.8477 39.3185 15.818 39.6199 15.7046 39.8939C15.5912 40.1678 15.3991 40.402 15.1527 40.5668C14.9063 40.7316 14.6165 40.8197 14.32 40.82Z" fill="white"/>
<path d="M32 58.5C31.6023 58.4997 31.221 58.3414 30.94 58.06L23.62 50.74C23.355 50.4557 23.2108 50.0796 23.2176 49.691C23.2245 49.3024 23.3819 48.9316 23.6567 48.6568C23.9316 48.3819 24.3023 48.2245 24.6909 48.2177C25.0795 48.2108 25.4556 48.355 25.74 48.62L32 54.88L38.26 48.62C38.5443 48.355 38.9204 48.2108 39.309 48.2177C39.6976 48.2245 40.0684 48.3819 40.3432 48.6568C40.6181 48.9316 40.7755 49.3024 40.7823 49.691C40.7892 50.0796 40.645 50.4557 40.38 50.74L33.06 58.06C32.779 58.3414 32.3977 58.4997 32 58.5Z" fill="white"/>
<path d="M21.06 29C20.6622 29 20.2806 28.842 19.9993 28.5607C19.718 28.2794 19.56 27.8978 19.56 27.5V21.06C19.56 20.6622 19.718 20.2806 19.9993 19.9993C20.2806 19.718 20.6622 19.56 21.06 19.56H27.47C27.8678 19.56 28.2494 19.718 28.5307 19.9993C28.812 20.2806 28.97 20.6622 28.97 21.06C28.97 21.4578 28.812 21.8394 28.5307 22.1207C28.2494 22.402 27.8678 22.56 27.47 22.56H22.56V27.47C22.564 27.6695 22.5281 27.8678 22.4545 28.0532C22.381 28.2387 22.2711 28.4076 22.1314 28.5501C21.9917 28.6926 21.825 28.8058 21.641 28.883C21.4571 28.9603 21.2595 29 21.06 29Z" fill="white"/>
<path d="M42.94 44.44H36.53C36.1322 44.44 35.7507 44.282 35.4694 44.0007C35.1881 43.7194 35.03 43.3378 35.03 42.94C35.03 42.5422 35.1881 42.1606 35.4694 41.8793C35.7507 41.598 36.1322 41.44 36.53 41.44H41.44V36.53C41.44 36.1322 41.5981 35.7506 41.8794 35.4693C42.1607 35.188 42.5422 35.03 42.94 35.03C43.3379 35.03 43.7194 35.188 44.0007 35.4693C44.282 35.7506 44.44 36.1322 44.44 36.53V42.94C44.44 43.3378 44.282 43.7194 44.0007 44.0007C43.7194 44.282 43.3379 44.44 42.94 44.44Z" fill="white"/>
<path d="M42.94 29C42.5422 29 42.1607 28.842 41.8794 28.5607C41.5981 28.2794 41.44 27.8978 41.44 27.5V22.56H36.53C36.1322 22.56 35.7507 22.402 35.4694 22.1207C35.1881 21.8394 35.03 21.4578 35.03 21.06C35.03 20.6622 35.1881 20.2806 35.4694 19.9993C35.7507 19.718 36.1322 19.56 36.53 19.56H42.94C43.3379 19.56 43.7194 19.718 44.0007 19.9993C44.282 20.2806 44.44 20.6622 44.44 21.06V27.47C44.444 27.6695 44.4082 27.8678 44.3346 28.0532C44.261 28.2387 44.1511 28.4076 44.0114 28.5501C43.8718 28.6926 43.705 28.8058 43.5211 28.883C43.3371 28.9603 43.1396 29 42.94 29Z" fill="white"/>
<path d="M27.47 44.44H21.06C20.6622 44.44 20.2806 44.282 19.9993 44.0007C19.718 43.7194 19.56 43.3378 19.56 42.94V36.53C19.56 36.1322 19.718 35.7506 19.9993 35.4693C20.2806 35.188 20.6622 35.03 21.06 35.03C21.4578 35.03 21.8394 35.188 22.1207 35.4693C22.402 35.7506 22.56 36.1322 22.56 36.53V41.44H27.47C27.8678 41.44 28.2494 41.598 28.5307 41.8793C28.812 42.1606 28.97 42.5422 28.97 42.94C28.97 43.3378 28.812 43.7194 28.5307 44.0007C28.2494 44.282 27.8678 44.44 27.47 44.44Z" fill="white"/>
<path d="M36.53 22.56C36.1323 22.5596 35.7511 22.4014 35.47 22.12L32 18.65L28.53 22.12C28.2457 22.385 27.8696 22.5292 27.481 22.5223C27.0924 22.5155 26.7216 22.3581 26.4468 22.0832C26.172 21.8084 26.0145 21.4376 26.0077 21.049C26.0008 20.6604 26.1451 20.2843 26.41 20L30.94 15.47C31.2213 15.1891 31.6025 15.0313 32 15.0313C32.3975 15.0313 32.7788 15.1891 33.06 15.47L37.59 20C37.7995 20.2098 37.9422 20.4769 38 20.7677C38.0577 21.0585 38.028 21.3599 37.9146 21.6338C37.8012 21.9078 37.6091 22.1419 37.3627 22.3068C37.1163 22.4716 36.8265 22.5597 36.53 22.56Z" fill="white"/>
<path d="M42.94 38C42.6435 37.9997 42.3537 37.9116 42.1073 37.7468C41.8609 37.5819 41.6688 37.3478 41.5554 37.0738C41.442 36.7999 41.4123 36.4985 41.47 36.2077C41.5278 35.9169 41.6705 35.6498 41.88 35.44L45.35 32L41.88 28.53C41.615 28.2456 41.4708 27.8696 41.4776 27.481C41.4845 27.0924 41.6419 26.7216 41.9167 26.4468C42.1915 26.1719 42.5623 26.0145 42.9509 26.0076C43.3395 26.0008 43.7156 26.145 44 26.41L48.53 30.94C48.8109 31.2213 48.9686 31.6025 48.9686 32C48.9686 32.3975 48.8109 32.7787 48.53 33.06L44 37.59C43.7141 37.8604 43.3334 38.0077 42.94 38Z" fill="white"/>
<path d="M21.06 38C20.6666 38.0077 20.2859 37.8604 20 37.59L15.47 33.06C15.1891 32.7787 15.0313 32.3975 15.0313 32C15.0313 31.6025 15.1891 31.2213 15.47 30.94L20 26.41C20.2843 26.145 20.6604 26.0008 21.049 26.0076C21.4376 26.0145 21.8084 26.1719 22.0832 26.4468C22.3581 26.7216 22.5155 27.0924 22.5223 27.481C22.5292 27.8696 22.385 28.2456 22.12 28.53L18.65 32L22.12 35.47C22.3195 35.6811 22.4535 35.9457 22.5055 36.2314C22.5576 36.5172 22.5256 36.812 22.4133 37.0799C22.301 37.3479 22.1134 37.5774 21.8732 37.7408C21.6329 37.9041 21.3504 37.9942 21.06 38Z" fill="white"/>
<path d="M32 49C31.6023 48.9997 31.2211 48.8414 30.94 48.56L26.41 44C26.1451 43.7157 26.0008 43.3396 26.0077 42.951C26.0145 42.5624 26.172 42.1916 26.4468 41.9168C26.7216 41.6419 27.0924 41.4845 27.481 41.4777C27.8696 41.4708 28.2457 41.615 28.53 41.88L32 45.35L35.47 41.88C35.7544 41.615 36.1305 41.4708 36.5191 41.4777C36.9077 41.4845 37.2784 41.6419 37.5533 41.9168C37.8281 42.1916 37.9855 42.5624 37.9924 42.951C37.9992 43.3396 37.855 43.7157 37.59 44L33.06 48.53C32.9234 48.6748 32.7593 48.7909 32.5773 48.8716C32.3953 48.9523 32.1991 48.9959 32 49Z" fill="white"/>
</svg>
