<svg width="64" height="64" viewBox="0 0 64 64" fill="none" xmlns="http://www.w3.org/2000/svg">
<path d="M32 49.33C31.6968 49.3318 31.4003 49.2411 31.15 49.07C29.8274 48.1651 28.3874 47.4451 26.87 46.93C25.4374 46.4507 23.9543 46.1386 22.45 46C20.6467 45.8797 18.8776 45.4501 17.22 44.73C15.3493 43.8513 13.6783 42.5989 12.31 41.05C12.0611 40.7762 11.9222 40.42 11.92 40.05V18.86C11.9185 18.5839 11.9933 18.3127 12.136 18.0764C12.2787 17.8401 12.484 17.6477 12.729 17.5205C12.9741 17.3933 13.2495 17.3363 13.5249 17.3556C13.8003 17.3749 14.0651 17.4698 14.29 17.63C15.5864 18.5497 17.0164 19.2648 18.53 19.75C20.3254 20.2797 22.1881 20.5458 24.06 20.54C26.35 20.63 28.51 20.71 30.6 22.31C31.5144 23.038 32.2508 23.9648 32.7534 25.0201C33.2559 26.0753 33.5112 27.2312 33.5 28.4V47.83C33.5 48.2278 33.342 48.6093 33.0607 48.8906C32.7794 49.172 32.3978 49.33 32 49.33ZM14.92 39.5C15.9402 40.5438 17.1435 41.3912 18.47 42C19.8385 42.5787 21.2965 42.917 22.78 43C24.4962 43.1378 26.1908 43.4733 27.83 44C28.7421 44.3099 29.6309 44.6842 30.49 45.12V28.4C30.5024 27.6957 30.355 26.9977 30.0588 26.3586C29.7626 25.7195 29.3254 25.1558 28.78 24.71C27.43 23.71 25.96 23.62 23.94 23.54C21.7961 23.5384 19.6638 23.2251 17.61 22.61C16.6854 22.3157 15.7859 21.9479 14.92 21.51V39.5Z" fill="white"/>
<path d="M32 49.33C31.6022 49.33 31.2207 49.172 30.9394 48.8907C30.6581 48.6094 30.5 48.2278 30.5 47.83V28.4C30.4903 27.2378 30.7444 26.0886 31.2433 25.0389C31.7421 23.9891 32.4727 23.0663 33.38 22.34C35.5 20.71 37.66 20.63 39.95 20.55C41.8219 20.5558 43.6847 20.2897 45.48 19.76C46.9936 19.2748 48.4237 18.5598 49.72 17.64C49.9449 17.4799 50.2097 17.3849 50.4851 17.3656C50.7605 17.3463 51.036 17.4033 51.281 17.5305C51.5261 17.6577 51.7313 17.8501 51.874 18.0864C52.0168 18.3228 52.0915 18.5939 52.09 18.87V40.09C52.0878 40.46 51.9489 40.8162 51.7 41.09C50.3317 42.6389 48.6607 43.8913 46.79 44.77C45.1268 45.4774 43.3543 45.8935 41.55 46C40.044 46.1249 38.5574 46.4235 37.12 46.89C35.6026 47.4052 34.1626 48.1251 32.84 49.03C32.5972 49.2134 32.3041 49.3181 32 49.33ZM49.08 21.51C48.2142 21.9479 47.3146 22.3157 46.39 22.61C44.3362 23.2251 42.2039 23.5384 40.06 23.54C38.06 23.62 36.57 23.67 35.24 24.69C34.687 25.1354 34.2429 25.7011 33.9414 26.344C33.6399 26.9868 33.4889 27.69 33.5 28.4V45.2C34.3591 44.7642 35.248 44.3899 36.16 44.08C37.7992 43.5534 39.4938 43.2178 41.21 43.08C42.6935 42.997 44.1515 42.6587 45.52 42.08C46.8505 41.4563 48.0541 40.5917 49.07 39.53L49.08 21.51Z" fill="white"/>
<path d="M32 54.5C30.6805 54.4999 29.3653 54.3489 28.08 54.05C26.61 53.71 25.16 53.34 23.77 52.95C20.2484 52.0588 16.8013 50.8953 13.46 49.47C11.6805 48.6879 9.9446 47.8099 8.26001 46.84C8.03184 46.7083 7.84239 46.5188 7.71073 46.2906C7.57907 46.0623 7.50984 45.8035 7.51001 45.54V27.69C7.51058 27.426 7.58081 27.1668 7.71363 26.9386C7.84644 26.7105 8.03713 26.5214 8.26642 26.3905C8.49571 26.2596 8.75548 26.1916 9.01949 26.1932C9.2835 26.1949 9.54239 26.2662 9.77001 26.4C10.8335 27.0382 11.9552 27.574 13.12 28C13.3188 28.0546 13.5043 28.1496 13.6647 28.2791C13.8252 28.4085 13.9572 28.5697 14.0526 28.7524C14.148 28.9352 14.2047 29.1357 14.2191 29.3414C14.2336 29.547 14.2055 29.7535 14.1366 29.9478C14.0677 30.1421 13.9594 30.3201 13.8186 30.4708C13.6779 30.6214 13.5075 30.7414 13.3183 30.8232C13.1291 30.905 12.925 30.947 12.7188 30.9465C12.5126 30.9459 12.3088 30.9029 12.12 30.82C11.58 30.6267 11.0467 30.41 10.52 30.17V44.68C11.86 45.42 13.25 46.11 14.68 46.74C17.8894 48.1031 21.1992 49.2165 24.58 50.07C25.94 50.44 27.35 50.8 28.78 51.14C30.9155 51.6311 33.1345 51.6311 35.27 51.14C36.7 50.81 38.11 50.45 39.46 50.07C42.8443 49.2172 46.1575 48.1039 49.37 46.74C50.8 46.11 52.19 45.42 53.53 44.68V30.15C53.0033 30.3833 52.47 30.6 51.93 30.8C51.7412 30.8829 51.5374 30.9259 51.3312 30.9265C51.125 30.927 50.921 30.885 50.7317 30.8032C50.5425 30.7214 50.3722 30.6014 50.2314 30.4508C50.0906 30.3001 49.9824 30.1221 49.9135 29.9278C49.8445 29.7335 49.8164 29.527 49.8309 29.3214C49.8453 29.1157 49.902 28.9152 49.9974 28.7324C50.0928 28.5497 50.2248 28.3885 50.3853 28.2591C50.5458 28.1296 50.7312 28.0346 50.93 27.98C52.0941 27.5604 53.2158 27.0313 54.28 26.4C54.5079 26.2637 54.7678 26.1903 55.0333 26.1874C55.2988 26.1844 55.5603 26.252 55.7911 26.3832C56.022 26.5143 56.2138 26.7044 56.3472 26.934C56.4805 27.1636 56.5505 27.4245 56.55 27.69V45.55C56.5502 45.8135 56.4809 46.0723 56.3493 46.3005C56.2176 46.5288 56.0282 46.7183 55.8 46.85C54.1154 47.8199 52.3796 48.6978 50.6 49.48C47.2405 50.9221 43.7732 52.099 40.23 53C38.84 53.38 37.39 53.75 35.92 54.1C34.6328 54.382 33.3176 54.5162 32 54.5Z" fill="white"/>
<path d="M32 16.5C30.8065 16.5 29.6619 16.0259 28.818 15.182C27.9741 14.3381 27.5 13.1935 27.5 12C27.5 10.8065 27.9741 9.66193 28.818 8.81802C29.6619 7.97411 30.8065 7.5 32 7.5C32.3978 7.5 32.7794 7.65804 33.0607 7.93934C33.342 8.22064 33.5 8.60218 33.5 9C33.5 9.39782 33.342 9.77936 33.0607 10.0607C32.7794 10.342 32.3978 10.5 32 10.5C31.7253 10.5011 31.4561 10.5776 31.2218 10.7212C30.9876 10.8648 30.7973 11.0699 30.6717 11.3143C30.5461 11.5587 30.49 11.8328 30.5096 12.1069C30.5292 12.3809 30.6237 12.6443 30.7827 12.8684C30.9418 13.0924 31.1593 13.2684 31.4116 13.3773C31.6639 13.4861 31.9412 13.5236 32.2133 13.4856C32.4854 13.4476 32.7418 13.3355 32.9546 13.1617C33.1674 12.9879 33.3284 12.759 33.42 12.5C33.5526 12.1247 33.8289 11.8175 34.188 11.6459C34.5471 11.4743 34.9597 11.4524 35.335 11.585C35.7103 11.7176 36.0175 11.9939 36.1891 12.353C36.3607 12.7121 36.3826 13.1247 36.25 13.5C35.9381 14.3777 35.3621 15.1374 34.6011 15.6745C33.8401 16.2117 32.9315 16.5001 32 16.5Z" fill="white"/>
<path d="M9.00002 52.5C8.66951 52.5004 8.34814 52.3916 8.08582 52.1905C7.82351 51.9894 7.63495 51.7074 7.54943 51.3881C7.46392 51.0689 7.48624 50.7303 7.61293 50.425C7.73962 50.1198 7.96358 49.8649 8.25002 49.7L13.3 46.81C13.6432 46.6342 14.041 46.5974 14.4106 46.7071C14.7803 46.8168 15.0935 47.0647 15.2853 47.3993C15.477 47.7338 15.5325 48.1294 15.4403 48.5038C15.3481 48.8782 15.1152 49.2028 14.79 49.41L9.75002 52.3C9.52208 52.4318 9.2633 52.5008 9.00002 52.5Z" fill="white"/>
<path d="M56 52.5C55.7401 52.499 55.485 52.4301 55.26 52.3L50.2 49.41C49.8748 49.2028 49.642 48.8782 49.5498 48.5038C49.4575 48.1294 49.5131 47.7338 49.7048 47.3993C49.8965 47.0647 50.2097 46.8168 50.5794 46.7071C50.9491 46.5974 51.3468 46.6342 51.69 46.81L56.74 49.7C57.0257 49.8645 57.2493 50.1185 57.3762 50.4227C57.5031 50.727 57.5262 51.0646 57.4419 51.3833C57.3577 51.702 57.1708 51.9841 56.9102 52.186C56.6496 52.3878 56.3297 52.4982 56 52.5Z" fill="white"/>
</svg>
