<svg width="32" height="46" viewBox="0 0 32 46" fill="none" xmlns="http://www.w3.org/2000/svg">
<g opacity="0.7">
<path d="M26.365 26.25H5.63501C5.4361 26.25 5.24533 26.171 5.10468 26.0303C4.96403 25.8897 4.88501 25.6989 4.88501 25.5V13C4.88501 12.8011 4.96403 12.6103 5.10468 12.4697C5.24533 12.329 5.4361 12.25 5.63501 12.25H26.365C26.5639 12.25 26.7547 12.329 26.8953 12.4697C27.036 12.6103 27.115 12.8011 27.115 13V25.5C27.115 25.6989 27.036 25.8897 26.8953 26.0303C26.7547 26.171 26.5639 26.25 26.365 26.25ZM6.36501 24.75H25.615V13.75H6.38501L6.36501 24.75Z" fill="white"/>
<path d="M26.365 13.75H5.63501C5.4361 13.75 5.24533 13.671 5.10468 13.5303C4.96403 13.3897 4.88501 13.1989 4.88501 13V8.5C4.88501 8.30109 4.96403 8.11032 5.10468 7.96967C5.24533 7.82902 5.4361 7.75 5.63501 7.75H8.40001C8.59892 7.75 8.78969 7.82902 8.93034 7.96967C9.07099 8.11032 9.15001 8.30109 9.15001 8.5C9.15001 8.69891 9.07099 8.88968 8.93034 9.03033C8.78969 9.17098 8.59892 9.25 8.40001 9.25H6.40001V12.25H25.615V9.25H23.615C23.4161 9.25 23.2253 9.17098 23.0847 9.03033C22.944 8.88968 22.865 8.69891 22.865 8.5C22.865 8.30109 22.944 8.11032 23.0847 7.96967C23.2253 7.82902 23.4161 7.75 23.615 7.75H26.38C26.5789 7.75 26.7697 7.82902 26.9103 7.96967C27.051 8.11032 27.13 8.30109 27.13 8.5V13C27.13 13.0998 27.1101 13.1985 27.0715 13.2905C27.0329 13.3825 26.9763 13.4659 26.9051 13.5357C26.8338 13.6055 26.7494 13.6605 26.6566 13.6973C26.5639 13.7341 26.4648 13.752 26.365 13.75Z" fill="white"/>
<path d="M19.8 9.25H12.2C12.0011 9.25 11.8103 9.17098 11.6697 9.03033C11.529 8.88968 11.45 8.69891 11.45 8.5C11.45 8.30109 11.529 8.11032 11.6697 7.96967C11.8103 7.82902 12.0011 7.75 12.2 7.75H19.8C19.9989 7.75 20.1897 7.82902 20.3303 7.96967C20.471 8.11032 20.55 8.30109 20.55 8.5C20.55 8.69891 20.471 8.88968 20.3303 9.03033C20.1897 9.17098 19.9989 9.25 19.8 9.25Z" fill="white"/>
<path d="M12.2 10.75H8.745C8.54696 10.7487 8.35747 10.6691 8.2179 10.5286C8.07833 10.3881 8 10.198 8 10V6.5C8 6.30109 8.07902 6.11032 8.21967 5.96967C8.36032 5.82902 8.55109 5.75 8.75 5.75H12.2C12.3989 5.75 12.5897 5.82902 12.7303 5.96967C12.871 6.11032 12.95 6.30109 12.95 6.5V10C12.95 10.1989 12.871 10.3897 12.7303 10.5303C12.5897 10.671 12.3989 10.75 12.2 10.75ZM9.5 9.25H11.45V7.25H9.5V9.25Z" fill="white"/>
<path d="M23.255 10.75H19.8C19.6011 10.75 19.4103 10.671 19.2697 10.5303C19.129 10.3897 19.05 10.1989 19.05 10V6.5C19.05 6.30109 19.129 6.11032 19.2697 5.96967C19.4103 5.82902 19.6011 5.75 19.8 5.75H23.255C23.453 5.75132 23.6425 5.83092 23.7821 5.97143C23.9217 6.11194 24 6.30195 24 6.5V10C24 10.198 23.9217 10.3881 23.7821 10.5286C23.6425 10.6691 23.453 10.7487 23.255 10.75ZM20.55 9.25H22.5V7.25H20.55V9.25Z" fill="white"/>
<path d="M14.895 15.525H14.255C13.9071 15.525 13.625 15.8071 13.625 16.155V16.795C13.625 17.1429 13.9071 17.425 14.255 17.425H14.895C15.2429 17.425 15.525 17.1429 15.525 16.795V16.155C15.525 15.8071 15.2429 15.525 14.895 15.525Z" fill="white"/>
<path d="M17.745 15.525H17.105C16.757 15.525 16.475 15.8071 16.475 16.155V16.795C16.475 17.1429 16.757 17.425 17.105 17.425H17.745C18.0929 17.425 18.375 17.1429 18.375 16.795V16.155C18.375 15.8071 18.0929 15.525 17.745 15.525Z" fill="white"/>
<path d="M20.595 15.525H19.955C19.6071 15.525 19.325 15.8071 19.325 16.155V16.795C19.325 17.1429 19.6071 17.425 19.955 17.425H20.595C20.943 17.425 21.225 17.1429 21.225 16.795V16.155C21.225 15.8071 20.943 15.525 20.595 15.525Z" fill="white"/>
<path d="M23.445 15.525H22.805C22.457 15.525 22.175 15.8071 22.175 16.155V16.795C22.175 17.1429 22.457 17.425 22.805 17.425H23.445C23.7929 17.425 24.075 17.1429 24.075 16.795V16.155C24.075 15.8071 23.7929 15.525 23.445 15.525Z" fill="white"/>
<path d="M14.895 18.375H14.255C13.9071 18.375 13.625 18.6571 13.625 19.005V19.645C13.625 19.9929 13.9071 20.275 14.255 20.275H14.895C15.2429 20.275 15.525 19.9929 15.525 19.645V19.005C15.525 18.6571 15.2429 18.375 14.895 18.375Z" fill="white"/>
<path d="M17.745 18.375H17.105C16.757 18.375 16.475 18.6571 16.475 19.005V19.645C16.475 19.9929 16.757 20.275 17.105 20.275H17.745C18.0929 20.275 18.375 19.9929 18.375 19.645V19.005C18.375 18.6571 18.0929 18.375 17.745 18.375Z" fill="white"/>
<path d="M20.595 18.375H19.955C19.6071 18.375 19.325 18.6571 19.325 19.005V19.645C19.325 19.9929 19.6071 20.275 19.955 20.275H20.595C20.943 20.275 21.225 19.9929 21.225 19.645V19.005C21.225 18.6571 20.943 18.375 20.595 18.375Z" fill="white"/>
<path d="M23.445 18.375H22.805C22.457 18.375 22.175 18.6571 22.175 19.005V19.645C22.175 19.9929 22.457 20.275 22.805 20.275H23.445C23.7929 20.275 24.075 19.9929 24.075 19.645V19.005C24.075 18.6571 23.7929 18.375 23.445 18.375Z" fill="white"/>
<path d="M14.895 21.225H14.255C13.9071 21.225 13.625 21.5071 13.625 21.855V22.495C13.625 22.8429 13.9071 23.125 14.255 23.125H14.895C15.2429 23.125 15.525 22.8429 15.525 22.495V21.855C15.525 21.5071 15.2429 21.225 14.895 21.225Z" fill="white"/>
<path d="M12.045 18.375H11.405C11.0571 18.375 10.775 18.6571 10.775 19.005V19.645C10.775 19.9929 11.0571 20.275 11.405 20.275H12.045C12.393 20.275 12.675 19.9929 12.675 19.645V19.005C12.675 18.6571 12.393 18.375 12.045 18.375Z" fill="white"/>
<path d="M12.045 21.225H11.405C11.0571 21.225 10.775 21.5071 10.775 21.855V22.495C10.775 22.8429 11.0571 23.125 11.405 23.125H12.045C12.393 23.125 12.675 22.8429 12.675 22.495V21.855C12.675 21.5071 12.393 21.225 12.045 21.225Z" fill="white"/>
<path d="M9.19499 18.375H8.55499C8.20705 18.375 7.92499 18.6571 7.92499 19.005V19.645C7.92499 19.9929 8.20705 20.275 8.55499 20.275H9.19499C9.54293 20.275 9.82499 19.9929 9.82499 19.645V19.005C9.82499 18.6571 9.54293 18.375 9.19499 18.375Z" fill="white"/>
<path d="M9.19499 21.225H8.55499C8.20705 21.225 7.92499 21.5071 7.92499 21.855V22.495C7.92499 22.8429 8.20705 23.125 8.55499 23.125H9.19499C9.54293 23.125 9.82499 22.8429 9.82499 22.495V21.855C9.82499 21.5071 9.54293 21.225 9.19499 21.225Z" fill="white"/>
<path d="M17.745 21.225H17.105C16.757 21.225 16.475 21.5071 16.475 21.855V22.495C16.475 22.8429 16.757 23.125 17.105 23.125H17.745C18.0929 23.125 18.375 22.8429 18.375 22.495V21.855C18.375 21.5071 18.0929 21.225 17.745 21.225Z" fill="white"/>
<path d="M8.21694 35.816V38.048H5.35294V35.816H4.61694V41H5.35294V38.672H8.21694V41H8.95294V35.816H8.21694ZM10.4976 36.784C10.7696 36.784 10.9936 36.56 10.9936 36.296C10.9936 36.024 10.7696 35.8 10.4976 35.8C10.2336 35.8 10.0096 36.024 10.0096 36.296C10.0096 36.56 10.2336 36.784 10.4976 36.784ZM10.1616 41H10.8496V37.416L10.1616 37.496V41ZM13.1103 41.096C14.0463 41.096 14.5343 40.64 14.5343 40.016C14.5343 39.432 14.1663 39.104 13.2703 38.872L13.0223 38.808C12.5903 38.696 12.4303 38.592 12.4303 38.368C12.4303 38.112 12.6623 37.944 13.0463 37.944C13.4062 37.944 13.6863 38.024 14.1263 38.256L14.4063 37.768C13.9263 37.496 13.4943 37.4 13.0383 37.4C12.2783 37.4 11.7263 37.808 11.7263 38.408C11.7263 38.936 12.0703 39.224 12.8063 39.416L13.0543 39.48C13.6623 39.64 13.8303 39.824 13.8303 40.064C13.8303 40.384 13.5583 40.552 13.0863 40.552C12.7103 40.552 12.2943 40.44 11.8703 40.136L11.5663 40.624C11.9903 40.936 12.4703 41.096 13.1103 41.096ZM17.2793 40.384C17.0793 40.472 16.9033 40.52 16.7033 40.52C16.3753 40.52 16.2073 40.304 16.2073 39.848V38.04H17.3193L17.3913 37.496H16.2073V36.592L15.5193 36.704V37.496H14.8153V38.04H15.5193V39.96C15.5193 40.744 15.9513 41.096 16.5913 41.096C16.9753 41.096 17.2633 40.984 17.4713 40.872L17.2793 40.384ZM19.4756 41.096C20.4596 41.096 21.2916 40.592 21.2916 39.248C21.2916 38.224 20.7716 37.4 19.6116 37.4C18.6276 37.4 17.7956 37.896 17.7956 39.24C17.7956 40.256 18.3156 41.096 19.4756 41.096ZM19.5396 40.536C18.8276 40.536 18.5156 39.992 18.5156 39.24C18.5156 38.496 18.7716 37.96 19.5636 37.96C20.2676 37.96 20.5716 38.496 20.5716 39.24C20.5716 39.992 20.3156 40.536 19.5396 40.536ZM23.8423 37.4C23.4503 37.4 23.0903 37.576 22.8183 37.92V37.416L22.1303 37.488V41H22.8183V38.616C23.1063 38.16 23.4103 38.08 23.7063 38.08C23.9143 38.08 24.0903 38.136 24.2023 38.176L24.3303 37.464C24.1543 37.416 24.0263 37.4 23.8423 37.4ZM27.2611 37.496L26.4931 39.736C26.4211 39.952 26.3491 40.168 26.2931 40.352C26.2371 40.176 26.1731 40.008 26.0771 39.736L25.2531 37.496H24.5251V37.544L25.8691 41H26.0531L25.9571 41.256C25.7011 41.912 25.4771 42.008 25.1491 42.008C24.9971 42.008 24.8451 41.984 24.6931 41.936L24.5091 42.464C24.6691 42.52 24.9011 42.584 25.2051 42.584C25.8851 42.584 26.2771 42.216 26.6291 41.248L27.9651 37.544V37.496H27.2611Z" fill="white"/>
</g>
</svg>
