<svg width="37" height="51" viewBox="0 0 37 51" fill="none" xmlns="http://www.w3.org/2000/svg">
<g clip-path="url(#clip0_56_771)">
<path d="M22.8833 35.2401C24.1829 35.2401 25.2364 34.1889 25.2364 32.8921C25.2364 31.5953 24.1829 30.5441 22.8833 30.5441C21.5838 30.5441 20.5303 31.5953 20.5303 32.8921C20.5303 34.1889 21.5838 35.2401 22.8833 35.2401Z" fill="url(#paint0_linear_56_771)"/>
<path d="M27.2561 33.0095C28.5556 33.0095 29.6091 31.9583 29.6091 30.6615C29.6091 29.3647 28.5556 28.3134 27.2561 28.3134C25.9565 28.3134 24.903 29.3647 24.903 30.6615C24.903 31.9583 25.9565 33.0095 27.2561 33.0095Z" fill="url(#paint1_linear_56_771)"/>
<path d="M30.7268 29.5462C32.0264 29.5462 33.0799 28.4949 33.0799 27.1981C33.0799 25.9013 32.0264 24.8501 30.7268 24.8501C29.4273 24.8501 28.3738 25.9013 28.3738 27.1981C28.3738 28.4949 29.4273 29.5462 30.7268 29.5462Z" fill="url(#paint2_linear_56_771)"/>
<path d="M32.9622 25.1827C34.2617 25.1827 35.3152 24.1314 35.3152 22.8346C35.3152 21.5378 34.2617 20.4866 32.9622 20.4866C31.6626 20.4866 30.6091 21.5378 30.6091 22.8346C30.6091 24.1314 31.6626 25.1827 32.9622 25.1827Z" fill="url(#paint3_linear_56_771)"/>
<path d="M33.7269 20.3497C35.0264 20.3497 36.0799 19.2984 36.0799 18.0016C36.0799 16.7048 35.0264 15.6536 33.7269 15.6536C32.4273 15.6536 31.3738 16.7048 31.3738 18.0016C31.3738 19.2984 32.4273 20.3497 33.7269 20.3497Z" fill="url(#paint4_linear_56_771)"/>
<path d="M32.9622 15.5167C34.2617 15.5167 35.3152 14.4654 35.3152 13.1686C35.3152 11.8719 34.2617 10.8206 32.9622 10.8206C31.6626 10.8206 30.6091 11.8719 30.6091 13.1686C30.6091 14.4654 31.6626 15.5167 32.9622 15.5167Z" fill="url(#paint5_linear_56_771)"/>
<path d="M30.7268 11.1532C32.0264 11.1532 33.0799 10.1019 33.0799 8.80515C33.0799 7.50837 32.0264 6.45711 30.7268 6.45711C29.4273 6.45711 28.3738 7.50837 28.3738 8.80515C28.3738 10.1019 29.4273 11.1532 30.7268 11.1532Z" fill="url(#paint6_linear_56_771)"/>
<path d="M27.2561 7.68983C28.5556 7.68983 29.6091 6.63857 29.6091 5.34178C29.6091 4.045 28.5556 2.99374 27.2561 2.99374C25.9565 2.99374 24.903 4.045 24.903 5.34178C24.903 6.63857 25.9565 7.68983 27.2561 7.68983Z" fill="url(#paint7_linear_56_771)"/>
<path d="M22.8833 5.4592C24.1829 5.4592 25.2364 4.40794 25.2364 3.11116C25.2364 1.81437 24.1829 0.763115 22.8833 0.763115C21.5838 0.763115 20.5303 1.81437 20.5303 3.11116C20.5303 4.40794 21.5838 5.4592 22.8833 5.4592Z" fill="url(#paint8_linear_56_771)"/>
<path d="M18.04 4.69607C19.3395 4.69607 20.393 3.64481 20.393 2.34803C20.393 1.05124 19.3395 -1.62125e-05 18.04 -1.62125e-05C16.7404 -1.62125e-05 15.687 1.05124 15.687 2.34803C15.687 3.64481 16.7404 4.69607 18.04 4.69607Z" fill="url(#paint9_linear_56_771)"/>
<path d="M13.1966 5.4592C14.4961 5.4592 15.5496 4.40794 15.5496 3.11116C15.5496 1.81437 14.4961 0.763115 13.1966 0.763115C11.897 0.763115 10.8435 1.81437 10.8435 3.11116C10.8435 4.40794 11.897 5.4592 13.1966 5.4592Z" fill="url(#paint10_linear_56_771)"/>
<path d="M8.82387 7.68983C10.1234 7.68983 11.1769 6.63857 11.1769 5.34178C11.1769 4.045 10.1234 2.99374 8.82387 2.99374C7.52432 2.99374 6.47083 4.045 6.47083 5.34178C6.47083 6.63857 7.52432 7.68983 8.82387 7.68983Z" fill="url(#paint11_linear_56_771)"/>
<path d="M5.3531 11.1532C6.65265 11.1532 7.70615 10.1019 7.70615 8.80515C7.70615 7.50837 6.65265 6.45711 5.3531 6.45711C4.05355 6.45711 3.00006 7.50837 3.00006 8.80515C3.00006 10.1019 4.05355 11.1532 5.3531 11.1532Z" fill="url(#paint12_linear_56_771)"/>
<path d="M3.11775 15.5167C4.4173 15.5167 5.4708 14.4654 5.4708 13.1686C5.4708 11.8719 4.4173 10.8206 3.11775 10.8206C1.8182 10.8206 0.764709 11.8719 0.764709 13.1686C0.764709 14.4654 1.8182 15.5167 3.11775 15.5167Z" fill="url(#paint13_linear_56_771)"/>
<path d="M2.35298 20.3497C3.65253 20.3497 4.70603 19.2984 4.70603 18.0016C4.70603 16.7048 3.65253 15.6536 2.35298 15.6536C1.05343 15.6536 -6.10352e-05 16.7048 -6.10352e-05 18.0016C-6.10352e-05 19.2984 1.05343 20.3497 2.35298 20.3497Z" fill="url(#paint14_linear_56_771)"/>
<path d="M3.11775 25.1827C4.4173 25.1827 5.4708 24.1314 5.4708 22.8346C5.4708 21.5378 4.4173 20.4866 3.11775 20.4866C1.8182 20.4866 0.764709 21.5378 0.764709 22.8346C0.764709 24.1314 1.8182 25.1827 3.11775 25.1827Z" fill="url(#paint15_linear_56_771)"/>
<path d="M5.3531 29.5462C6.65265 29.5462 7.70615 28.4949 7.70615 27.1981C7.70615 25.9013 6.65265 24.8501 5.3531 24.8501C4.05355 24.8501 3.00006 25.9013 3.00006 27.1981C3.00006 28.4949 4.05355 29.5462 5.3531 29.5462Z" fill="url(#paint16_linear_56_771)"/>
<path d="M8.82387 33.0095C10.1234 33.0095 11.1769 31.9583 11.1769 30.6615C11.1769 29.3647 10.1234 28.3134 8.82387 28.3134C7.52432 28.3134 6.47083 29.3647 6.47083 30.6615C6.47083 31.9583 7.52432 33.0095 8.82387 33.0095Z" fill="url(#paint17_linear_56_771)"/>
<path d="M13.1966 35.2401C14.4961 35.2401 15.5496 34.1889 15.5496 32.8921C15.5496 31.5953 14.4961 30.5441 13.1966 30.5441C11.897 30.5441 10.8435 31.5953 10.8435 32.8921C10.8435 34.1889 11.897 35.2401 13.1966 35.2401Z" fill="url(#paint18_linear_56_771)"/>
<path d="M20.5107 33.9977C20.5107 35.6022 18.8537 37.2556 18.2459 37.8035C18.1184 37.9209 17.9321 37.9209 17.8047 37.8035C17.1968 37.2654 15.5497 35.6804 15.5497 33.9977C15.5497 32.5791 16.687 31.4246 18.0302 31.4246C19.3734 31.4246 20.5107 32.5693 20.5107 33.9977Z" fill="url(#paint19_linear_56_771)"/>
<path d="M14.0496 43.8986H21.8342C21.8342 43.8986 21.2165 41.4821 21.0695 40.6994C20.9322 39.9852 20.5793 37.6763 17.9419 37.6763C15.1869 37.7448 14.981 39.9265 14.8143 40.7874C14.6476 41.6386 14.0496 43.8986 14.0496 43.8986Z" fill="url(#paint20_linear_56_771)"/>
</g>
<defs>
<linearGradient id="paint0_linear_56_771" x1="25.2364" y1="30.5441" x2="20.0692" y2="34.6615" gradientUnits="userSpaceOnUse">
<stop stop-color="#037B6E"/>
<stop offset="1" stop-color="#1595B1"/>
</linearGradient>
<linearGradient id="paint1_linear_56_771" x1="29.6091" y1="28.3134" x2="24.4419" y2="32.4309" gradientUnits="userSpaceOnUse">
<stop stop-color="#037B6E"/>
<stop offset="1" stop-color="#1595B1"/>
</linearGradient>
<linearGradient id="paint2_linear_56_771" x1="33.0799" y1="24.8501" x2="27.9127" y2="28.9675" gradientUnits="userSpaceOnUse">
<stop stop-color="#037B6E"/>
<stop offset="1" stop-color="#1595B1"/>
</linearGradient>
<linearGradient id="paint3_linear_56_771" x1="35.3152" y1="20.4866" x2="30.1481" y2="24.6041" gradientUnits="userSpaceOnUse">
<stop stop-color="#037B6E"/>
<stop offset="1" stop-color="#1595B1"/>
</linearGradient>
<linearGradient id="paint4_linear_56_771" x1="36.0799" y1="15.6536" x2="30.9128" y2="19.7711" gradientUnits="userSpaceOnUse">
<stop stop-color="#037B6E"/>
<stop offset="1" stop-color="#1595B1"/>
</linearGradient>
<linearGradient id="paint5_linear_56_771" x1="35.3152" y1="10.8206" x2="30.1481" y2="14.9381" gradientUnits="userSpaceOnUse">
<stop stop-color="#037B6E"/>
<stop offset="1" stop-color="#1595B1"/>
</linearGradient>
<linearGradient id="paint6_linear_56_771" x1="33.0799" y1="6.45711" x2="27.9127" y2="10.5746" gradientUnits="userSpaceOnUse">
<stop stop-color="#037B6E"/>
<stop offset="1" stop-color="#1595B1"/>
</linearGradient>
<linearGradient id="paint7_linear_56_771" x1="29.6091" y1="2.99374" x2="24.4419" y2="7.11121" gradientUnits="userSpaceOnUse">
<stop stop-color="#037B6E"/>
<stop offset="1" stop-color="#1595B1"/>
</linearGradient>
<linearGradient id="paint8_linear_56_771" x1="25.2364" y1="0.763115" x2="20.0692" y2="4.88058" gradientUnits="userSpaceOnUse">
<stop stop-color="#037B6E"/>
<stop offset="1" stop-color="#1595B1"/>
</linearGradient>
<linearGradient id="paint9_linear_56_771" x1="20.393" y1="-1.62125e-05" x2="15.2259" y2="4.11745" gradientUnits="userSpaceOnUse">
<stop stop-color="#037B6E"/>
<stop offset="1" stop-color="#1595B1"/>
</linearGradient>
<linearGradient id="paint10_linear_56_771" x1="15.5496" y1="0.763115" x2="10.3824" y2="4.88058" gradientUnits="userSpaceOnUse">
<stop stop-color="#037B6E"/>
<stop offset="1" stop-color="#1595B1"/>
</linearGradient>
<linearGradient id="paint11_linear_56_771" x1="11.1769" y1="2.99374" x2="6.00975" y2="7.11121" gradientUnits="userSpaceOnUse">
<stop stop-color="#037B6E"/>
<stop offset="1" stop-color="#1595B1"/>
</linearGradient>
<linearGradient id="paint12_linear_56_771" x1="7.70615" y1="6.45711" x2="2.53899" y2="10.5746" gradientUnits="userSpaceOnUse">
<stop stop-color="#037B6E"/>
<stop offset="1" stop-color="#1595B1"/>
</linearGradient>
<linearGradient id="paint13_linear_56_771" x1="5.4708" y1="10.8206" x2="0.303635" y2="14.9381" gradientUnits="userSpaceOnUse">
<stop stop-color="#037B6E"/>
<stop offset="1" stop-color="#1595B1"/>
</linearGradient>
<linearGradient id="paint14_linear_56_771" x1="4.70603" y1="15.6536" x2="-0.461134" y2="19.7711" gradientUnits="userSpaceOnUse">
<stop stop-color="#037B6E"/>
<stop offset="1" stop-color="#1595B1"/>
</linearGradient>
<linearGradient id="paint15_linear_56_771" x1="5.4708" y1="20.4866" x2="0.303636" y2="24.6041" gradientUnits="userSpaceOnUse">
<stop stop-color="#037B6E"/>
<stop offset="1" stop-color="#1595B1"/>
</linearGradient>
<linearGradient id="paint16_linear_56_771" x1="7.70615" y1="24.8501" x2="2.53899" y2="28.9675" gradientUnits="userSpaceOnUse">
<stop stop-color="#037B6E"/>
<stop offset="1" stop-color="#1595B1"/>
</linearGradient>
<linearGradient id="paint17_linear_56_771" x1="11.1769" y1="28.3134" x2="6.00975" y2="32.4309" gradientUnits="userSpaceOnUse">
<stop stop-color="#037B6E"/>
<stop offset="1" stop-color="#1595B1"/>
</linearGradient>
<linearGradient id="paint18_linear_56_771" x1="15.5496" y1="30.5441" x2="10.3824" y2="34.6615" gradientUnits="userSpaceOnUse">
<stop stop-color="#037B6E"/>
<stop offset="1" stop-color="#1595B1"/>
</linearGradient>
<linearGradient id="paint19_linear_56_771" x1="15.5497" y1="38.0654" x2="22.2283" y2="34.004" gradientUnits="userSpaceOnUse">
<stop stop-color="#FF4444"/>
<stop offset="1" stop-color="#FFEAC0"/>
</linearGradient>
<linearGradient id="paint20_linear_56_771" x1="14.1764" y1="43.8986" x2="21.0733" y2="36.9238" gradientUnits="userSpaceOnUse">
<stop stop-color="#FF9315"/>
<stop offset="1" stop-color="#FFF0CB"/>
<stop offset="1" stop-color="#FFF0CB"/>
</linearGradient>
<clipPath id="clip0_56_771">
<rect width="36.08" height="50.1111" fill="white"/>
</clipPath>
</defs>
</svg>
