<svg width="64" height="64" viewBox="0 0 64 64" fill="none" xmlns="http://www.w3.org/2000/svg">
<path d="M51.5 59.5H12.5C10.9087 59.5 9.38258 58.8679 8.25736 57.7426C7.13214 56.6174 6.5 55.0913 6.5 53.5V50.5C6.50086 49.6037 6.70251 48.719 7.09014 47.9108C7.47777 47.1027 8.04153 46.3917 8.74 45.83C8.89103 45.6913 9.0689 45.5851 9.26261 45.5178C9.45632 45.4506 9.66176 45.4237 9.86624 45.439C10.0707 45.4543 10.2699 45.5113 10.4515 45.6066C10.6331 45.7019 10.7932 45.8333 10.9219 45.9929C11.0507 46.1525 11.1454 46.3368 11.2001 46.5344C11.2548 46.732 11.2685 46.9387 11.2402 47.1418C11.2119 47.3449 11.1423 47.5401 11.0356 47.7152C10.9289 47.8903 10.7875 48.0417 10.62 48.16C10.2701 48.4414 9.98783 48.7977 9.79399 49.2027C9.60015 49.6077 9.49968 50.051 9.5 50.5V53.5C9.5 54.2956 9.81607 55.0587 10.3787 55.6213C10.9413 56.1839 11.7044 56.5 12.5 56.5H51.5C52.2957 56.5 53.0587 56.1839 53.6213 55.6213C54.1839 55.0587 54.5 54.2956 54.5 53.5V50.5C54.4988 50.0527 54.3976 49.6113 54.2039 49.2082C54.0101 48.805 53.7286 48.4503 53.38 48.17C53.0992 47.9121 52.9271 47.557 52.8987 47.1768C52.8703 46.7967 52.9878 46.4199 53.2272 46.1232C53.4666 45.8265 53.81 45.6321 54.1876 45.5795C54.5652 45.5269 54.9486 45.62 55.26 45.84C55.9572 46.4006 56.5201 47.11 56.9077 47.9163C57.2953 48.7226 57.4977 49.6054 57.5 50.5V53.5C57.5 55.0913 56.8679 56.6174 55.7426 57.7426C54.6174 58.8679 53.0913 59.5 51.5 59.5Z" fill="white"/>
<path d="M9.68 58.5C9.33822 58.5003 9.00659 58.3839 8.74 58.17C8.04153 57.6083 7.47777 56.8973 7.09014 56.0892C6.70251 55.281 6.50086 54.3963 6.5 53.5V50.5C6.5 48.9087 7.13214 47.3826 8.25736 46.2574C9.38258 45.1321 10.9087 44.5 12.5 44.5H15C15.3978 44.5 15.7794 44.658 16.0607 44.9393C16.342 45.2206 16.5 45.6022 16.5 46C16.5 46.3978 16.342 46.7794 16.0607 47.0607C15.7794 47.342 15.3978 47.5 15 47.5H12.5C11.7044 47.5 10.9413 47.8161 10.3787 48.3787C9.81607 48.9413 9.5 49.7044 9.5 50.5V53.5C9.50117 53.9473 9.60236 54.3887 9.79615 54.7918C9.98993 55.195 10.2714 55.5497 10.62 55.83C10.8624 56.0245 11.0384 56.2894 11.1237 56.5882C11.209 56.8871 11.1994 57.205 11.0962 57.4981C10.993 57.7912 10.8013 58.0451 10.5476 58.2246C10.2939 58.404 9.99076 58.5003 9.68 58.5Z" fill="white"/>
<path d="M54.32 58.5C54.0092 58.5003 53.7061 58.404 53.4524 58.2246C53.1987 58.0451 53.007 57.7912 52.9038 57.4981C52.8006 57.205 52.791 56.8871 52.8763 56.5882C52.9616 56.2894 53.1376 56.0245 53.38 55.83C53.7286 55.5497 54.0101 55.195 54.2039 54.7918C54.3976 54.3887 54.4988 53.9473 54.5 53.5V50.5C54.5 49.7044 54.1839 48.9413 53.6213 48.3787C53.0587 47.8161 52.2956 47.5 51.5 47.5H49C48.6022 47.5 48.2206 47.342 47.9393 47.0607C47.658 46.7794 47.5 46.3978 47.5 46C47.5 45.6022 47.658 45.2206 47.9393 44.9393C48.2206 44.658 48.6022 44.5 49 44.5H51.5C53.0913 44.5 54.6174 45.1321 55.7426 46.2574C56.8679 47.3826 57.5 48.9087 57.5 50.5V53.5C57.4991 54.3963 57.2975 55.281 56.9099 56.0892C56.5222 56.8973 55.9585 57.6083 55.26 58.17C54.9934 58.3839 54.6618 58.5003 54.32 58.5Z" fill="white"/>
<path d="M33.81 52.5H30.47C26.47 52.5 19.14 51.94 14.8 47.63C13.7095 46.5368 12.8542 45.2321 12.2867 43.7962C11.7192 42.3602 11.4515 40.8233 11.5 39.28C11.5 25.28 30.5 16.01 31.35 15.62C31.5515 15.524 31.7718 15.4742 31.995 15.4742C32.2181 15.4742 32.4385 15.524 32.64 15.62C33.45 16.01 52.49 25.28 52.49 39.28C52.5385 40.8233 52.2707 42.3602 51.7032 43.7962C51.1357 45.2321 50.2804 46.5368 49.19 47.63C45 51.84 37.85 52.5 33.81 52.5ZM32 49.5H33.55C36.36 49.5 43.38 49.17 47.08 45.5C47.8896 44.6859 48.5217 43.713 48.9365 42.6424C49.3513 41.5719 49.5397 40.427 49.49 39.28C49.49 28.49 35.23 20.36 31.99 18.66C28.75 20.37 14.49 28.49 14.49 39.28C14.4402 40.427 14.6287 41.5719 15.0435 42.6424C15.4583 43.713 16.0904 44.6859 16.9 45.5C20.6 49.18 27.6 49.5 30.43 49.5H32Z" fill="white"/>
<path d="M44 40.5C43.6022 40.5 43.2206 40.342 42.9393 40.0607C42.658 39.7794 42.5 39.3978 42.5 39C42.4896 37.8566 42.2587 36.7259 41.82 35.67C41.6914 35.3056 41.7084 34.9055 41.8675 34.5533C42.0266 34.2011 42.3155 33.9239 42.674 33.7795C43.0324 33.6351 43.4328 33.6346 43.7916 33.7781C44.1505 33.9217 44.44 34.1982 44.6 34.55C45.184 35.9615 45.4896 37.4725 45.5 39C45.5 39.3978 45.342 39.7794 45.0607 40.0607C44.7794 40.342 44.3978 40.5 44 40.5Z" fill="white"/>
<path d="M40.91 32.8C40.6855 32.8002 40.4639 32.7499 40.2614 32.653C40.0589 32.5561 39.8807 32.415 39.74 32.24C37.8089 29.9733 35.5347 28.023 33 26.46C32.8333 26.3543 32.6889 26.2168 32.5753 26.0553C32.4617 25.8938 32.381 25.7115 32.3378 25.5188C32.2946 25.3261 32.2898 25.1268 32.3236 24.9323C32.3575 24.7378 32.4293 24.5518 32.535 24.385C32.7485 24.0482 33.0871 23.81 33.4762 23.7228C33.6689 23.6796 33.8682 23.6748 34.0627 23.7086C34.2573 23.7425 34.4433 23.8143 34.61 23.92C37.4288 25.6568 39.9564 27.8267 42.1 30.35C42.2774 30.5705 42.3887 30.8367 42.4212 31.1178C42.4537 31.3989 42.406 31.6834 42.2836 31.9386C42.1613 32.1937 41.9693 32.409 41.7298 32.5597C41.4902 32.7104 41.213 32.7902 40.93 32.79L40.91 32.8Z" fill="white"/>
<path d="M32 13.5C30.8065 13.5 29.6619 13.0259 28.818 12.182C27.9741 11.3381 27.5 10.1935 27.5 9C27.5 7.80653 27.9741 6.66193 28.818 5.81802C29.6619 4.97411 30.8065 4.5 32 4.5C32.3978 4.5 32.7794 4.65804 33.0607 4.93934C33.342 5.22064 33.5 5.60218 33.5 6C33.5 6.39782 33.342 6.77936 33.0607 7.06066C32.7794 7.34196 32.3978 7.5 32 7.5C31.7253 7.50106 31.4561 7.57756 31.2218 7.72116C30.9876 7.86476 30.7973 8.06993 30.6717 8.31429C30.5461 8.55866 30.49 8.83283 30.5096 9.10688C30.5292 9.38093 30.6237 9.64434 30.7827 9.86837C30.9418 10.0924 31.1593 10.2684 31.4116 10.3773C31.6639 10.4861 31.9412 10.5236 32.2133 10.4856C32.4854 10.4476 32.7418 10.3355 32.9546 10.1617C33.1674 9.98794 33.3284 9.75904 33.42 9.5C33.5526 9.12472 33.8289 8.81749 34.188 8.64589C34.5471 8.47429 34.9597 8.45239 35.335 8.585C35.7103 8.71761 36.0175 8.99387 36.1891 9.353C36.3607 9.71213 36.3826 10.1247 36.25 10.5C35.9381 11.3777 35.3621 12.1374 34.6011 12.6745C33.8401 13.2117 32.9315 13.5001 32 13.5Z" fill="white"/>
</svg>
