<svg width="64" height="64" viewBox="0 0 64 64" fill="none" xmlns="http://www.w3.org/2000/svg">
<path d="M32 15.37C31.2386 15.37 30.4942 15.1442 29.8611 14.7212C29.228 14.2981 28.7345 13.6968 28.4431 12.9933C28.1517 12.2898 28.0754 11.5157 28.224 10.7689C28.3726 10.0221 28.7392 9.33607 29.2777 8.79764C29.8161 8.25921 30.5021 7.89253 31.2489 7.74398C31.9958 7.59542 32.7699 7.67167 33.4734 7.96306C34.1769 8.25446 34.7781 8.74793 35.2012 9.38105C35.6242 10.0142 35.85 10.7585 35.85 11.52C35.8474 12.5403 35.4409 13.518 34.7195 14.2394C33.998 14.9609 33.0203 15.3674 32 15.37ZM32 10.66C31.8319 10.66 31.6676 10.7099 31.5278 10.8033C31.388 10.8967 31.2791 11.0294 31.2147 11.1847C31.1504 11.34 31.1336 11.5109 31.1664 11.6758C31.1992 11.8407 31.2801 11.9922 31.399 12.111C31.5179 12.2299 31.6693 12.3109 31.8342 12.3437C31.9991 12.3765 32.17 12.3596 32.3253 12.2953C32.4806 12.231 32.6134 12.122 32.7068 11.9822C32.8002 11.8425 32.85 11.6781 32.85 11.51C32.8474 11.2863 32.7567 11.0727 32.5976 10.9154C32.4384 10.7582 32.2237 10.67 32 10.67V10.66Z" fill="white"/>
<path d="M14.35 33C13.5885 33 12.8442 32.7742 12.2111 32.3512C11.5779 31.9281 11.0845 31.3268 10.7931 30.6233C10.5017 29.9198 10.4254 29.1457 10.574 28.3989C10.7225 27.6521 11.0892 26.9661 11.6276 26.4276C12.1661 25.8892 12.8521 25.5225 13.5989 25.374C14.3457 25.2254 15.1198 25.3017 15.8233 25.5931C16.5268 25.8845 17.1281 26.3779 17.5512 27.0111C17.9742 27.6442 18.2 28.3885 18.2 29.15C18.1974 30.1703 17.7909 31.148 17.0694 31.8695C16.348 32.5909 15.3703 32.9974 14.35 33ZM14.35 28.29C14.1819 28.29 14.0175 28.3399 13.8778 28.4333C13.738 28.5267 13.629 28.6594 13.5647 28.8147C13.5004 28.97 13.4835 29.1409 13.5163 29.3058C13.5491 29.4707 13.6301 29.6222 13.749 29.741C13.8678 29.8599 14.0193 29.9409 14.1842 29.9737C14.3491 30.0065 14.52 29.9896 14.6753 29.9253C14.8306 29.861 14.9634 29.752 15.0568 29.6122C15.1502 29.4725 15.2 29.3081 15.2 29.14C15.1948 28.9181 15.1029 28.707 14.9441 28.5519C14.7852 28.3967 14.572 28.3099 14.35 28.31V28.29Z" fill="white"/>
<path d="M49.65 33C48.8885 33 48.1442 32.7742 47.511 32.3512C46.8779 31.9281 46.3844 31.3268 46.0931 30.6233C45.8017 29.9198 45.7254 29.1457 45.874 28.3989C46.0225 27.6521 46.3892 26.9661 46.9276 26.4276C47.4661 25.8892 48.1521 25.5225 48.8989 25.374C49.6457 25.2254 50.4198 25.3017 51.1233 25.5931C51.8268 25.8845 52.4281 26.3779 52.8511 27.0111C53.2742 27.6442 53.5 28.3885 53.5 29.15C53.4973 30.1703 53.0909 31.148 52.3694 31.8695C51.648 32.5909 50.6703 32.9974 49.65 33ZM49.65 28.29C49.4819 28.29 49.3175 28.3399 49.1778 28.4333C49.038 28.5267 48.929 28.6594 48.8647 28.8147C48.8004 28.97 48.7835 29.1409 48.8163 29.3058C48.8491 29.4707 48.9301 29.6222 49.0489 29.741C49.1678 29.8599 49.3193 29.9409 49.4842 29.9737C49.649 30.0065 49.82 29.9896 49.9753 29.9253C50.1306 29.861 50.2633 29.752 50.3567 29.6122C50.4501 29.4725 50.5 29.3081 50.5 29.14C50.4948 28.9181 50.4029 28.707 50.2441 28.5519C50.0852 28.3967 49.872 28.3099 49.65 28.31V28.29Z" fill="white"/>
<path d="M40.89 17.78C40.0419 17.779 39.2179 17.498 38.5459 16.9807C37.8739 16.4634 37.3915 15.7386 37.1737 14.919C36.9558 14.0994 37.0147 13.2308 37.3411 12.4481C37.6676 11.6653 38.2433 11.0123 38.979 10.5904C39.7146 10.1684 40.569 10.0012 41.4094 10.1146C42.2499 10.228 43.0294 10.6158 43.6268 11.2177C44.2243 11.8195 44.6063 12.6018 44.7136 13.4431C44.8208 14.2843 44.6473 15.1375 44.22 15.87C43.8821 16.4532 43.3963 16.937 42.8116 17.2723C42.2269 17.6077 41.564 17.7828 40.89 17.78ZM40.89 13.07C40.7127 13.0692 40.5396 13.124 40.3949 13.2265C40.2502 13.329 40.1412 13.4742 40.0832 13.6417C40.0251 13.8093 40.0209 13.9908 40.0712 14.1608C40.1214 14.3309 40.2236 14.481 40.3634 14.5901C40.5031 14.6992 40.6735 14.7618 40.8507 14.7692C41.0279 14.7767 41.2029 14.7285 41.3513 14.6315C41.4998 14.5345 41.6142 14.3935 41.6785 14.2283C41.7428 14.063 41.7538 13.8818 41.71 13.71C41.6635 13.5276 41.5577 13.3658 41.4093 13.2499C41.2609 13.1341 41.0782 13.0708 40.89 13.07Z" fill="white"/>
<path d="M23.09 48.26C22.2419 48.259 21.4179 47.978 20.7459 47.4607C20.0739 46.9434 19.5916 46.2186 19.3737 45.399C19.1559 44.5794 19.2147 43.7108 19.5411 42.9281C19.8676 42.1453 20.4433 41.4923 21.179 41.0704C21.9146 40.6484 22.769 40.4812 23.6095 40.5946C24.4499 40.708 25.2294 41.0958 25.8268 41.6976C26.4243 42.2995 26.8063 43.0818 26.9136 43.9231C27.0209 44.7643 26.8473 45.6175 26.42 46.35C26.079 46.9305 25.5925 47.412 25.0085 47.747C24.4245 48.082 23.7632 48.2588 23.09 48.26ZM23.09 43.55C22.9012 43.5473 22.7169 43.6076 22.5662 43.7214C22.4154 43.8351 22.3068 43.9957 22.2575 44.178C22.2082 44.3603 22.221 44.5538 22.2939 44.728C22.3668 44.9022 22.4956 45.0471 22.66 45.14C22.757 45.1972 22.8644 45.2347 22.9759 45.2501C23.0875 45.2655 23.201 45.2585 23.3098 45.2297C23.4187 45.2008 23.5207 45.1507 23.61 45.082C23.6993 45.0134 23.7741 44.9278 23.83 44.83C23.906 44.7004 23.9463 44.5529 23.9468 44.4026C23.9473 44.2524 23.9079 44.1046 23.8327 43.9745C23.7575 43.8444 23.6491 43.7366 23.5186 43.662C23.3882 43.5875 23.2403 43.5488 23.09 43.55Z" fill="white"/>
<path d="M16.75 24.12C15.9019 24.119 15.0779 23.838 14.4059 23.3207C13.7339 22.8034 13.2515 22.0786 13.0337 21.259C12.8158 20.4394 12.8747 19.5708 13.2011 18.7881C13.5276 18.0053 14.1033 17.3523 14.8389 16.9304C15.5746 16.5084 16.429 16.3412 17.2694 16.4546C18.1099 16.568 18.8893 16.9558 19.4868 17.5577C20.0843 18.1595 20.4663 18.9418 20.5736 19.7831C20.6808 20.6243 20.5073 21.4775 20.08 22.21C19.7429 22.7939 19.2572 23.2782 18.6723 23.6137C18.0875 23.9492 17.4242 24.1238 16.75 24.12ZM16.75 19.41C16.544 19.4087 16.3446 19.4822 16.1888 19.6168C16.033 19.7514 15.9313 19.938 15.9027 20.142C15.8742 20.3459 15.9206 20.5533 16.0334 20.7256C16.1462 20.8979 16.3177 21.0233 16.516 21.0787C16.7144 21.1341 16.9261 21.1155 17.1118 21.0265C17.2975 20.9376 17.4446 20.7842 17.5257 20.5949C17.6069 20.4056 17.6166 20.1933 17.553 19.9975C17.4894 19.8016 17.3568 19.6355 17.18 19.53C17.0519 19.4576 16.9071 19.4197 16.76 19.42L16.75 19.41Z" fill="white"/>
<path d="M47.23 41.92C46.3826 41.9181 45.5595 41.6367 44.8883 41.1193C44.2172 40.602 43.7354 39.8777 43.5178 39.0588C43.3002 38.2398 43.3588 37.3719 43.6847 36.5897C44.0105 35.8074 44.5853 35.1545 45.3199 34.7322C46.0546 34.3099 46.9081 34.1417 47.748 34.2538C48.5879 34.3659 49.3674 34.752 49.9656 35.3522C50.5638 35.9524 50.9473 36.7332 51.0565 37.5736C51.1658 38.4139 50.9948 39.2668 50.57 40C50.2333 40.5873 49.7466 41.0745 49.1598 41.4119C48.5729 41.7492 47.9069 41.9246 47.23 41.92ZM47.23 37.21C47.0241 37.2087 46.8247 37.2822 46.6688 37.4168C46.513 37.5514 46.4113 37.738 46.3828 37.942C46.3542 38.1459 46.4006 38.3533 46.5134 38.5256C46.6262 38.6979 46.7977 38.8233 46.996 38.8787C47.1944 38.9341 47.4061 38.9155 47.5918 38.8265C47.7775 38.7375 47.9246 38.5842 48.0058 38.3949C48.0869 38.2056 48.0966 37.9933 48.033 37.7975C47.9694 37.6016 47.8368 37.4355 47.66 37.33C47.5328 37.2541 47.388 37.2127 47.24 37.21H47.23Z" fill="white"/>
<path d="M23.11 17.78C22.1748 17.7946 21.2662 17.4683 20.554 16.8619C19.8418 16.2555 19.3747 15.4106 19.24 14.4849C19.1053 13.5593 19.3121 12.6163 19.822 11.8321C20.3318 11.0478 21.1097 10.476 22.0103 10.2235C22.9109 9.97092 23.8727 10.0549 24.716 10.4597C25.5592 10.8645 26.2263 11.5624 26.5925 12.4231C26.9587 13.2838 26.9991 14.2484 26.706 15.1367C26.4129 16.025 25.8065 16.7762 25 17.25C24.4262 17.5866 23.7752 17.7692 23.11 17.78ZM23.11 13.07C22.923 13.0715 22.7416 13.1347 22.5941 13.2497C22.4466 13.3647 22.3411 13.5252 22.2941 13.7063C22.2471 13.8873 22.2611 14.0789 22.334 14.2512C22.4069 14.4234 22.5345 14.5669 22.6972 14.6592C22.8599 14.7516 23.0485 14.7876 23.2338 14.7619C23.4191 14.7361 23.5907 14.65 23.7221 14.5168C23.8534 14.3835 23.9371 14.2107 23.9603 14.0251C23.9834 13.8395 23.9447 13.6514 23.85 13.49C23.7724 13.3615 23.662 13.2559 23.5303 13.1839C23.3986 13.1119 23.2501 13.076 23.1 13.08L23.11 13.07Z" fill="white"/>
<path d="M40.91 48.26C39.9741 48.2629 39.069 47.9258 38.3632 47.3112C37.6573 46.6967 37.1988 45.8466 37.0729 44.9192C36.947 43.9918 37.1624 43.0503 37.6789 42.2698C38.1953 41.4894 38.9778 40.9231 39.8806 40.6765C40.7834 40.4298 41.7451 40.5196 42.5866 40.929C43.4282 41.3385 44.0923 42.0398 44.4555 42.9023C44.8186 43.7649 44.856 44.73 44.5606 45.6181C44.2653 46.5062 43.6574 47.2567 42.85 47.73C42.2615 48.075 41.5921 48.2578 40.91 48.26ZM40.91 43.55C40.7597 43.5488 40.6118 43.5874 40.4813 43.662C40.3509 43.7366 40.2425 43.8444 40.1673 43.9745C40.0921 44.1046 40.0527 44.2524 40.0532 44.4026C40.0537 44.5529 40.094 44.7004 40.17 44.83C40.2264 44.9263 40.3014 45.0104 40.3907 45.0773C40.48 45.1443 40.5817 45.1928 40.69 45.22C40.7988 45.25 40.9125 45.2574 41.0243 45.242C41.136 45.2265 41.2434 45.1884 41.34 45.13C41.5044 45.0371 41.6332 44.8922 41.7061 44.718C41.7789 44.5438 41.7917 44.3503 41.7424 44.168C41.6932 43.9857 41.5846 43.8251 41.4338 43.7113C41.2831 43.5976 41.0988 43.5373 40.91 43.54V43.55Z" fill="white"/>
<path d="M47.25 24.12C46.3168 24.1223 45.4145 23.7855 44.7109 23.1723C44.0074 22.5592 43.5506 21.7113 43.4254 20.7865C43.3002 19.8617 43.5151 18.9229 44.0303 18.1448C44.5454 17.3666 45.3257 16.8021 46.226 16.5561C47.1262 16.3102 48.0851 16.3996 48.9244 16.8077C49.7636 17.2159 50.426 17.915 50.7884 18.775C51.1508 19.635 51.1885 20.5973 50.8945 21.483C50.6005 22.3687 49.9947 23.1175 49.19 23.59C48.6017 23.9354 47.9322 24.1183 47.25 24.12ZM47.25 19.41C47.0629 19.4115 46.8816 19.4747 46.734 19.5897C46.5865 19.7047 46.4811 19.8652 46.434 20.0463C46.387 20.2273 46.401 20.4189 46.4739 20.5912C46.5468 20.7634 46.6745 20.9069 46.8372 20.9992C46.9999 21.0916 47.1885 21.1276 47.3738 21.1019C47.5591 21.0761 47.7307 20.99 47.862 20.8568C47.9934 20.7235 48.0771 20.5507 48.1002 20.3651C48.1234 20.1795 48.0846 19.9914 47.99 19.83C47.9123 19.7015 47.802 19.5959 47.6703 19.5239C47.5385 19.4519 47.3901 19.416 47.24 19.42L47.25 19.41Z" fill="white"/>
<path d="M16.77 41.92C15.8368 41.9223 14.9345 41.5855 14.231 40.9723C13.5274 40.3592 13.0706 39.5113 12.9454 38.5865C12.8202 37.6617 13.0352 36.7229 13.5503 35.9448C14.0655 35.1666 14.8457 34.602 15.746 34.3561C16.6462 34.1102 17.6051 34.1996 18.4444 34.6077C19.2836 35.0159 19.9461 35.715 20.3085 36.575C20.6709 37.435 20.7085 38.3973 20.4145 39.283C20.1205 40.1687 19.5148 40.9175 18.71 41.39C18.1217 41.7354 17.4522 41.9183 16.77 41.92ZM16.77 37.21C16.5829 37.2115 16.4016 37.2746 16.2541 37.3897C16.1065 37.5047 16.0011 37.6652 15.9541 37.8463C15.907 38.0273 15.9211 38.2189 15.9939 38.3911C16.0668 38.5634 16.1945 38.7069 16.3572 38.7992C16.5199 38.8915 16.7085 38.9276 16.8938 38.9019C17.0791 38.8761 17.2507 38.79 17.382 38.6567C17.5134 38.5235 17.5971 38.3507 17.6202 38.1651C17.6434 37.9794 17.6046 37.7914 17.51 37.63C17.4328 37.5003 17.3229 37.3933 17.1912 37.3196C17.0596 37.2458 16.9109 37.2081 16.76 37.21H16.77Z" fill="white"/>
<path d="M32 58L30.94 56.94C29.7976 55.8395 28.9012 54.5095 28.31 53.0375C27.7188 51.5655 27.4462 49.985 27.51 48.4C27.51 47.2065 27.9841 46.0619 28.828 45.218C29.672 44.3741 30.8165 43.9 32.01 43.9C33.2035 43.9 34.3481 44.3741 35.192 45.218C36.0359 46.0619 36.51 47.2065 36.51 48.4C36.5739 49.985 36.3012 51.5655 35.71 53.0375C35.1188 54.5095 34.2225 55.8395 33.08 56.94L32 58ZM32 46.9C31.7997 46.8815 31.5978 46.9074 31.4087 46.9757C31.2195 47.0441 31.0477 47.1532 30.9055 47.2955C30.7633 47.4377 30.6541 47.6095 30.5858 47.7986C30.5174 47.9878 30.4916 48.1897 30.51 48.39C30.421 50.2214 30.9453 52.0302 32 53.53C33.0612 52.0219 33.5858 50.2015 33.49 48.36C33.5101 48.1589 33.4854 47.9559 33.4177 47.7655C33.3501 47.5751 33.2411 47.402 33.0987 47.2586C32.9563 47.1153 32.784 47.0052 32.594 46.9363C32.4041 46.8673 32.2012 46.8413 32 46.86V46.9Z" fill="white"/>
</svg>
